<svg fill="none" xmlns="http://www.w3.org/2000/svg" viewBox="0 0 16 16">
  <path d="M10.6666 14.6668v-2.58a2.246 2.246 0 0 0-.6266-1.74c2.0933-.2333 4.2933-1.0267 4.2933-4.6667a3.6268 3.6268 0 0 0-1-2.5 3.38 3.38 0 0 0-.06-2.5133s-.7867-.2333-2.6067.9867a8.92 8.92 0 0 0-4.6666 0C4.18.4335 3.3933.6668 3.3933.6668a3.38 3.38 0 0 0-.06 2.5133 3.6267 3.6267 0 0 0-1 2.52c0 3.6133 2.2 4.4067 4.2934 4.6667A2.2458 2.2458 0 0 0 6 12.0868v2.58" fill="#0082CA"/>
  <path d="M6 12.6668c-3.3333 1-3.3333-1.6667-4.6667-2m9.3333 4v-2.58a2.246 2.246 0 0 0-.6266-1.74c2.0933-.2333 4.2933-1.0267 4.2933-4.6667a3.6268 3.6268 0 0 0-1-2.5 3.38 3.38 0 0 0-.06-2.5133s-.7867-.2333-2.6067.9867a8.92 8.92 0 0 0-4.6666 0C4.18.4335 3.3933.6668 3.3933.6668a3.38 3.38 0 0 0-.06 2.5133 3.6267 3.6267 0 0 0-1 2.52c0 3.6133 2.2 4.4067 4.2934 4.6667A2.2458 2.2458 0 0 0 6 12.0868v2.58h4.6666Z" stroke="#0082CA" stroke-linecap="round" stroke-linejoin="round"/>
</svg>
