<svg fill="none" xmlns="http://www.w3.org/2000/svg" viewBox="0 0 38 38">
  <g clip-path="url(#a)" fill-rule="evenodd" clip-rule="evenodd" fill="#0082CA">
    <path d="M23.7024 17.967a1.4253 1.4253 0 0 0 1.4276.7264 1.4273 1.4273 0 0 0 1.2019-1.0588 1.4265 1.4265 0 0 0-.16-1.0926L20.3532 6.4634A1.4044 1.4044 0 0 0 19 5.762a1.427 1.427 0 0 0-1.354.7014L6.9582 24.9731a1.4257 1.4257 0 0 0 .5227 1.9477 1.424 1.424 0 0 0 .527.1786 1.4243 1.4243 0 0 0 1.054-.2829 1.4253 1.4253 0 0 0 .3667-.4184L19 9.8206l4.7024 8.1464Z"/>
    <path d="m31.0418 24.8667-2.2336-3.8608a1.399 1.399 0 0 0-.6642-.5941 1.4256 1.4256 0 0 0-.7608-.2253H15.7457a1.4251 1.4251 0 0 0 0 2.85h10.9512l1.8763 3.2534a1.426 1.426 0 0 0 2.5758-.3632 1.4255 1.4255 0 0 0-.1072-1.06Z"/>
    <path d="M38 19C38 8.5029 29.4971 0 19 0S0 8.5029 0 19s8.502 19 19 19a18.859 18.859 0 0 0 8.134-1.8311 1.4094 1.4094 0 0 1-.7599-1.2113 17.567 17.567 0 0 1-7.3599 1.6148c-9.7017 0-17.575-7.8724-17.575-17.5751C1.4392 9.2947 9.2982 1.425 19 1.425c9.7017 0 17.575 7.876 17.575 17.575a17.4351 17.4351 0 0 1-3.1594 10.0467 1.4199 1.4199 0 0 1 .5471 1.1164v.5462A18.924 18.924 0 0 0 38 19Z"/>
    <path d="M32.3001 29.6877h-4.2732a.7133.7133 0 0 0 0 1.4268h3.562v1.1873a.7125.7125 0 0 0 1.425 0v-1.8967a.7159.7159 0 0 0-.2081-.5068.7143.7143 0 0 0-.5057-.2106ZM32.0624 33.9627h-3.3261v-1.425a.7125.7125 0 1 0-1.425 0v2.1379a.7147.7147 0 0 0 .7094.7094h4.0373a.7125.7125 0 0 0 0-1.425l.0044.0027Z"/>
  </g>
  <defs>
    <clipPath id="a">
      <path fill="#fff" d="M0 0h38v38H0z"/>
    </clipPath>
  </defs>
</svg>
