<svg width="557" height="591" id="promo-banner" viewBox="0 0 557 591" fill="none" xmlns="http://www.w3.org/2000/svg">
<g clip-path="url(#clip0_10_321)">
<path d="M368.886 278.951L368.881 278.943L368.876 278.934L295.867 152.236L295 150.733L294.134 152.236L145.525 410.059L145.525 410.059C144.138 412.469 142.291 414.58 140.089 416.274C137.887 417.968 135.374 419.211 132.693 419.931C130.012 420.652 127.215 420.837 124.463 420.475C121.71 420.113 119.056 419.212 116.651 417.822L116.151 418.688L116.651 417.822C114.247 416.433 112.138 414.583 110.447 412.377C108.756 410.171 107.516 407.654 106.796 404.967C106.076 402.281 105.892 399.479 106.253 396.721C106.614 393.964 107.514 391.305 108.901 388.896C108.901 388.896 108.901 388.895 108.902 388.895L274.84 101.027C274.841 101.026 274.841 101.025 274.842 101.025C276.862 97.5648 279.82 94.7499 283.372 92.9065C286.925 91.0628 290.928 90.2666 294.914 90.6103L295.005 90.6181L295.096 90.6094C299.082 90.2262 303.095 91.0045 306.651 92.8508C310.207 94.6971 313.155 97.533 315.141 101.018L315.143 101.022L405.487 257.771L405.491 257.779L405.496 257.787C406.949 260.198 407.907 262.875 408.314 265.662C408.721 268.448 408.57 271.288 407.868 274.015C407.167 276.742 405.929 279.301 404.228 281.543C402.527 283.785 400.397 285.664 397.963 287.071C395.528 288.478 392.838 289.385 390.05 289.738C387.261 290.091 384.43 289.884 381.723 289.128C379.016 288.372 376.486 287.082 374.282 285.335C372.077 283.588 370.243 281.418 368.886 278.951Z" stroke="#0082CA" stroke-width="2"/>
<path d="M446.415 327.189L446.418 327.195L481.089 387.224C483.621 392.064 484.188 397.699 482.669 402.949C481.148 408.205 477.655 412.667 472.923 415.4C468.191 418.132 462.586 418.924 457.285 417.609C451.989 416.295 447.405 412.981 444.493 408.36L415.37 357.778L415.082 357.277H414.503H244.473C238.871 357.277 233.498 355.048 229.536 351.079C225.574 347.11 223.348 341.728 223.348 336.115C223.348 330.501 225.574 325.119 229.536 321.15C233.498 317.182 238.871 314.952 244.473 314.952H425.157C429.155 314.976 433.065 316.135 436.432 318.297L436.501 318.341L436.577 318.374C440.727 320.16 444.182 323.255 446.415 327.189Z" stroke="#0082CA" stroke-width="2"/>
<path d="M589 295.5V295.501C589.088 360.333 567.733 423.338 528.316 474.689V469.115V469.113C528.308 465.611 527.505 462.157 525.966 459.013C524.567 456.153 522.593 453.617 520.172 451.563C551.988 405.778 568.994 351.297 568.875 295.498C568.874 144.102 446.185 21.1622 295 21.1622C143.813 21.1622 21.3449 144.008 21.3449 295.459C21.3449 446.911 144.034 569.797 295.22 569.797C334.334 569.803 372.989 561.414 408.583 545.2C408.917 548.761 410.078 552.201 411.983 555.243C413.805 558.152 416.252 560.607 419.136 562.434C380.291 580.648 337.907 590.063 295.001 590H295C132.558 590 1 458.207 1 295.5C1 132.793 132.572 1 295 1C457.428 1 589 132.793 589 295.5Z" stroke="#03E2B3" stroke-width="2"/>
<path d="M491.46 483.913V482.913H490.46H435.155C432.483 482.913 429.92 481.85 428.031 479.957C426.141 478.064 425.079 475.496 425.079 472.818C425.079 470.14 426.141 467.572 428.031 465.679C429.92 463.786 432.483 462.723 435.155 462.723H501.501C502.828 462.725 504.143 462.989 505.368 463.5C506.594 464.011 507.707 464.76 508.644 465.703C509.581 466.646 510.323 467.765 510.828 468.996C511.332 470.227 511.589 471.546 511.584 472.876V472.88V502.379C511.584 505.053 510.524 507.618 508.637 509.508C506.749 511.398 504.19 512.46 501.522 512.46C498.854 512.46 496.295 511.398 494.408 509.508C492.52 507.618 491.46 505.053 491.46 502.379V483.913Z" stroke="#0082CA" stroke-width="2"/>
<path d="M497.812 529.21H498.654C500.988 529.422 503.186 530.446 504.857 532.12C506.745 534.011 507.805 536.575 507.805 539.249C507.805 541.923 506.745 544.488 504.857 546.378C502.97 548.269 500.411 549.33 497.743 549.33H435.062C432.412 549.31 429.876 548.246 428.002 546.368C426.128 544.491 425.065 541.95 425.044 539.294V506.047C425.044 503.373 426.105 500.809 427.992 498.918C429.879 497.028 432.439 495.966 435.107 495.966C437.775 495.966 440.334 497.028 442.221 498.918C444.109 500.809 445.169 503.373 445.169 506.047V528.21V529.21H446.169H497.812Z" stroke="#0082CA" stroke-width="2"/>
<path class="stars" d="M300.625 19.7164H296.328L295 15.5625L293.672 19.7164H289.375L292.851 22.2838L291.524 26.4375L295 23.8704L298.476 26.4375L297.149 22.284L300.625 19.7164Z" fill="#03E2B3"/>
<path class="stars" d="M300.625 88.7164H296.328L295 84.5625L293.672 88.7164H289.375L292.851 91.2838L291.524 95.4375L295 92.8704L298.476 95.4375L297.149 91.284L300.625 88.7164Z" fill="#0082CA"/>
<path class="stars" d="M300.625 151.716H296.328L295 147.562L293.672 151.716H289.375L292.851 154.284L291.524 158.438L295 155.87L298.476 158.438L297.149 154.284L300.625 151.716Z" fill="#0082CA"/>
<path class="stars" d="M110.625 394.716H106.328L105 390.562L103.672 394.716H99.375L102.851 397.284L101.524 401.438L105 398.87L108.476 401.438L107.149 397.284L110.625 394.716Z" fill="#0082CA"/>
<path class="stars" d="M147.625 412.716H143.328L142 408.562L140.672 412.716H136.375L139.851 415.284L138.524 419.438L142 416.87L145.476 419.438L144.149 415.284L147.625 412.716Z" fill="#0082CA"/>
<path class="stars" d="M377.625 281.716H373.328L372 277.562L370.672 281.716H366.375L369.851 284.284L368.524 288.438L372 285.87L375.476 288.438L374.149 284.284L377.625 281.716Z" fill="#0082CA"/>
<path class="stars" d="M412.625 260.716H408.328L407 256.562L405.672 260.716H401.375L404.851 263.284L403.524 267.438L407 264.87L410.476 267.438L409.149 263.284L412.625 260.716Z" fill="#0082CA"/>
<path class="stars" d="M441.625 315.716H437.328L436 311.562L434.672 315.716H430.375L433.851 318.284L432.524 322.438L436 319.87L439.476 322.438L438.149 318.284L441.625 315.716Z" fill="#0082CA"/>
<path class="stars" d="M243.625 314.716H239.328L238 310.562L236.672 314.716H232.375L235.851 317.284L234.524 321.438L238 318.87L241.476 321.438L240.149 317.284L243.625 314.716Z" fill="#0082CA"/>
<path class="stars" d="M187.625 259.716H183.328L182 255.562L180.672 259.716H176.375L179.851 262.284L178.524 266.438L182 263.87L185.476 266.438L184.149 262.284L187.625 259.716Z" fill="#0082CA"/>
<path class="stars" d="M217.625 292.716H213.328L212 288.562L210.672 292.716H206.375L209.851 295.284L208.524 299.438L212 296.87L215.476 299.438L214.149 295.284L217.625 292.716Z" fill="#0082CA"/>
<path class="stars" d="M243.625 354.716H239.328L238 350.562L236.672 354.716H232.375L235.851 357.284L234.524 361.438L238 358.87L241.476 361.438L240.149 357.284L243.625 354.716Z" fill="#0082CA"/>
<path class="stars" d="M418.625 354.716H414.328L413 350.562L411.672 354.716H407.375L410.851 357.284L409.524 361.438L413 358.87L416.476 361.438L415.149 357.284L418.625 354.716Z" fill="#0082CA"/>
<path class="stars" d="M453.625 411.716H449.328L448 407.562L446.672 411.716H442.375L445.851 414.284L444.524 418.438L448 415.87L451.476 418.438L450.149 414.284L453.625 411.716Z" fill="#0082CA"/>
<path class="stars" d="M430.625 469.716H426.328L425 465.562L423.672 469.716H419.375L422.851 472.284L421.524 476.438L425 473.87L428.476 476.438L427.149 472.284L430.625 469.716Z" fill="#0082CA"/>
<path class="stars" d="M514.625 463.716H510.328L509 459.562L507.672 463.716H503.375L506.851 466.284L505.524 470.438L509 467.87L512.476 470.438L511.149 466.284L514.625 463.716Z" fill="#0082CA"/>
<path class="stars" d="M508.625 509.716H504.328L503 505.562L501.672 509.716H497.375L500.851 512.284L499.524 516.438L503 513.87L506.476 516.438L505.149 512.284L508.625 509.716Z" fill="#0082CA"/>
<path class="stars" d="M496.625 480.716H492.328L491 476.562L489.672 480.716H485.375L488.851 483.284L487.524 487.438L491 484.87L494.476 487.438L493.149 483.284L496.625 480.716Z" fill="#0082CA"/>
<path class="stars" d="M441.625 493.716H437.328L436 489.562L434.672 493.716H430.375L433.851 496.284L432.524 500.438L436 497.87L439.476 500.438L438.149 496.284L441.625 493.716Z" fill="#0082CA"/>
<path class="stars" d="M450.625 525.716H446.328L445 521.562L443.672 525.716H439.375L442.851 528.284L441.524 532.438L445 529.87L448.476 532.438L447.149 528.284L450.625 525.716Z" fill="#0082CA"/>
<path class="stars" d="M514.625 537.716H510.328L509 533.562L507.672 537.716H503.375L506.851 540.284L505.524 544.438L509 541.87L512.476 544.438L511.149 540.284L514.625 537.716Z" fill="#0082CA"/>
<path class="stars" d="M433.625 543.716H429.328L428 539.562L426.672 543.716H422.375L425.851 546.284L424.524 550.438L428 547.87L431.476 550.438L430.149 546.284L433.625 543.716Z" fill="#0082CA"/>
<path class="stars" d="M486.625 388.716H482.328L481 384.562L479.672 388.716H475.375L478.851 391.284L477.524 395.438L481 392.87L484.476 395.438L483.149 391.284L486.625 388.716Z" fill="#0082CA"/>
<path class="stars" d="M300.625 566.716H296.328L295 562.562L293.672 566.716H289.375L292.851 569.284L291.524 573.438L295 570.87L298.476 573.438L297.149 569.284L300.625 566.716Z" fill="#03E2B3"/>
<path class="stars" d="M27.625 293.716H23.3279L22 289.562L20.6721 293.716H16.375L19.8514 296.284L18.5236 300.438L22 297.87L25.4764 300.438L24.1486 296.284L27.625 293.716Z" fill="#03E2B3"/>
<path class="stars" d="M98.625 108.716H94.3279L93 104.562L91.6721 108.716H87.375L90.8514 111.284L89.5236 115.438L93 112.87L96.4764 115.438L95.1486 111.284L98.625 108.716Z" fill="#03E2B3"/>
<path class="stars" d="M171.625 27.7164H167.328L166 23.5625L164.672 27.7164H160.375L163.851 30.2838L162.524 34.4375L166 31.8704L169.476 34.4375L168.149 30.284L171.625 27.7164Z" fill="#03E2B3"/>
<path class="stars" d="M171.625 560.716H167.328L166 556.562L164.672 560.716H160.375L163.851 563.284L162.524 567.438L166 564.87L169.476 567.438L168.149 563.284L171.625 560.716Z" fill="#03E2B3"/>
<path class="stars" d="M424.625 560.716H420.328L419 556.562L417.672 560.716H413.375L416.851 563.284L415.524 567.438L419 564.87L422.476 567.438L421.149 563.284L424.625 560.716Z" fill="#03E2B3"/>
<path class="stars" d="M412.625 542.716H408.328L407 538.562L405.672 542.716H401.375L404.851 545.284L403.524 549.438L407 546.87L410.476 549.438L409.149 545.284L412.625 542.716Z" fill="#03E2B3"/>
<path class="stars" d="M524.625 448.716H520.328L519 444.562L517.672 448.716H513.375L516.851 451.284L515.524 455.438L519 452.87L522.476 455.438L521.149 451.284L524.625 448.716Z" fill="#03E2B3"/>
<path class="stars" d="M533.625 474.716H529.328L528 470.562L526.672 474.716H522.375L525.851 477.284L524.524 481.438L528 478.87L531.476 481.438L530.149 477.284L533.625 474.716Z" fill="#03E2B3"/>
<path class="stars" d="M429.625 27.7164H425.328L424 23.5625L422.672 27.7164H418.375L421.851 30.2838L420.524 34.4375L424 31.8704L427.476 34.4375L426.149 30.284L429.625 27.7164Z" fill="#03E2B3"/>
<path class="stars" d="M27.625 180.716H23.3279L22 176.562L20.6721 180.716H16.375L19.8514 183.284L18.5236 187.438L22 184.87L25.4764 187.438L24.1486 183.284L27.625 180.716Z" fill="#03E2B3"/>
<path class="stars" d="M27.625 406.716H23.3279L22 402.562L20.6721 406.716H16.375L19.8514 409.284L18.5236 413.438L22 410.87L25.4764 413.438L24.1486 409.284L27.625 406.716Z" fill="#03E2B3"/>
<path class="stars" d="M98.625 479.716H94.3279L93 475.562L91.6721 479.716H87.375L90.8514 482.284L89.5236 486.438L93 483.87L96.4764 486.438L95.1486 482.284L98.625 479.716Z" fill="#03E2B3"/>
<path class="stars" d="M506.375 107.861H499.213L497 100.938L494.787 107.861H487.625L493.419 112.14L491.206 119.062L497 114.784L502.794 119.062L500.581 112.14L506.375 107.861Z" fill="#03E2B3"/>
</g>
<defs>
<clipPath id="clip0_10_321">
<rect width="590" height="591" fill="white"/>
</clipPath>
</defs>
</svg>
