<svg width="1440" height="612" viewBox="0 0 1440 612" fill="none" xmlns="http://www.w3.org/2000/svg">
<path d="M1774.3 394.569C1729.26 393.858 1688.96 416.346 1645.52 421.986C1598.11 428.392 1549.89 425.029 1503.82 412.105C1471.68 402.839 1440.64 387.366 1408.26 379.593C1393.44 376.039 1364.92 381.157 1352.48 376.584C1341.59 372.556 1333.51 357.248 1321.4 350.305C1293.7 334.5 1259.33 330.282 1230.43 345.329C1200.49 360.836 1168.41 371.801 1135.24 377.864C1080.41 387.934 1029.03 384.759 982.449 355.518C938.14 327.723 896.794 282.676 851.868 252.938C810.783 225.711 764.696 202.157 713.654 199.763C666.381 197.56 624.04 202.512 585.136 225.971C543.956 250.829 507.873 241.445 463.825 226.09C425.585 212.749 368.544 176.991 333.149 214.573C304.842 244.62 273.145 261.705 231.207 261.042C173.171 260.117 129.976 202.939 92.9211 165.593C38.0383 110.263 -29.5279 9.67279 -114.116 1" stroke="#65BDEA" stroke-width="0.5" stroke-miterlimit="10"/>
<path d="M-116.89 9.34082C-33.3924 17.7767 33.6286 114.244 88.9382 168.105C95.2206 174.242 101.527 180.569 107.738 186.825C139.838 219.123 176.253 261.421 225.398 263.909C267.74 266.041 300.456 249.099 329.142 219.194C335.921 211.83 344.537 206.4 354.106 203.46C375.443 197.488 399.15 203.602 419.491 211.019C432.388 215.758 446.447 221.161 460.292 225.853C467.073 228.222 473.426 230.379 479.021 232.606C502.539 241.919 529.067 252.061 554.695 243.459C564.466 240.087 573.858 235.703 582.717 230.379C602.175 218.851 623.477 210.762 645.685 206.469C668.14 202.485 691.046 201.687 713.725 204.1C744.231 206.903 774.067 214.709 802.035 227.203C820.005 235.49 837.476 244.818 854.358 255.141C872.812 266.434 890.461 278.991 907.178 292.723C924.413 306.609 941.269 321.514 958.742 335.092C968.391 342.627 978.182 349.736 988.115 356.229C992.335 359.009 996.571 361.568 1000.82 363.906C1021.07 374.953 1043.46 381.523 1066.47 383.171C1084.84 384.528 1103.29 384.235 1121.61 382.295C1128.72 381.584 1135.84 380.66 1143.09 379.593C1156.73 377.624 1170.25 374.846 1183.56 371.276C1203.07 365.796 1221.92 358.191 1239.77 348.599C1247.42 344.538 1255.62 341.609 1264.12 339.902C1287.21 335.424 1311.32 340.779 1331.83 351.987C1343.94 358.622 1351.81 373.314 1362.65 377.318C1374.93 381.797 1402.71 376.963 1417.17 380.494C1448.87 388.148 1479.31 403.266 1510.72 412.27C1527.31 417.201 1544.31 420.651 1561.5 422.578C1590.78 425.533 1620.28 425.429 1649.53 422.27C1691.52 417.791 1731.96 395.28 1776.06 395.849" stroke="#65BDEA" stroke-width="0.5" stroke-miterlimit="10"/>
<path d="M-119.64 17.7058C-37.067 26.3312 29.3613 117.775 84.9553 170.759C91.2378 176.754 97.4967 182.939 103.708 189.053C136.353 221.279 171.464 260.141 219.59 266.918C262.548 272.89 296.189 253.956 325.159 224.005C332.126 216.591 340.767 210.952 350.36 207.559C370.393 200.664 391.777 204.384 415.319 211.28C428.761 215.237 442.748 220.758 456.76 225.758C463.611 228.128 470.036 230.616 475.726 233.009C499.22 242.914 525.511 254.217 551.732 246.848C561.721 243.897 571.325 239.777 580.347 234.573C600.399 223.387 622.027 215.295 644.499 210.569C667.344 206.195 690.73 205.396 713.82 208.199C744.674 211.435 774.906 219.063 803.6 230.853C821.844 238.589 839.637 247.347 856.894 257.084C875.807 267.739 893.919 279.753 911.09 293.031C928.918 306.633 946.058 321.87 963.886 335.4C973.796 342.936 983.729 350.092 993.805 356.727C998.104 359.554 1002.4 362.169 1006.7 364.57C1027.27 375.766 1050.1 382.181 1073.49 383.337C1092.09 384.549 1110.75 384.493 1129.34 383.172C1136.45 382.65 1143.57 381.939 1150.99 381.086C1164.74 379.557 1178.39 377.183 1191.86 373.977C1211.83 368.968 1231.07 361.435 1249.13 351.561C1256.84 347.437 1265.07 344.376 1273.6 342.462C1296.83 337.438 1321.37 342.462 1342.35 353.409C1354.37 359.712 1362.12 373.978 1372.7 377.793C1384.81 382.153 1411.89 377.65 1426.16 381.11C1457.17 388.645 1486.94 403.384 1517.69 412.199C1533.96 417.023 1550.62 420.424 1567.48 422.365C1596.15 425.315 1625.05 425.315 1653.73 422.365C1694.93 418.147 1734.76 396.489 1777.95 396.939" stroke="#65BDEA" stroke-width="0.5" stroke-miterlimit="10"/>
<path d="M-122.367 26.0942C-40.9789 34.4116 25.3546 121.566 80.9961 173.366C87.2548 179.195 93.4899 185.214 99.6538 191.233C131.872 222.749 166.438 263.814 213.805 269.88C256.479 275.354 291.613 259.075 321.176 228.744C328.298 221.229 336.992 215.379 346.638 211.612C366.576 203.981 387.605 205.711 411.17 211.493C425.456 215.429 439.506 220.176 453.251 225.711C460.15 228.27 466.622 230.9 472.335 233.459C495.806 243.98 521.955 256.445 548.673 250.284C558.85 247.795 568.666 244.012 577.881 239.028C598.542 228.211 620.509 220.095 643.242 214.882C666.426 209.751 690.353 208.9 713.843 212.37C744.963 216.44 775.545 223.893 805.046 234.597C823.59 241.772 841.722 249.968 859.36 259.146C878.728 269.134 897.298 280.598 914.906 293.434C933.303 306.728 950.752 322.296 968.936 335.803C979.083 343.362 989.206 350.566 999.447 357.272C1003.76 360.115 1008.11 362.777 1012.49 365.257C1033.36 376.609 1056.63 382.877 1080.38 383.551C1099.14 384.357 1117.3 385.067 1136.97 384.072C1144.12 383.725 1151.4 383.243 1158.81 382.627C1172.67 381.555 1186.46 379.616 1200.08 376.821C1220.48 372.239 1240.12 364.771 1258.4 354.641C1266.16 350.453 1274.41 347.268 1282.96 345.163C1306.39 339.571 1331.33 344.239 1352.71 354.997C1364.57 360.968 1372.25 374.712 1382.65 378.432C1394.51 382.674 1420.97 378.432 1434.95 381.892C1465.3 389.309 1494.41 403.645 1524.47 412.294C1540.36 417.012 1556.62 420.357 1573.07 422.294C1601.14 425.2 1629.42 425.264 1657.5 422.484C1697.96 418.526 1737.15 397.745 1779.47 398.053" stroke="#65BDEA" stroke-width="0.5" stroke-miterlimit="10"/>
<path d="M-125.117 34.5063C-44.8432 42.5393 21.3007 125.357 77.0133 175.972C83.2483 181.659 89.4833 187.512 95.5998 193.413C127.676 224.384 161.649 265.212 207.997 272.866C251.002 279.975 287.18 264.098 317.17 233.507C324.471 225.897 333.226 219.829 342.916 215.663C362.783 207.299 383.432 207.038 406.927 211.682C420.748 214.407 435.376 219.834 449.6 225.426C456.546 228.128 463.09 230.947 468.85 233.673C492.392 244.833 518.281 258.435 545.544 253.506C555.912 251.497 565.944 248.034 575.344 243.222C596.592 232.778 618.903 224.651 641.891 218.981C665.44 213.28 689.901 212.409 713.796 216.422C744.924 221.587 776.384 227.914 806.421 238.198C825.255 244.815 843.718 252.44 861.731 261.042C881.545 270.378 900.573 281.297 918.629 293.695C937.595 306.68 955.304 322.557 973.891 336.064C984.322 343.67 994.587 350.874 1004.95 357.698C1009.31 360.589 1013.7 363.29 1018.15 365.826C1039.16 377.792 1063.36 382.982 1087.19 383.645C1106.34 384.167 1124.58 385.352 1144.49 384.854C1151.6 384.664 1159.02 384.427 1166.49 384.025C1180.48 383.398 1194.41 381.862 1208.19 379.428C1229.03 375.323 1249.07 367.924 1267.58 357.509C1275.37 353.229 1283.65 349.903 1292.23 347.604C1315.94 341.49 1341.19 345.803 1363 356.324C1374.86 361.987 1382.35 375.281 1392.59 378.835C1404.44 382.982 1430 379.048 1443.7 382.437C1473.36 389.759 1501.86 403.763 1531.23 412.176C1546.76 416.662 1562.61 419.95 1578.64 422.01C1606.08 425.178 1633.78 425.329 1661.24 422.46C1700.9 418.739 1739.48 398.764 1780.96 399" stroke="#65BDEA" stroke-width="0.5" stroke-miterlimit="10"/>
<path d="M-127.843 42.9185C-48.7077 50.7145 17.365 129.291 73.0538 178.603C79.2415 184.1 85.5004 189.811 91.5458 195.593C123.503 226.019 156.86 266.681 202.212 275.875C245.431 284.643 282.818 269.146 313.163 238.27C320.657 230.56 329.494 224.28 339.241 219.739C359.037 210.64 379.307 208.365 402.92 211.872C416.954 213.981 431.677 219.36 446.233 225.26C453.346 228.104 459.865 231.113 465.673 234.028C489.239 245.876 514.937 260.544 542.699 256.847C553.245 255.321 563.495 252.188 573.092 247.558C594.91 237.524 617.556 229.398 640.777 223.27C664.676 216.987 689.675 216.097 713.962 220.663C745.398 226.611 777.308 232.511 808.057 241.99C827.174 248.047 845.961 255.102 864.338 263.127C884.615 271.796 904.117 282.173 922.635 294.145C942.17 306.822 960.188 323.031 979.154 336.514C989.846 344.12 1000.25 351.371 1010.76 358.314C1015.17 361.229 1019.6 363.978 1024.13 366.584C1045.46 378.811 1070.14 383.622 1094.28 383.906C1113.86 384.167 1132.21 385.849 1152.31 385.825C1159.57 385.825 1166.96 385.825 1174.5 385.589C1188.6 385.414 1202.66 384.29 1216.61 382.224C1238.73 378.717 1257.93 370.873 1277.04 360.518C1284.88 356.172 1293.19 352.723 1301.81 350.234C1325.52 343.599 1351.31 347.556 1373.57 357.84C1385.24 363.219 1392.71 375.968 1402.81 379.475C1414.38 383.503 1439.32 379.854 1452.76 383.195C1481.73 390.304 1509.66 403.953 1538.25 412.27C1553.46 416.661 1568.99 419.892 1584.69 421.938C1611.51 425.149 1638.61 425.38 1665.48 422.626C1704.2 419.048 1742.37 400.351 1782.91 400.162" stroke="#65BDEA" stroke-width="0.5" stroke-miterlimit="10"/>
<path d="M-130.593 51.3542C-52.4771 59.2688 13.1925 133.011 69.071 181.233C75.2587 186.565 81.4938 192.133 87.4918 197.82C119.355 227.725 152.071 268.198 196.404 278.932C239.812 289.429 278.242 274.193 309.18 243.127C316.835 235.316 325.716 228.809 335.472 223.862C355.197 214.052 375.158 211.588 398.723 212.014C412.948 212.346 427.931 218.839 442.677 225.023C449.789 228.009 456.428 231.208 462.283 234.289C485.991 246.705 511.405 262.724 539.641 260.141C550.35 259.068 560.814 256.268 570.626 251.847C593.038 242.161 616.069 233.976 639.568 227.345C663.821 220.482 689.373 219.564 714.057 224.668C745.754 231.374 778.233 236.848 809.55 245.544C828.963 251.047 848.08 257.54 866.828 264.999C887.55 273.006 907.519 282.84 926.499 294.382C946.603 306.751 964.905 323.291 984.251 336.751C995.203 344.381 1005.75 351.656 1016.42 358.717C1020.88 361.655 1025.38 364.475 1029.96 367.129C1051.51 379.641 1076.78 384.025 1101.22 384.001C1121.21 384.001 1139.56 386.11 1159.99 386.56C1167.32 386.702 1174.76 386.868 1182.35 386.939C1196.55 387.193 1210.76 386.465 1224.86 384.759C1247.55 381.726 1267.1 373.788 1286.36 363.267C1294.26 358.865 1302.61 355.292 1311.25 352.603C1335.15 345.495 1361.32 349.096 1384.03 359.144C1395.55 364.238 1403 376.466 1412.86 379.878C1424.26 383.788 1448.42 380.446 1461.67 383.74C1489.91 390.849 1517.12 404 1545.15 412.176C1560 416.488 1575.16 419.657 1590.5 421.654C1616.71 424.82 1643.19 425.138 1669.47 422.602C1707.4 419.261 1744.95 401.417 1784.64 401.109" stroke="#65BDEA" stroke-width="0.5" stroke-miterlimit="10"/>
<path d="M-133.343 59.7664C-56.3888 67.3728 9.18612 136.897 65.112 183.839C71.276 189.005 77.4873 194.432 83.4379 199.929C115.206 229.336 147.282 269.643 190.619 281.87C233.957 294.098 273.785 279.264 305.198 247.843C313.013 239.92 321.952 233.19 331.726 227.867C351.38 217.346 371.081 213.009 394.575 212.251C408.965 211.801 424.233 218.388 439.145 224.881C446.257 228.009 453.014 231.398 458.941 234.668C482.648 247.724 507.968 264.785 536.63 263.53C547.497 262.926 558.179 260.457 568.208 256.231C591.157 246.966 614.699 238.649 638.335 231.587C662.958 224.115 689.103 223.176 714.199 228.862C746.18 236.326 779.205 241.374 811.139 249.264C830.105 254.004 849.284 259.904 869.412 267.037C890.58 274.358 911.018 283.64 930.459 294.761C951.084 306.822 969.742 323.718 989.443 337.154C1000.66 344.807 1011.37 352.106 1022.18 359.262C1026.69 362.248 1031.22 365.115 1035.89 367.84C1057.72 380.589 1083.51 384.569 1108.26 384.214C1128.68 383.93 1147.07 386.584 1167.79 387.437C1175.14 387.769 1182.66 388.148 1190.29 388.408C1204.6 389.14 1218.94 388.808 1233.2 387.413C1255.27 384.527 1276.54 377.277 1295.77 366.087C1303.71 361.592 1312.08 357.893 1320.75 355.044C1344.84 347.367 1371.42 350.708 1394.56 360.518C1405.94 365.257 1413.24 377.105 1423.01 380.375C1434.24 384.19 1458.12 380.897 1470.63 384.356C1497.42 391.749 1525.3 403.858 1552.09 412.104C1566.57 416.479 1581.38 419.65 1596.38 421.583C1621.98 424.732 1647.85 425.129 1673.55 422.768C1710.77 419.687 1747.61 402.697 1786.44 402.271" stroke="#65BDEA" stroke-width="0.5" stroke-miterlimit="10"/>
<path d="M-136.093 68.2969C-60.2293 75.6664 5.15585 140.855 61.1055 186.541C67.2457 191.541 73.4808 196.801 79.3603 202.18C111.081 231.089 142.469 271.302 184.787 284.975C228.433 299.192 269.281 284.477 301.167 252.724C309.171 244.696 318.184 237.743 327.981 232.037C347.563 220.782 366.813 212.251 390.378 212.512C405.077 212.678 420.511 217.962 435.613 224.786C442.725 228.033 449.6 231.634 455.574 235.07C479.424 248.79 504.53 267.013 533.595 266.965C544.612 266.829 555.513 264.693 565.767 260.662C589.284 251.824 613.181 243.388 637.102 235.852C663.75 227.464 688.358 227.891 714.152 233.08C745.517 239.383 779.964 245.923 812.514 253.008C831.883 257.226 851.347 262.487 871.783 269.074C893.384 275.724 914.29 284.454 934.204 295.14C955.375 306.846 974.365 324.097 994.421 337.533C1005.9 345.21 1016.78 352.532 1027.73 359.807C1032.28 362.816 1036.86 365.731 1041.58 368.503C1063.74 381.536 1090.03 385.091 1115.07 384.427C1135.91 383.859 1154.35 386.915 1175.31 388.29C1182.73 388.787 1190.32 389.38 1198.02 389.877C1212.43 391.032 1226.91 391.088 1241.33 390.043C1263.79 388.005 1285.45 379.949 1304.94 368.977C1312.94 364.416 1321.33 360.593 1330.02 357.556C1356.34 348.693 1380.62 353.67 1404.87 361.987C1415.85 365.731 1423.34 377.745 1432.94 380.944C1444.01 384.664 1467.15 381.655 1479.41 385.067C1505.48 392.318 1532.72 404.024 1558.85 412.152C1572.97 416.394 1587.42 419.476 1602.04 421.37C1627.05 424.497 1652.31 424.982 1677.41 422.815C1713.9 419.995 1750.07 403.858 1788.03 403.266" stroke="#65BDEA" stroke-width="0.5" stroke-miterlimit="10"/>
<path d="M-138.82 76.7803C-64.1887 83.8891 1.19662 144.836 57.17 189.195C63.2628 193.934 69.4978 199.147 75.3298 204.408C107.003 232.843 137.704 272.984 179.026 288.032C222.719 303.979 264.8 289.666 297.208 257.582C305.457 249.541 314.532 242.393 324.282 236.255C342.75 224.407 363.873 213.791 386.253 212.796C400.999 212.109 416.812 217.535 432.104 224.644C438.999 227.905 445.724 231.511 452.255 235.45C476.46 249.904 501.495 267.203 530.632 270.378C540.826 271.492 551.566 269.193 563.372 265.07C587.435 256.658 611.806 248.103 635.893 240.118C663.086 231.113 688.049 231.563 714.128 237.274C745.73 244.146 780.769 250.449 813.912 256.729C833.613 260.449 853.433 265.212 874.177 271.089C896.217 277.078 917.592 285.287 937.974 295.591C959.666 306.941 978.988 324.547 999.423 337.959C1011.28 345.661 1022.21 353.03 1033.3 360.4C1037.8 363.605 1042.48 366.556 1047.31 369.238C1070.38 381.086 1094.32 385.826 1121.94 384.712C1143.28 383.859 1161.7 387.366 1182.92 389.214C1190.39 389.878 1198.02 390.683 1205.8 391.37C1220.31 392.965 1234.93 393.401 1249.51 392.674C1272.37 391.086 1294.56 383.029 1314.19 371.821C1322.23 367.161 1330.67 363.197 1339.39 359.973C1365.85 350.495 1390.53 355.234 1415.25 363.338C1426.06 366.869 1433.51 378.361 1442.97 381.489C1453.85 385.091 1476.28 382.366 1488.27 385.731C1513.76 392.84 1540.21 404.285 1565.7 412.176C1579.47 416.333 1593.55 419.36 1607.8 421.228C1632.16 424.516 1656.81 425.08 1681.3 422.91C1717.59 419.687 1752.42 404.972 1789.64 404.332" stroke="#65BDEA" stroke-width="0.5" stroke-miterlimit="10"/>
<path d="M-141.546 85.2871C-67.6971 92.5144 -3.26016 148.722 53.1873 191.92C59.2802 196.659 65.5151 201.564 71.2997 206.682C102.926 234.668 132.939 274.714 173.242 291.183C216.982 309.026 260.296 294.903 293.226 262.511C301.666 254.342 310.813 246.935 320.56 240.378C338.839 227.867 359.512 215.142 382.2 212.986C397.064 211.564 413.209 217.061 428.666 224.502C435.648 227.904 442.439 231.685 449.007 235.829C473.379 250.994 498.295 269.382 527.716 273.743C538.124 275.307 549.053 273.292 561.049 269.43C585.681 261.444 610.835 251.35 634.755 244.312C662.991 235.995 685.418 235.094 714.389 241.374C747.01 248.483 781.742 254.88 815.643 260.331C835.652 263.553 855.828 267.747 876.88 273.008C899.352 278.314 921.198 285.987 942.052 295.899C964.266 306.894 983.943 324.879 1004.73 338.267C1016.73 345.992 1027.92 353.385 1039.18 360.85C1043.76 364.101 1048.5 367.099 1053.41 369.83C1076.8 381.868 1101.08 386.276 1129.27 384.83C1150.94 383.74 1169.57 387.674 1190.91 389.996C1198.45 390.802 1206.13 391.797 1213.95 392.721C1228.57 394.721 1243.33 395.514 1258.07 395.091C1281.33 393.953 1303.83 385.873 1323.84 374.451C1331.93 369.743 1340.38 365.686 1349.11 362.319C1375.76 352.343 1400.84 356.892 1425.97 364.688C1436.64 368.006 1444.01 378.906 1453.33 382.01C1464.04 385.517 1485.52 383.171 1497.45 386.37C1522.67 393.124 1548.09 404.474 1572.86 412.175C1586.28 416.251 1600 419.23 1613.9 421.085C1637.67 424.351 1661.73 424.994 1685.64 423.005C1721.2 420.066 1755.48 406.133 1791.7 405.422" stroke="#65BDEA" stroke-width="0.5" stroke-miterlimit="10"/>
<path d="M-144.296 93.8416C-71.5139 100.95 -7.26668 152.821 49.2282 194.55C55.2974 199.029 61.5088 203.886 67.2223 208.768C98.8718 236.327 128.103 276.326 167.434 294.074C211.127 313.884 255.768 299.927 289.219 267.179C297.858 258.904 307.089 251.269 316.838 244.336C334.974 231.09 355.173 216.303 377.956 212.986C392.915 210.806 409.416 216.374 425.039 224.123C432.106 227.672 438.961 231.628 445.57 235.971C469.87 251.8 494.478 273.482 524.61 277.013C536.027 278.259 547.578 277.129 558.536 273.695C583.713 266.16 609.246 255.828 633.452 248.411C662.375 239.549 684.612 238.601 714.365 245.402C747.556 252.938 782.453 259.217 817.042 263.885C837.383 266.61 857.938 270.236 879.275 274.88C902.034 279.833 925.267 286.491 945.821 296.207C968.557 306.87 988.495 325.211 1009.83 338.599C1022.09 346.324 1033.54 353.741 1044.82 361.324C1049.43 364.633 1054.22 367.686 1059.17 370.47C1082.87 382.674 1107.51 386.773 1136.03 384.996C1158.1 383.622 1176.73 388.006 1198.47 390.778C1206.06 391.75 1213.81 392.934 1221.68 394.072C1236.4 396.51 1251.31 397.691 1266.23 397.603C1289.94 396.915 1312.77 388.811 1333.04 377.153C1341.18 372.375 1349.67 368.201 1358.43 364.665C1385.24 354.167 1410.72 358.504 1436.31 366.016C1446.81 369.096 1454.11 379.546 1463.26 382.603C1473.81 385.991 1494.58 383.93 1506.24 387.081C1530.85 393.74 1555.2 404.877 1579.74 412.27C1592.8 416.185 1606.15 419.108 1619.66 421.014C1642.83 424.251 1666.27 424.974 1689.6 423.171C1724.37 420.54 1758.02 407.365 1793.41 406.583" stroke="#65BDEA" stroke-width="0.5" stroke-miterlimit="10"/>
<path d="M-147.022 102.419C-75.3311 109.173 -11.2498 156.921 45.2688 197.204C51.2905 201.493 57.5256 206.209 63.1917 211.066C94.8649 238.198 123.29 278.174 161.649 297.297C205.318 319.097 251.239 305.33 285.236 272.202C294.082 263.83 303.39 255.959 313.116 248.625C331.181 234.62 350.858 217.82 373.807 213.317C388.861 210.355 405.717 216.043 421.53 224.076C428.672 227.778 435.583 231.909 442.227 236.445C466.716 253.032 491.112 275.852 521.6 280.567C533.143 282.246 544.912 281.438 556.117 278.197C581.84 271.089 607.657 260.496 632.218 252.748C661.9 243.269 683.925 242.322 714.436 249.62C748.722 257.806 783.491 263.821 818.536 267.629C839.209 269.999 860.118 272.89 881.763 276.918C904.926 281.254 928.704 287.273 949.685 296.586C972.919 306.894 993.307 325.59 1014.86 338.954C1027.37 346.727 1038.87 354.167 1050.42 361.869C1055.08 365.196 1059.92 368.281 1064.9 371.11C1090.25 384.167 1112.86 386.205 1142.9 385.328C1165.57 384.57 1184.08 388.503 1206.08 391.726C1213.72 392.84 1221.52 394.238 1229.48 395.565C1244.37 398.202 1259.42 399.785 1274.53 400.304C1298.59 400.92 1321.94 391.963 1342.4 380.02C1350.58 375.156 1359.1 370.873 1367.89 367.2C1394.86 356.182 1420.78 360.328 1446.78 367.556C1457.12 370.423 1464.4 380.375 1473.38 383.243C1483.74 386.513 1503.8 384.712 1515.18 387.816C1539.1 394.356 1562.81 405.162 1586.56 412.389C1599.28 416.238 1612.27 419.114 1625.42 420.991C1647.98 424.236 1670.82 425.031 1693.55 423.36C1727.34 420.777 1760.55 408.929 1795.09 407.673" stroke="#65BDEA" stroke-width="0.5" stroke-miterlimit="10"/>
<path d="M-149.772 110.95C-79.6695 117.419 -14.9243 160.854 41.2861 199.953C47.2841 204.123 53.5191 208.626 59.1378 213.365C90.8584 240.094 118.407 280.093 155.841 300.496C199.439 324.192 246.64 310.709 281.253 277.179C290.736 267.937 300.954 259.809 309.394 252.89C327.412 238.056 346.52 219.289 369.635 213.578C384.784 209.858 402.019 215.616 417.998 223.981C425.23 227.816 432.206 232.114 438.884 236.848C463.398 254.146 487.864 278.198 518.589 284.051C530.243 286.258 542.245 285.805 553.699 282.724C579.612 275.828 605.998 265.236 630.986 257.108C661.426 247.179 683.142 246.042 714.507 253.885C749.159 262.554 784.456 268.403 820.053 271.373C841.034 273.127 862.323 275.544 884.253 279.003C907.842 282.676 932.189 288.079 953.574 297.06C977.281 307.012 998.049 326.064 1019.95 339.429C1032.73 347.225 1044.4 354.689 1056.08 362.485C1060.83 365.636 1065.69 368.764 1070.74 371.963C1094.66 386.608 1122.89 387.532 1149.85 385.589C1173.01 383.906 1191.5 388.93 1213.86 392.697C1221.54 393.977 1229.41 395.565 1237.42 397.105C1252.37 400.115 1267.52 402.016 1282.75 402.792C1307.17 403.835 1331 394.878 1351.69 382.698C1359.94 377.771 1368.49 373.378 1377.3 369.546C1404.44 358.006 1430.73 361.964 1457.19 368.93C1467.36 371.608 1474.59 381.039 1483.44 383.811C1493.61 387.01 1512.95 385.446 1524.07 388.551C1547.3 394.996 1570.32 405.446 1593.44 412.507C1605.79 416.277 1618.42 419.105 1631.2 420.967C1653.17 424.21 1675.43 425.092 1697.59 423.597C1730.63 421.228 1763.16 410.209 1796.85 408.882" stroke="#65BDEA" stroke-width="0.5" stroke-miterlimit="10"/>
<path d="M-152.522 119.552C-83.5574 125.808 -18.9071 164.954 37.3033 202.654C43.3013 206.683 49.5364 211.019 55.0839 215.616C86.8756 241.966 113.618 281.965 150.032 303.647C193.512 329.523 242.088 316.04 277.247 282.131C286.943 272.653 297.256 264.406 305.696 257.084C323.737 241.421 342.229 220.734 365.533 213.815C380.753 209.313 398.368 215.118 414.513 223.815C421.834 227.795 428.876 232.268 435.589 237.203C460.221 255.26 484.616 280.52 515.625 287.51C527.391 290.17 539.614 290.056 551.329 287.178C577.739 280.662 604.41 269.88 629.824 261.373C660.999 250.9 682.573 249.667 714.602 258.032C749.62 267.201 785.457 272.892 821.594 275.022C842.931 276.278 864.552 278.127 886.813 280.946C910.781 284.027 935.674 288.79 957.485 297.415C981.548 306.894 1003.22 326.443 1025.1 339.784C1037.97 347.651 1049.97 355.092 1061.8 362.982C1066.54 366.181 1071.47 369.357 1076.62 372.461C1100.87 387.413 1129.67 387.863 1156.84 385.66C1180.55 383.74 1198.97 389.143 1221.49 393.266C1229.24 394.688 1237.16 396.465 1245.2 398.219C1261.04 401.631 1276.33 404.664 1290.95 404.972C1315.71 405.517 1339.86 397.389 1360.94 385.044C1369.25 380.078 1377.83 375.577 1386.64 371.56C1413.95 359.499 1440.67 363.29 1467.58 369.973C1477.56 372.461 1484.74 381.394 1493.42 384.19C1503.44 387.295 1522.06 385.968 1532.89 388.93C1555.46 395.256 1577.93 405.375 1600.24 412.294C1612.25 415.965 1624.52 418.745 1636.94 420.611C1658.29 423.814 1679.91 424.767 1701.45 423.455C1733.67 421.559 1765.6 411.086 1798.44 409.687" stroke="#65BDEA" stroke-width="0.5" stroke-miterlimit="10"/>
<path d="M-155.249 128.154C-87.4219 134.22 -22.8665 169.101 33.3439 205.379C39.4594 209.23 45.3632 213.406 51.0297 217.891C82.94 243.957 108.781 283.908 144.248 306.823C190.43 336.656 236.446 319.31 273.264 287.107C283.316 278.316 293.557 268.98 301.926 261.326C319.991 244.739 337.843 222.18 361.337 214.052C376.604 208.744 394.527 214.645 410.957 223.531C418.391 227.662 425.522 232.318 432.293 237.464C457.044 256.255 481.368 282.747 512.662 290.828C524.532 293.951 536.978 294.187 548.958 291.515C575.866 285.378 602.797 274.43 628.639 265.449C660.573 254.43 681.909 253.103 714.721 262.013C750.096 271.713 786.477 277.279 823.135 278.6C844.78 279.382 866.78 280.615 889.326 282.842C913.697 285.212 938.709 289.595 961.397 297.723C986.574 306.751 1007.22 326.917 1030.15 340.092C1043.71 347.864 1055.42 355.423 1067.39 363.433C1072.13 366.655 1077.16 369.878 1082.38 373.101C1106.96 388.314 1136.24 388.29 1163.72 385.826C1187.76 383.669 1206.39 389.475 1229.1 394.048C1236.9 395.612 1244.89 397.579 1253 399.522C1268.93 403.337 1284.36 406.773 1299.16 407.318C1324.29 408.242 1348.94 400.209 1370.28 387.555C1379 382.413 1387.8 377.603 1396.1 373.741C1421.56 361.892 1451.5 363.622 1478.03 371.229C1488.11 374.12 1494.98 381.939 1503.52 384.546C1513.35 387.532 1531.25 386.465 1541.83 389.451C1563.71 395.659 1585.38 405.47 1607.16 412.223C1618.8 415.811 1630.69 418.544 1642.73 420.398C1663.47 423.559 1684.48 424.591 1705.43 423.479C1736.89 421.844 1768.14 412.105 1800.26 410.659" stroke="#65BDEA" stroke-width="0.5" stroke-miterlimit="10"/>
<path d="M-157.999 136.779C-89.5318 146.258 -28.7221 172.987 29.2901 208.128C35.4093 211.754 41.2854 215.775 46.881 220.166C78.9098 245.781 103.779 285.875 138.368 310.022C184.337 342.154 231.823 324.595 269.186 292.084C279.357 283.221 289.503 273.601 298.109 265.568C316.625 248.293 332.77 223.317 357.093 214.266C372.883 208.413 390.829 214.266 407.329 223.483C414.789 227.768 421.921 232.6 428.666 237.938C453.559 257.535 477.764 285.33 509.272 294.43C521.245 298.004 533.915 298.574 546.161 296.088C573.59 290.354 600.688 280.733 627.027 269.904C654.599 258.506 686.722 256.137 714.412 266.373C748.907 279.098 785.89 281.397 824.249 282.321C846.582 282.842 869.08 283.648 891.46 284.88C916.445 285.979 941.167 290.451 964.953 298.174C990.676 306.894 1011.61 327.367 1035.06 340.519C1048.9 348.315 1060.75 355.921 1072.99 364.002C1077.87 367.272 1082.85 370.542 1088.11 373.812C1113.1 389.309 1142.95 388.598 1170.59 386.11C1192.52 384.119 1215.4 389.878 1236.71 394.901C1244.39 396.726 1252.6 398.764 1260.8 400.92C1276.8 405.091 1293.25 409.806 1307.36 409.735C1332.74 409.952 1357.69 403.162 1379.45 390.115C1388.25 384.901 1397.07 379.996 1405.37 375.897C1430.99 363.575 1461.39 365.115 1488.34 372.437C1498.23 375.139 1505.08 382.508 1513.45 385.02C1523.12 387.911 1540.31 387.082 1550.6 390.044C1571.94 396.133 1592.82 405.612 1613.92 412.199C1625.21 415.721 1636.75 418.406 1648.44 420.232C1668.58 423.364 1688.98 424.475 1709.34 423.55C1740.16 422.199 1770.6 413.171 1801.8 411.702" stroke="#65BDEA" stroke-width="0.5" stroke-miterlimit="10"/>
<path d="M-160.749 145.428C-93.3961 154.196 -32.3967 177.513 25.4021 210.853C31.4539 214.394 37.303 218.271 42.922 222.464C77.0607 247.724 98.8004 287.7 132.655 313.22C178.386 347.698 227.366 329.808 265.274 297.107C275.611 288.173 285.9 278.15 294.482 269.833C313.092 251.61 328.455 224.81 353.039 214.502C368.923 207.844 387.226 213.697 403.892 223.341C411.472 227.752 418.693 232.752 425.49 238.293C450.548 258.696 474.659 287.605 506.545 297.913C518.617 301.933 531.506 302.854 544.027 300.59C571.978 295.211 599.502 285.448 626.102 274.193C653.958 262.345 686.746 259.786 714.744 270.52C749.642 283.885 787.1 285.922 826.051 285.946C848.597 285.946 871.546 285.828 894.234 286.823C919.458 287.937 945.442 291.065 969.031 298.529C995.109 306.822 1016.45 327.746 1040.37 340.898C1054.59 348.694 1066.44 356.324 1078.73 364.594C1083.66 367.887 1088.71 371.181 1094.04 374.499C1119.34 390.28 1149.68 389.119 1177.63 386.347C1199.85 384.167 1223.01 390.28 1244.49 395.825C1252.19 397.792 1260.49 400.019 1268.72 402.365C1284.81 406.915 1301.46 412.081 1315.71 412.175C1341.45 412.752 1366.82 405.996 1388.87 392.697C1397.73 387.437 1406.58 382.413 1414.94 378.29C1440.74 365.494 1471.56 366.869 1498.92 373.906C1508.61 376.276 1515.51 383.385 1523.64 385.754C1533.13 388.574 1549.41 388.124 1559.63 390.873C1579.85 396.465 1600.27 406.228 1620.94 412.484C1631.89 415.856 1643.06 418.484 1654.37 420.351C1673.91 423.358 1693.68 424.548 1713.45 423.905C1743.41 423.076 1773.26 414.569 1803.53 412.957" stroke="#65BDEA" stroke-width="0.5" stroke-miterlimit="10"/>
<path d="M-163.475 154.077C-97.758 159.788 -35.028 182.631 21.4432 213.626C27.4667 216.994 33.2924 220.705 38.8919 224.739C73.5285 249.502 93.7509 289.904 126.847 316.443C172.744 353.243 222.791 335.258 261.292 302.226C271.77 293.197 282.202 282.961 290.76 274.193C309.489 254.975 324.069 226.398 348.867 214.834C364.846 207.394 383.528 213.318 400.384 223.27C408.043 227.842 415.321 233.024 422.147 238.767C447.348 260.094 471.364 290.117 503.559 301.491C515.681 305.934 528.74 307.198 541.491 305.164C569.939 300.188 597.796 290.283 624.751 278.577C652.939 266.326 686.39 263.553 714.697 274.785C749.974 288.766 787.811 290.449 827.426 289.667C850.257 289.216 873.561 288.434 896.605 288.861C922.232 289.335 948.761 291.87 972.777 299.003C999.448 306.917 1021.12 328.22 1045.35 341.348C1059.76 349.168 1071.87 356.822 1084.27 365.044C1089.25 368.362 1094.35 371.703 1099.75 375.091C1125.41 391.157 1156.2 389.499 1184.48 386.513C1206.96 384.143 1230.41 390.612 1252.05 396.465C1259.8 398.574 1268.17 400.991 1276.47 403.574C1292.64 408.503 1308.55 413.052 1323.88 414.403C1350.22 416.536 1375.78 408.29 1398.14 395.067C1407.1 389.783 1415.92 384.593 1424.21 380.352C1450.29 367.106 1481.44 368.314 1509.21 375.068C1518.69 377.437 1525.52 383.811 1533.58 386.157C1542.87 388.882 1558.47 388.527 1568.38 391.394C1587.99 396.868 1607.69 406.299 1627.65 412.413C1638.25 415.706 1649.06 418.287 1660.01 420.138C1678.93 423.215 1698.1 424.477 1717.26 423.905C1746.49 423.1 1775.63 415.517 1805.19 413.906" stroke="#65BDEA" stroke-width="0.5" stroke-miterlimit="10"/>
<path d="M-166.226 162.774C-102.059 168.354 -39.6314 186.571 17.46 216.375C23.4641 219.568 29.2603 223.137 34.8139 227.061C69.7587 251.326 89.5306 295.994 121.062 319.69C166.485 353.812 213.71 344.523 257.308 307.178C267.721 298.122 277.637 288.511 287.014 278.387C305.98 258.151 319.707 227.796 344.718 214.976C360.792 206.73 379.829 212.749 396.875 223.033C404.627 227.75 411.97 233.109 418.827 239.052C444.194 261.065 468.068 292.439 500.571 304.903C512.818 309.825 526.14 311.458 539.214 309.643C568.256 305.069 596.349 294.998 623.66 282.842C652.109 270.188 686.295 267.179 714.91 278.909C750.471 293.553 788.783 294.856 829.062 293.268C852.176 292.344 875.86 290.899 899.236 290.899C925.314 290.709 952.246 292.652 976.783 299.477C1003.93 307.012 1025.98 328.694 1050.58 341.798C1064.14 348.992 1077.32 356.886 1090.06 365.447C1095.08 368.812 1100.23 372.177 1105.68 375.636C1131.76 391.963 1162.93 389.854 1191.55 386.631C1214.33 384.048 1238.06 390.897 1259.85 397.152C1267.63 399.38 1276.09 401.892 1284.43 404.688C1300.7 409.972 1316.75 415.019 1332.23 416.536C1358.9 419.048 1384.88 410.778 1407.5 397.342C1416.56 391.987 1425.4 386.702 1433.74 382.342C1459.82 368.622 1491.59 369.712 1519.73 376.181C1529.02 378.29 1535.83 384.285 1543.72 386.537C1552.87 389.167 1567.74 389.096 1577.39 391.868C1596.35 397.271 1615.32 406.347 1634.67 412.318C1644.9 415.54 1655.34 418.089 1665.91 419.948C1684.24 422.977 1702.81 424.31 1721.39 423.929C1749.84 423.384 1778.29 416.512 1807.02 414.853" stroke="#65BDEA" stroke-width="0.5" stroke-miterlimit="10"/>
<path d="M-168.976 171.47C-104.965 176.826 -42.8281 191.422 13.572 219.147C19.5507 222.169 25.324 225.58 30.8547 229.36C66.0366 253.056 84.8129 298.434 115.324 322.936C160.369 359.167 208.945 350.139 253.373 312.225C264.003 303.047 274.021 293.185 283.363 282.7C302.329 261.373 315.392 229.336 340.64 215.213C356.785 206.185 376.201 212.251 393.389 222.867C401.198 227.801 408.603 233.348 415.532 239.454C442.156 262.44 464.062 294.856 497.608 308.458C509.97 313.726 523.494 315.678 536.843 314.121C566.43 309.927 594.761 299.714 622.498 287.107C651.303 274.003 685.205 268.601 714.958 283.032C750.187 300.069 791.817 299.619 830.532 296.823C854.239 295.093 877.946 293.387 901.654 292.652C928.158 291.628 954.683 294.017 980.576 299.761C1007.67 306.088 1030.62 329.002 1055.61 342.106C1069.4 349.367 1082.78 357.388 1095.68 366.134C1100.75 369.523 1105.94 372.935 1111.47 376.442C1137.85 393.029 1169.5 390.494 1198.42 387.01C1221.52 384.238 1245.53 391.442 1267.48 398.077C1275.31 400.446 1283.82 403.219 1292.23 406.109C1308.59 411.773 1324.81 417.199 1340.43 418.858C1367.48 421.725 1393.84 413.455 1416.79 399.901C1425.87 394.475 1434.79 389.072 1443.11 384.593C1469.42 370.376 1501.6 371.418 1530.14 377.485C1539.24 379.451 1546 384.972 1553.85 387.153C1562.81 389.688 1576.99 389.83 1586.33 392.555C1604.65 397.887 1622.93 406.607 1641.59 412.46C1651.47 415.607 1661.55 418.1 1671.77 419.924C1689.46 423.134 1707.44 424.539 1725.42 424.119C1752.42 423.242 1780.92 418.597 1808.8 415.991" stroke="#65BDEA" stroke-width="0.5" stroke-miterlimit="10"/>
<path d="M-171.654 180.19C-108.64 185.404 -46.6448 195.854 9.56565 221.943C15.527 224.777 21.2788 228.031 26.7773 231.682C62.1963 254.928 80.0005 300.97 109.516 326.23C154.276 364.547 204.038 355.803 249.39 317.32C260.237 308.009 270.351 297.876 279.641 287.013C298.773 264.667 311.03 230.877 336.539 215.45C352.755 205.64 372.551 211.777 389.928 222.725C397.817 227.805 405.278 233.519 412.237 239.81C439.098 263.672 460.743 297.273 494.644 311.965C507.102 317.653 520.842 319.95 534.473 318.623C564.629 314.832 593.173 304.406 621.313 291.373C650.426 277.842 684.968 272.06 715.124 287.155C750.685 304.903 793.027 304.074 832.168 300.425C856.16 298.174 880.626 295.377 904.309 294.548C931.502 293.6 958.837 294.548 984.607 300.022C1012.13 305.946 1035.51 329.263 1060.9 342.343C1074.9 349.595 1088.46 357.666 1101.51 366.513C1106.61 369.926 1111.87 373.385 1117.46 376.94C1144.18 393.835 1176.31 390.802 1205.56 387.082C1228.91 384.143 1253.24 391.679 1275.33 398.716C1283.2 401.204 1291.78 404.143 1300.27 407.223C1316.7 413.218 1333.06 419.071 1348.85 420.896C1376.28 424.119 1403.04 415.849 1426.28 401.939C1435.43 396.465 1444.34 390.944 1452.69 386.347C1479.17 371.75 1511.79 372.627 1540.74 378.48C1549.65 380.257 1556.41 385.328 1563.97 387.437C1572.77 389.807 1586.23 390.257 1595.31 392.934C1613 398.195 1630.56 406.584 1648.56 412.294C1658.08 415.376 1667.8 417.822 1677.65 419.616C1694.74 422.791 1712.11 424.267 1729.5 424.024C1755.81 423.431 1783.45 418.929 1810.58 416.915" stroke="#65BDEA" stroke-width="0.5" stroke-miterlimit="10"/>
<path d="M-174.452 188.934C-113.523 193.911 -50.509 198.839 5.55919 224.739C11.467 227.448 17.1854 230.551 22.6759 234.028C58.2371 256.705 75.1881 303.553 103.661 329.524C148.017 369.973 199.107 361.513 245.337 322.415C256.343 312.922 266.548 302.54 275.848 291.373C295.407 268.032 306.028 232.132 332.272 215.687C348.867 205.166 368.734 211.304 386.277 222.559C394.258 227.795 401.784 233.692 408.776 240.189C435.897 264.928 457.258 299.737 491.515 315.495C504.027 321.593 517.939 324.243 531.818 323.173C562.495 319.784 591.371 309.24 619.867 295.685C649.241 281.728 684.423 275.567 714.958 291.325C750.685 309.761 793.904 308.481 833.495 304.027C857.819 301.278 882.593 297.842 906.633 296.467C934.252 294.904 962.156 295.188 988.305 300.377C1016.28 305.922 1040.06 329.642 1065.83 342.699C1080.05 349.935 1093.8 358.055 1107.01 367.011C1112.15 370.447 1117.44 373.954 1123.13 377.556C1150.2 394.735 1182.73 391.205 1212.34 387.295C1236.05 384.143 1260.59 392.034 1282.85 399.451C1290.77 402.081 1299.44 405.185 1307.95 408.456C1324.55 414.782 1340.98 420.991 1356.96 423.029C1384.69 426.607 1411.89 418.289 1435.43 404.214C1444.65 398.693 1453.61 393.077 1461.96 388.361C1488.6 373.314 1521.7 374.143 1551.03 379.617C1559.7 381.252 1566.46 385.897 1573.88 387.935C1582.51 390.304 1595.22 390.849 1604.04 393.503C1621.11 398.693 1637.94 406.726 1655.27 412.318C1664.45 415.286 1673.81 417.661 1683.29 419.427C1699.78 422.555 1716.53 424.102 1733.31 424.048C1758.94 423.739 1785.78 419.853 1812.14 417.744" stroke="#65BDEA" stroke-width="0.5" stroke-miterlimit="10"/>
<path d="M-177.202 197.678C-117.033 202.583 -54.4922 203.152 1.57601 227.535C7.45974 230.066 13.156 233.012 18.6217 236.35C54.4674 258.459 70.4462 306.23 97.8758 332.841C141.806 375.494 194.223 367.224 241.33 327.533C252.563 317.898 262.881 307.245 272.149 295.709C291.874 271.255 301.618 233.838 328.146 215.948C344.931 204.597 365.083 210.829 382.674 222.417C390.73 227.813 398.312 233.886 405.338 240.568C432.72 266.207 453.796 302.178 488.314 319.05C501.03 325.365 515.143 328.349 529.328 327.722C560.551 326.23 591.157 313.955 618.563 300.022C648.577 284.738 684.067 279.027 714.958 295.472C750.898 314.618 794.97 312.865 834.846 307.604C859.526 304.358 884.632 300.306 908.979 298.387C937.025 296.183 965.356 296.017 991.956 300.756C1020.4 305.922 1044.54 330.021 1070.71 343.054C1085.15 350.28 1099.1 358.449 1112.46 367.508C1117.65 370.968 1122.99 374.617 1128.75 378.172C1156.22 395.612 1189.13 391.631 1219.07 387.484C1243.07 384.167 1267.91 392.389 1290.2 400.162C1298.14 402.934 1306.79 406.204 1315.47 409.64C1332.06 416.322 1348.66 422.91 1364.87 425.137C1392.99 429.024 1420.59 420.73 1444.41 406.441C1453.71 400.849 1462.69 395.114 1471.06 390.28C1497.85 374.83 1531.42 375.541 1561.15 380.802C1569.64 382.295 1576.37 386.489 1583.62 388.456C1592.06 390.825 1604.15 391.489 1612.64 394.119C1629.05 399.214 1645.19 406.939 1661.86 412.389C1670.66 415.338 1679.65 417.713 1688.77 419.498C1704.68 422.424 1720.81 424.009 1736.99 424.237C1762.31 424.64 1788.03 420.967 1813.56 418.858" stroke="#65BDEA" stroke-width="0.5" stroke-miterlimit="10"/>
<path d="M-179.928 206.469C-120.47 211.208 -58.4748 207.512 -2.38292 230.355C3.47064 232.711 9.13705 235.508 14.5678 238.72C50.6032 260.189 65.8234 304.69 92.0913 336.158C132.607 384.735 195.171 371.703 237.347 332.675C248.55 322.656 258.928 311.753 268.38 300.069C288.318 274.453 297.208 235.45 323.95 216.185C340.854 204.029 361.361 210.355 379.236 222.251C387.385 227.805 395.032 234.061 402.09 240.947C429.733 267.511 450.524 304.666 485.493 322.604C498.305 329.334 512.631 332.664 527.1 332.272C558.773 331.324 589.901 318.718 617.52 304.334C651.706 286.539 682.716 284.951 715.218 299.595C751.159 315.827 796.298 317.201 836.53 311.159C861.541 307.391 886.955 302.723 911.659 300.259C940.108 297.415 968.912 296.586 996.081 301.064C1024.91 305.804 1049.52 330.353 1076.07 343.362C1090.73 350.561 1104.87 358.772 1118.39 367.935C1123.63 371.442 1129.01 375.044 1134.82 378.717C1162.67 396.441 1195.98 391.986 1226.28 387.626C1250.6 384.119 1275.71 392.674 1298.26 400.825C1306.25 403.74 1315.07 407.152 1323.69 410.778C1340.29 417.886 1357.22 424.734 1373.48 427.152C1401.93 431.369 1429.98 423.052 1454.09 408.55C1463.43 402.934 1472.46 397.081 1480.83 392.152C1507.78 376.276 1541.83 376.939 1571.91 381.773C1580.21 383.124 1586.92 386.892 1594.03 388.882C1602.3 391.062 1613.66 392.01 1621.86 394.617C1637.65 399.64 1653.06 407.033 1669.07 412.365C1677.52 415.232 1686.15 417.543 1694.91 419.284C1710.22 422.222 1725.74 423.91 1741.33 424.332C1765.89 425.019 1790.87 421.962 1815.6 419.877" stroke="#65BDEA" stroke-width="0.5" stroke-miterlimit="10"/>
<path d="M-182.678 215.261C-122.58 218.602 -61.6279 214.336 -6.36574 233.175C-0.50475 235.272 5.1467 237.914 10.5141 241.066C46.7154 261.918 60.9636 311.301 86.378 339.5C126.396 384.048 185.546 381.916 233.364 337.841C244.731 327.664 255.171 316.498 264.563 304.477C284.667 277.653 292.752 237.061 319.707 216.445C336.682 203.46 357.639 209.858 375.609 222.109C383.844 227.821 391.556 234.252 398.653 241.326C426.58 268.838 447.04 307.154 482.388 326.182C495.299 333.318 509.835 336.999 524.587 336.869C556.711 336.443 588.289 321.87 616.216 308.671C651.991 291.752 679.895 287.344 715.171 303.789C751.42 320.59 797.365 321.633 837.952 314.785C863.272 310.495 889.018 305.306 914.053 302.202C942.953 298.742 972.184 297.32 999.851 301.491C1029.08 305.875 1054.19 330.803 1081.1 343.789C1095.96 350.977 1110.29 359.229 1123.96 368.48C1129.25 371.987 1134.68 375.589 1140.55 379.38C1168.77 397.366 1202.53 392.484 1233.01 387.864C1257.65 384.143 1283.01 393.077 1305.72 401.584C1313.76 404.593 1322.65 408.195 1331.33 411.986C1348.14 419.308 1365.09 426.654 1381.56 429.237C1410.37 433.763 1438.75 425.446 1463.21 410.73C1472.7 405.043 1481.68 399.095 1490.05 394.143C1517.17 377.887 1551.69 378.503 1582.15 383.006C1590.26 384.19 1596.95 387.555 1603.92 389.356C1612 391.465 1622.67 392.603 1630.59 395.186C1645.74 400.114 1660.44 407.2 1675.77 412.389C1683.87 415.197 1692.14 417.476 1700.53 419.213C1715.23 422.112 1730.14 423.863 1745.12 424.45C1768.94 425.398 1793.17 422.981 1817.14 420.896" stroke="#65BDEA" stroke-width="0.5" stroke-miterlimit="10"/>
<path d="M-185.405 224.076C-125.946 226.753 -65.3265 218.957 -10.3252 235.924C-4.4975 237.842 1.12511 240.335 6.45978 243.364C42.8033 263.553 56.2454 314.168 80.4744 342.888C119.971 389.498 180.425 387.911 229.357 343.054C240.979 332.727 251.556 321.282 260.936 308.884C281.182 280.875 288.46 238.696 315.653 216.73C332.698 202.915 353.964 209.408 372.171 221.967C380.498 227.838 388.274 234.452 395.404 241.729C423.569 270.165 443.768 309.69 479.471 329.808C492.457 337.294 507.154 341.309 522.145 341.466C554.743 341.466 586.819 326.609 614.983 313.031C651.279 295.52 679.467 290.97 715.242 307.96C751.799 325.353 798.503 326.017 839.446 318.386C865.121 313.647 891.152 307.676 916.542 304.169C945.868 300.069 975.55 298.103 1003.71 301.799C1033.37 305.827 1058.88 331.111 1086.19 344.073C1101.27 351.26 1115.79 359.561 1129.63 368.907C1134.94 372.461 1140.44 376.015 1146.39 379.925C1174.84 398.171 1209.16 392.816 1240.08 388.006C1264.99 384.12 1290.67 393.361 1313.57 402.223C1321.66 405.351 1330.62 409.095 1339.37 413.053C1356.24 420.706 1373.34 428.408 1389.98 431.156C1419.14 435.896 1447.95 427.673 1472.7 412.744C1482.18 407.01 1491.26 400.896 1499.65 395.825C1528.1 378.48 1561.43 380.589 1592.77 383.977C1600.62 384.783 1607.33 387.958 1614.11 389.688C1622.03 391.726 1631.99 393.053 1639.62 395.588C1654.15 400.328 1668.07 407.223 1682.79 412.176C1690.54 414.919 1698.46 417.151 1706.5 418.858C1720.62 421.727 1734.93 423.549 1749.31 424.308C1772.41 425.54 1795.85 423.716 1819.04 421.678" stroke="#65BDEA" stroke-width="0.5" stroke-miterlimit="10"/>
<path d="M-188.25 232.914C-129.313 234.881 -69.1431 223.436 -14.4026 238.838C-8.59658 240.574 -2.98718 242.908 2.33492 245.805C38.797 265.331 51.3856 317.249 74.5953 346.253C113.594 394.925 175.257 393.953 225.28 348.22C237.105 337.721 247.807 326.024 257.214 313.315C277.863 284.145 283.6 240.26 311.48 216.967C328.976 202.37 350.242 208.91 368.663 221.706C377.121 227.669 384.952 234.473 392.038 242.014C419.089 270.923 441.018 312.439 476.484 333.267C489.606 341.131 504.529 345.496 519.822 345.945C552.87 346.845 585.491 331.206 613.845 317.249C650.639 299.121 679.16 294.358 715.408 312.012C752.25 329.95 799.783 330.258 841.058 321.822C867.136 316.514 893.594 310.116 919.15 305.898C948.69 301.159 979.035 298.648 1007.7 302.131C1037.76 305.78 1063.72 331.443 1091.41 344.405C1106.7 351.555 1121.41 359.899 1135.39 369.357C1140.77 372.911 1146.29 376.608 1152.31 380.47C1181.26 398.977 1217.75 390.92 1247.14 388.148C1272.34 385.778 1296.1 392.887 1321.3 402.887C1329.43 406.133 1338.49 409.996 1347.38 414.166C1364.33 422.128 1381.59 430.185 1398.42 433.123C1427.89 438.241 1457.12 429.924 1482.2 414.782C1491.69 409.024 1500.84 402.934 1509.23 397.626C1537.68 379.902 1571.67 381.987 1603.37 384.925C1611.03 385.636 1617.74 388.385 1624.38 390.044C1632.13 391.987 1641.37 393.503 1648.72 396.015C1662.62 400.754 1675.92 407.271 1689.86 412.223C1697.25 414.888 1704.8 417.08 1712.47 418.787C1725.98 421.625 1739.67 423.502 1753.44 424.403C1775.94 425.61 1798.5 425.04 1820.91 422.697" stroke="#65BDEA" stroke-width="0.5" stroke-miterlimit="10"/>
<path d="M-190.905 241.753C-132.418 243.104 -72.6519 228.175 -18.2669 241.753C-12.5086 243.287 -6.94173 245.465 -1.67172 248.246C34.8852 267.06 47.2842 316.514 68.858 349.689C106.79 408.171 175.731 394.949 221.321 353.48C233.348 342.823 244.125 330.835 253.444 317.746C274.26 287.344 279.167 241.919 307.284 217.251C324.875 201.825 346.496 208.436 365.083 221.706C373.644 227.816 381.542 234.805 388.648 242.559C415.888 272.392 437.604 315.14 473.426 337.035C486.645 345.32 501.791 350.032 517.38 350.708C551.732 351.94 582.528 336.04 612.589 321.727C651.043 303.41 678.709 298.031 715.408 316.301C752.582 334.831 800.992 334.784 842.48 325.542C868.796 319.666 895.704 312.675 921.592 307.936C951.535 302.439 982.307 299.477 1011.49 302.628C1041.98 305.922 1068.39 331.941 1096.43 344.879C1111.94 352.025 1126.85 360.409 1141 369.949C1146.41 373.551 1152.01 377.319 1158.07 381.205C1187.38 399.972 1224.46 391.37 1254.02 388.479C1279.55 385.968 1303.45 393.219 1328.91 403.692C1337.09 407.081 1346.22 411.133 1354.99 415.541C1372.06 423.811 1389.44 432.128 1406.43 435.279C1436.26 440.706 1465.89 432.365 1491.28 417.033C1500.77 411.228 1509.96 405.043 1518.43 399.64C1546.12 381.939 1582.13 382.887 1613.59 386.205C1620.56 387.21 1627.46 388.715 1634.21 390.707C1641.78 392.579 1650.34 394.238 1657.38 396.75C1670.65 401.489 1683.22 407.626 1696.52 412.46C1703.54 415.056 1710.72 417.201 1718.02 418.882C1730.94 421.663 1744.03 423.611 1757.21 424.711C1778.92 426.325 1800.72 426.047 1822.38 423.882" stroke="#65BDEA" stroke-width="0.5" stroke-miterlimit="10"/>
<path d="M-193.631 250.615C-135.477 251.302 -76.4926 232.772 -22.2499 244.573C-16.5005 245.919 -10.9302 247.94 -5.6547 250.592C30.9971 268.672 42.0922 323.126 63.097 353.054C100.887 406.82 165.655 405.588 217.385 358.67C229.621 347.855 240.495 335.593 249.77 322.154C270.798 290.448 274.828 243.554 303.182 217.464C320.868 201.209 342.845 207.986 361.598 221.493C370.162 227.83 378.101 234.971 385.305 242.819C414.442 274.098 433.36 317.249 470.415 340.518C483.747 349.174 499.093 354.236 514.961 355.21C549.906 356.987 580.987 340.684 611.356 325.969C650.402 307.012 678.282 301.396 715.479 320.353C752.676 339.31 802.201 338.978 843.997 328.978C870.621 322.58 897.837 314.974 924.081 309.69C954.45 303.576 985.721 300.069 1015.38 302.889C1046.2 305.804 1073.06 332.177 1101.53 345.115C1117.22 352.247 1132.29 360.672 1146.58 370.305C1152.05 373.93 1157.67 377.721 1163.83 381.679C1193.52 400.636 1228.86 394.19 1260.89 388.551C1287.18 383.811 1312.62 394.522 1336.52 404.237C1344.91 407.673 1353.95 411.962 1362.84 416.417C1380 424.972 1397.52 433.715 1414.68 436.938C1444.86 442.625 1474.9 434.284 1500.6 418.763C1510.27 412.887 1519.4 406.607 1527.84 401.133C1555.7 383.053 1592.18 384.048 1624.02 386.916C1630.86 387.723 1637.63 389.046 1644.27 390.873C1651.71 392.5 1659.07 394.533 1666.29 396.963C1678.93 401.583 1690.78 407.46 1703.39 412.176C1710.06 414.714 1716.89 416.82 1723.83 418.479C1736.14 421.273 1748.62 423.291 1761.19 424.521C1782.12 426.524 1803.19 426.524 1824.11 424.521" stroke="#65BDEA" stroke-width="0.5" stroke-miterlimit="10"/>
<path d="M-196.381 259.525C-138.44 259.525 -80.4045 237.393 -26.2092 247.44C-20.5095 248.603 -14.9754 250.466 -9.73244 252.985C27.0141 270.33 37.3033 326.443 57.3124 356.49C94.462 412.389 160.558 411.702 213.402 363.93C225.842 352.951 236.814 340.415 246.048 326.632C267.195 293.671 270.442 245.236 299.034 217.63C316.814 200.521 339.147 207.322 358.089 221.256C366.755 227.786 374.774 235.134 382.034 243.198C411.455 275.449 429.923 319.713 467.381 344.12C480.79 353.15 496.306 358.562 512.425 359.831C547.844 362.2 579.327 345.4 610.028 330.305C649.644 310.803 674.228 305.993 715.432 324.476C758.508 343.788 799.593 344.215 845.373 332.485C872.328 325.59 899.9 317.344 926.452 311.538C957.272 304.808 988.874 300.733 1019.1 303.221C1050.39 305.78 1077.63 332.533 1106.53 345.447C1122.46 352.548 1137.74 361.015 1152.19 370.755C1157.72 374.404 1163.38 378.219 1169.62 382.224C1199.66 401.512 1235.46 394.569 1267.79 388.693C1294.42 383.953 1320.09 394.806 1344.15 404.877C1352.59 408.408 1361.67 412.839 1370.66 417.46C1387.89 426.322 1405.56 435.398 1422.82 438.786C1453.3 444.734 1483.77 436.417 1509.77 420.659C1519.52 414.758 1528.74 408.384 1537.13 402.816C1565.11 384.356 1602.16 385.399 1634.33 387.911C1641.04 388.497 1647.7 389.622 1654.22 391.276C1661.29 392.883 1668.26 394.941 1675.06 397.437C1687.08 401.986 1698.2 407.578 1710.17 412.175C1716.48 414.646 1722.95 416.712 1729.52 418.36C1741.24 421.137 1753.11 423.21 1765.08 424.569C1785.21 427.039 1805.55 427.364 1825.75 425.54" stroke="#65BDEA" stroke-width="0.5" stroke-miterlimit="10"/>
<path d="M-199.108 268.411C-134.363 272.866 -71.3245 234.573 -13.7865 255.402C21.7747 268.245 33.3202 326.656 51.5039 359.926C99.4878 447.601 203.232 393.835 242.302 331.111C263.638 296.941 266.009 246.208 294.885 217.986C322.907 190.522 358.895 222.843 378.667 243.696C408.396 274.904 427.552 326.23 464.441 347.959C512.591 376.205 558.251 360.234 609.056 334.855C649.193 314.761 673.967 309.737 715.74 328.812C760.642 349.333 800.921 347.769 847.103 336.229C904.949 321.87 964.716 300.235 1023.2 303.766C1055.33 305.709 1082.23 333.173 1111.87 345.992C1134.22 355.684 1155.4 369.475 1175.67 382.982C1205.63 402.958 1241.9 394.83 1274.98 389.072C1302.19 384.333 1327.56 394.711 1352.07 405.659C1378.46 417.507 1403.33 434.545 1431.4 440.73C1474.24 450.208 1512.69 427.886 1546.88 404.593C1574.59 385.636 1612.48 386.75 1645.1 388.977C1677.72 391.204 1705.05 410.304 1735.61 418.36C1765.63 426.373 1796.8 429.162 1827.76 426.607" stroke="#65BDEA" stroke-width="0.5" stroke-miterlimit="10"/>
<path d="M1825.51 425.066C1794.69 427.412 1763.7 424.504 1733.86 416.465C1710.74 410.138 1688.32 397.508 1665.11 391.157C1657.83 389.298 1650.39 388.163 1642.89 387.769C1610.41 385.707 1573.1 384.83 1544.77 403.219C1534.29 409.996 1522.86 417.91 1510.34 424.711C1485.64 438.123 1457.24 444.402 1429.22 439.189C1414.71 436.488 1400.06 429.995 1385.78 423.005C1373.93 417.199 1362.24 411.157 1350.91 406.749C1334.32 400.399 1320.75 394.095 1304.92 391.631C1294.88 390.063 1284.65 390.183 1274.64 391.987C1236.95 398.432 1206.46 403.361 1175.29 386.465C1155.7 375.849 1133.49 359.736 1111.49 349.95C1082.26 336.964 1054.83 310.495 1023.18 307.865C987.949 304.974 951.487 311.514 915.974 321.23C893.617 327.343 870.692 334.902 847.91 340.826C840.94 342.627 833.685 344.239 826.265 345.566C790.016 352.675 748.48 349.973 716.902 332.888C693.337 320.116 670.198 313.694 641.844 323.22C631.245 326.817 620.941 331.23 611.024 336.419C561.831 362.224 514.369 372.271 468.068 345.139C456.523 338.386 446.352 327.628 437.865 317.107C418.425 293.055 402.92 264.975 382.105 241.919C372.171 230.876 360.247 219.976 347.942 213.128C331.608 204.052 314.302 201.967 298.346 216.232C287.725 225.711 279.38 242.748 272.387 260.805C264.089 282.463 256.858 306.372 244.483 325.637C228.054 351.158 203.161 373.503 175.921 388.811C128.079 415.659 83.4619 399.972 56.6014 360.613C44.0838 342.296 35.0039 317.533 23.4109 296.965C14.7814 281.776 3.73366 269.098 -10.4197 264.406C-70.6604 244.454 -136.947 280.259 -199.226 278.624" stroke="#65BDEA" stroke-width="0.5" stroke-miterlimit="10"/>
<path d="M1823.33 423.526C1792.66 425.539 1761.87 422.513 1732.17 414.569C1708.96 408.29 1686.32 396.062 1663 389.878C1655.72 388.059 1648.29 386.948 1640.81 386.56C1608.3 384.593 1571.25 383.882 1542.75 401.844C1532.15 408.503 1520.61 416.275 1508.02 422.981C1483.34 436.133 1455.08 442.412 1427.13 437.649C1412.67 435.279 1398.11 429.166 1384.08 422.744C1372.39 417.389 1360.96 411.773 1349.87 407.863C1333.51 402.129 1320.3 396.323 1304.49 394.214C1294.49 392.878 1284.35 393.134 1274.43 394.972C1236.81 401.678 1206.39 406.607 1175.03 390.044C1155.35 379.665 1133.16 363.764 1111.23 354.002C1082.09 341.04 1054.73 314.95 1023.27 312.083C987.997 308.86 951.89 315.211 916.59 325.448C894.423 331.869 871.545 339.666 848.905 345.495C841.959 347.272 834.68 348.86 827.284 350.234C791.082 357.082 749.831 354.262 718.229 337.201C694.877 324.547 672.023 317.841 643.764 326.372C633.331 329.521 623.161 333.483 613.347 338.22C564.107 362.058 517.285 369.594 471.956 342.58C460.458 335.732 450.311 325.092 441.776 314.713C422.241 291.017 406.618 263.174 385.803 240.284C375.822 229.312 363.921 218.554 351.641 211.848C335.33 202.939 318.071 200.948 302.092 214.668C291.376 223.862 282.747 240.213 275.634 257.535C267.005 278.506 259.371 301.728 246.901 320.329C230.092 345.4 205.437 367.58 178.742 383.409C137.941 407.626 89.1277 403.313 61.9589 361.442C49.6547 342.485 39.342 322.012 27.512 302.984C18.6691 288.766 7.52664 277.463 -6.98233 273.577C-68.9774 256.99 -135.192 292.534 -199.297 289.003" stroke="#65BDEA" stroke-width="0.5" stroke-miterlimit="10"/>
<path d="M1821.15 421.962C1790.62 423.626 1760.02 420.492 1730.47 412.673C1707.16 406.465 1684.31 394.593 1660.86 388.574C1653.59 386.812 1646.17 385.741 1638.7 385.375C1606.17 383.432 1569.38 383.006 1540.71 400.47C1529.97 407.034 1518.31 414.687 1505.67 421.251C1480.99 434.142 1452.9 440.398 1425.07 436.133C1410.63 433.905 1396.19 428.36 1382.39 422.46C1370.9 417.578 1359.71 412.484 1348.85 409C1332.85 403.835 1319.85 398.55 1304.11 396.797C1294.16 395.603 1284.07 396.003 1274.24 397.982C1237.97 405.399 1205.49 409.451 1174.81 393.622C1155.06 383.456 1132.85 367.817 1110.99 358.077C1081.95 345.116 1054.66 319.405 1023.27 316.277C987.949 312.747 952.151 318.931 916.969 329.689C895.04 336.395 872.352 344.428 849.64 350.187C842.741 351.916 835.415 353.717 828.066 354.926C788.38 361.039 756.944 358.907 719.415 341.561C694.119 329.855 673.635 322.083 645.518 329.547C635.284 332.43 625.244 335.96 615.457 340.116C564.486 361.087 521.837 367.437 475.583 340.116C464.227 333.41 454.01 322.675 445.427 312.439C425.798 289.027 410.032 261.421 389.264 238.767C379.26 227.843 367.359 217.204 355.102 210.616C338.815 201.872 321.603 199.977 305.601 213.128C294.766 222.014 285.947 237.725 278.622 254.336C269.684 274.643 261.671 296.989 249.082 315.093C231.847 339.76 207.072 363.859 181.326 378.077C137.894 402.057 99.7487 399.403 67.0798 362.319C55.9373 349.642 44.3206 327.557 31.5186 309.05C22.3438 295.828 11.2487 285.851 -3.63964 282.747C-67.6498 269.454 -133.343 304.903 -199.416 299.335" stroke="#65BDEA" stroke-width="0.5" stroke-miterlimit="10"/>
<path d="M1818.97 420.398C1788.63 421.725 1758.26 418.482 1728.88 410.778C1705.46 404.569 1682.41 393.148 1658.82 387.271C1651.55 385.557 1644.14 384.518 1636.68 384.167C1604.15 382.271 1567.62 381.987 1538.77 399.095C1527.89 405.541 1516.13 413.029 1503.42 419.522C1478.74 432.152 1450.81 438.478 1423.03 434.569C1408.64 432.602 1394.32 427.46 1380.71 422.199C1369.4 417.744 1358.45 413.218 1347.83 410.114C1332.18 405.564 1319.38 400.778 1303.71 399.38C1293.8 398.417 1283.8 398.952 1274.05 400.967C1237.83 408.645 1205.47 412.816 1174.48 397.2C1154.66 387.271 1132.47 371.845 1110.66 362.129C1081.71 349.215 1054.45 323.86 1023.42 320.472C988.115 316.633 952.554 322.675 917.562 333.931C895.845 340.921 873.229 349.215 850.612 354.855C843.736 356.561 836.387 358.314 829.062 359.404C789.541 365.328 758.058 363.006 720.766 345.684C695.802 334.121 675.39 326.111 647.439 332.509C637.378 334.97 627.48 338.057 617.804 341.751C566.928 360.542 524.824 364.665 479.495 337.391C468.187 330.59 457.992 319.998 449.363 309.903C429.614 286.799 413.802 259.407 392.986 236.966C382.958 226.137 371.057 215.64 358.824 209.171C342.561 200.593 325.42 198.792 309.37 211.375C298.441 219.929 289.693 234.857 281.893 250.9C271.817 271.563 262.666 295.093 251.524 309.643C232.603 334.13 209.823 355.379 184.076 372.556C143.204 399.83 102.925 394.167 72.3664 363.077C61.2239 351.703 48.6589 332.272 35.5724 314.974C26.3028 302.794 15.0892 294.145 -0.225857 291.799C-66.8676 281.539 -131.494 323.623 -199.369 309.737" stroke="#65BDEA" stroke-width="0.5" stroke-miterlimit="10"/>
<path d="M1816.81 418.834C1786.58 419.818 1756.37 416.458 1727.1 408.858C1703.58 402.721 1680.3 391.679 1656.59 385.968C1649.33 384.307 1641.92 383.292 1634.48 382.935C1601.97 381.11 1565.72 381.015 1536.66 397.721C1525.63 404.072 1513.73 411.394 1501.1 417.768C1476.42 430.138 1448.66 436.37 1420.97 433.028C1406.6 431.299 1392.37 426.678 1378.98 421.915C1367.86 417.934 1357.17 413.929 1346.79 411.252C1331.47 407.271 1318.98 403.005 1303.28 401.963C1293.42 401.226 1283.51 401.904 1273.84 403.977C1237.71 411.915 1205.32 415.825 1174.27 400.778C1154.4 391.062 1132.19 375.897 1110.45 366.182C1081.59 353.291 1054.38 328.268 1023.56 324.666C988.234 320.519 952.933 326.396 918.154 338.149C896.675 345.424 874.153 353.954 851.584 359.475C844.756 361.158 837.359 362.888 830.057 363.93C790.703 369.641 759.148 367.106 722.093 349.879C697.485 338.433 677.049 330.187 649.383 335.542C639.429 337.579 629.611 340.23 619.986 343.481C569.228 360.068 527.526 361.987 483.217 334.784C471.956 327.912 461.88 317.462 453.109 307.463C433.194 284.619 417.263 257.511 396.519 235.284C386.443 224.526 374.566 214.123 362.333 207.796C346.117 199.408 329 197.678 312.95 209.716C301.926 217.962 292.964 232.251 284.951 247.63C274.639 267.369 265.156 290.069 253.776 304.358C234.54 328.347 211.999 349.489 186.826 367.153C153.019 390.849 108.07 396.228 77.7718 363.764C66.8426 352.082 53.2109 336.727 39.8398 320.803C30.4991 309.666 19.0958 302.273 3.37773 300.733C-64.9235 294.05 -128.957 330.092 -199.369 319.974" stroke="#65BDEA" stroke-width="0.5" stroke-miterlimit="10"/>
<path d="M1814.63 417.247C1784.55 417.901 1754.53 414.433 1725.39 406.939C1701.69 400.825 1678.31 390.209 1654.46 384.641C1647.19 383.036 1639.8 382.061 1632.37 381.726C1599.84 379.949 1563.78 380.044 1534.62 396.323C1523.45 402.555 1511.43 409.735 1498.66 416.014C1473.98 428.099 1446.31 434.331 1418.74 431.464C1404.57 429.627 1390.62 426.331 1377.13 421.63C1366.18 418.123 1355.79 414.521 1345.6 412.365C1330.64 409 1318.36 405.256 1302.71 404.569C1292.91 404.023 1283.07 404.82 1273.48 406.939C1237.45 415.138 1205.06 419.142 1173.91 404.309C1153.97 394.83 1131.76 379.901 1110.09 370.21C1081.33 357.319 1054.19 332.699 1023.56 328.812C988.21 324.334 953.17 330.068 918.605 342.343C897.268 349.878 874.936 358.67 852.39 364.12C845.586 365.779 838.165 367.461 830.911 368.504C791.699 374.001 760.097 371.276 723.303 354.096C699.026 342.746 678.685 334.334 651.161 338.575C641.349 340.21 631.644 342.426 622.096 345.21C571.551 359.428 530.419 359.428 486.963 332.225C475.773 325.116 465.626 314.927 456.854 305.069C436.845 282.534 420.795 255.639 400.075 233.649C389.976 222.938 378.098 212.678 365.889 206.469C349.697 198.247 332.698 196.612 316.554 208.081C305.411 216.019 296.236 229.668 288.105 244.265C277.555 263.056 267.716 284.951 256.147 298.955C236.731 322.462 213.782 345.992 189.576 361.655C151.431 386.323 118.454 391.489 82.8927 364.428C71.7028 355.921 57.4783 341.277 43.7754 326.514C39.0882 321.285 33.3716 317.079 26.9834 314.159C20.5951 311.24 13.6728 309.67 6.64955 309.547C-63.6668 306.491 -126.989 342.082 -199.605 330.116" stroke="#65BDEA" stroke-width="0.5" stroke-miterlimit="10"/>
<path d="M1812.45 415.635C1782.53 415.938 1752.71 412.369 1723.71 405.02C1700 398.953 1676.3 388.716 1652.3 383.337C1645.06 381.704 1637.68 380.752 1630.26 380.494C1597.23 379.404 1562.69 378.812 1532.58 394.925C1521.3 400.967 1509.16 408.076 1496.31 414.237C1471.63 426.467 1444.13 431.883 1416.65 429.924C1402.66 428.378 1388.85 425.506 1375.4 421.346C1364.64 418.313 1354.47 415.375 1344.58 413.503C1330 410.754 1317.93 407.484 1302.31 407.176C1292.55 406.867 1282.79 407.806 1273.27 409.972C1237.33 418.455 1204.94 422.412 1173.7 407.934C1153.71 398.693 1131.47 384.001 1109.88 374.309C1081.21 361.466 1054.12 337.201 1023.68 333.078C988.305 328.339 953.573 333.836 919.198 346.608C898.193 354.428 875.86 363.456 853.362 368.835C846.327 370.625 839.205 372.056 832.025 373.124C792.979 378.409 761.33 375.494 724.773 358.338C700.804 347.13 680.463 338.504 653.2 341.751C643.529 342.971 633.935 344.743 624.466 347.059C574.207 358.907 533.501 356.822 490.827 329.76C479.685 322.652 469.491 312.533 460.742 302.794C440.615 280.567 424.47 253.909 403.845 232.132C393.721 221.493 381.844 211.327 369.658 205.261C353.513 197.204 336.468 195.782 320.347 206.588C309.11 214.194 299.745 227.227 291.353 241.113C280.542 258.956 270.395 280.472 258.565 293.766C238.414 316.443 215.892 339.689 192.398 356.395C157.358 381.394 124.452 388.788 88.2981 365.281C73.9363 355.584 60.4507 344.65 47.9954 332.604C38.5124 323.528 26.7772 318.576 10.2056 318.718C-62.031 319.358 -124.785 354.262 -199.511 340.637" stroke="#65BDEA" stroke-width="0.5" stroke-miterlimit="10"/>
<path d="M1810.29 414.024C1780.54 413.988 1750.91 410.311 1722.05 403.076C1698.34 397.058 1674.35 387.224 1650.22 381.987C1642.97 380.412 1635.59 379.5 1628.17 379.262C1595.17 378.219 1560.82 377.84 1530.57 393.48C1519.14 399.427 1506.86 406.37 1493.99 412.436C1469.29 424.372 1441.96 429.835 1414.56 428.313C1400.75 427.056 1387.07 424.63 1373.67 421.062C1363.1 418.479 1353.19 416.086 1343.47 414.593C1329.24 412.436 1317.39 409.711 1301.84 409.854C1292.13 409.77 1282.45 410.852 1273.01 413.076C1237.16 421.796 1204.83 425.777 1173.44 411.631C1153.33 402.579 1131.17 388.148 1109.62 378.456C1080.95 365.447 1054.02 341.751 1023.68 337.272C988.281 332.13 953.81 337.557 919.648 350.826C898.88 358.883 876.642 368.196 854.192 373.504C847.459 375.091 840.109 376.703 832.855 377.674C793.975 382.769 762.23 379.617 725.958 362.556C702.25 351.443 681.957 342.628 654.978 344.713C645.414 345.39 635.908 346.728 626.529 348.718C577.265 359.689 534.52 353.007 494.407 327.154C483.329 319.482 473.233 310.481 464.346 300.354C444.147 278.411 427.908 252.037 407.14 230.426C396.993 219.834 385.139 209.811 372.977 203.863C356.833 195.972 339.787 194.527 323.713 204.906C312.381 212.204 302.803 224.597 294.197 237.772C283.173 254.667 272.647 275.259 260.604 288.411C240.263 310.614 217.765 333.694 194.839 350.921C161.412 376.015 129.905 385.755 93.2766 365.968C78.5579 358.202 64.6722 348.952 51.836 338.362C42.353 330.329 30.4992 326.514 13.3824 327.604C-60.6086 332.012 -123.078 366.371 -199.819 350.874" stroke="#65BDEA" stroke-width="0.5" stroke-miterlimit="10"/>
<path d="M1808.09 412.413C1778.51 412.012 1749.08 408.228 1720.37 401.133C1696.45 395.138 1672.38 385.731 1648.08 380.66C1640.84 379.131 1633.48 378.251 1626.08 378.029C1593.11 377.058 1558.92 376.868 1528.55 392.247C1516.98 398.076 1504.63 404.854 1491.69 410.801C1466.96 422.433 1439.81 427.951 1412.5 426.891C1398.86 425.902 1385.31 423.906 1371.96 420.919C1361.56 418.81 1351.93 416.962 1342.42 415.896C1328.6 414.332 1316.96 412.081 1301.43 412.484C1291.78 412.614 1282.17 413.83 1272.79 416.109C1237.04 425.114 1204.71 429.047 1173.22 415.232C1153.05 406.441 1130.88 392.223 1109.4 382.579C1080.95 369.759 1053.93 346.206 1023.91 341.585C988.801 335.995 952.819 340.712 920.336 355.163C899.419 364.912 877.62 372.649 855.235 378.266C848.196 379.982 841.075 381.342 833.898 382.342C795.16 387.247 763.369 383.882 727.215 366.869C703.887 355.873 683.451 346.869 656.803 347.912C647.397 348.191 638.02 349.093 628.734 350.613C579.754 359.144 537.555 350.613 498.177 324.761C487.174 317.074 477.095 308.145 468.139 298.15C447.822 276.515 431.464 250.355 410.72 228.957C400.526 218.436 388.696 208.555 376.557 202.725C360.436 195 343.367 193.602 327.341 203.46C315.89 210.427 306.004 222.204 297.327 234.668C286.042 250.639 275.161 270.212 262.904 283.292C242.326 305.045 219.993 327.959 197.542 345.708C170.184 367.342 135.5 386.915 98.5162 366.869C86.4254 360.328 70.6837 355.281 55.8428 344.357C46.3598 337.248 34.1504 334.879 16.7254 336.68C-58.854 344.902 -121.276 378.503 -199.961 361.347" stroke="#65BDEA" stroke-width="0.5" stroke-miterlimit="10"/>
<path d="M1805.93 410.778C1776.5 410.066 1747.23 406.173 1718.64 399.166C1694.57 393.242 1670.32 384.214 1645.9 379.333C1638.66 377.855 1631.31 376.999 1623.93 376.774C1590.97 375.873 1556.98 375.873 1526.49 390.707C1514.63 396.418 1502.28 403.053 1489.29 408.882C1463.21 420.564 1437.32 424.901 1410.35 425.185C1396.74 425.327 1382.39 422.46 1370.18 420.446C1359.94 418.811 1350.63 417.507 1341.31 416.82C1327.89 415.872 1316.44 414.142 1301.01 414.877C1291.41 415.228 1281.87 416.586 1272.56 418.929C1237 428.194 1204.56 432.104 1172.82 418.645C1152.6 410.067 1130.43 396.11 1109.02 386.442C1080.57 373.669 1053.67 350.447 1023.87 345.589C988.906 339.559 952.937 344.303 920.738 359.191C900.042 368.859 878.42 377.603 856.017 382.721C848.977 384.409 841.855 385.738 834.68 386.702C796.108 391.441 764.245 387.816 728.447 370.897C705.427 359.997 684.944 350.779 658.652 350.708C649.386 350.588 640.122 351.055 630.915 352.106C582.291 358.172 540.613 347.817 501.898 321.988C490.985 314.26 480.924 305.395 471.885 295.543C451.449 274.217 435.02 248.293 414.252 227.085C404.01 216.635 392.204 206.872 380.089 201.185C364.016 193.626 347.089 192.299 330.896 201.612C319.351 208.27 309.37 219.431 300.385 231.184C288.863 246.208 277.626 264.999 265.156 277.771C244.34 299.098 222.269 321.348 200.197 340.116C175.281 361.324 138.89 391.56 103.684 367.366C88.0609 364.615 73.1718 358.678 59.9437 349.926C50.4607 343.883 38.0854 342.556 20.1625 345.329C-56.7208 357.177 -119.712 391.015 -200.009 371.395" stroke="#65BDEA" stroke-width="0.5" stroke-miterlimit="10"/>
<path d="M1803.75 409.143C1774.49 408.078 1745.42 404.109 1716.95 397.294C1692.77 391.394 1668.33 382.769 1643.77 378.029C1636.53 376.642 1629.19 375.85 1621.82 375.66C1588.93 374.831 1555.06 375.044 1524.45 389.427C1512.6 395.02 1499.98 401.512 1486.94 407.223C1462.07 417.901 1435.33 423.539 1408.26 423.81C1394.63 424.166 1380.43 421.82 1368.43 420.446C1358.4 419.285 1349.46 418.502 1340.24 418.266C1327.2 417.886 1315.94 416.654 1300.48 417.768C1290.96 418.336 1281.51 419.828 1272.27 422.223C1236.71 431.701 1204.37 435.635 1172.49 422.507C1152.19 414.166 1130.05 400.47 1108.69 390.802C1080.38 378.03 1053.48 355.258 1023.89 350.068C989.085 343.598 953.123 348.37 921.213 363.693C900.753 373.646 879.227 382.65 856.871 387.626C849.832 389.296 842.71 390.594 835.534 391.513C797.104 396.015 765.194 392.247 729.657 375.352C706.945 364.57 686.343 355.163 660.431 354.025C651.303 353.481 642.152 353.481 633.025 354.025C584.828 357.603 543.648 345.518 505.573 319.69C494.721 311.894 484.667 303.044 475.56 293.268C455.005 272.25 438.457 246.54 417.713 225.545C407.448 215.166 395.642 205.521 383.527 199.953C367.477 192.56 350.598 191.327 334.405 200.095C322.741 206.422 312.571 216.967 303.372 228.009C291.637 242.227 280.044 259.975 267.361 272.582C246.237 293.553 224.426 315.448 202.781 334.855C178.837 356.324 144.674 388.432 108.805 368.172C93.0759 367.595 77.6996 363.351 63.903 355.779C54.42 350.684 41.8313 350.589 23.458 354.286C-54.6107 369.973 -118.241 402.958 -200.198 381.821" stroke="#65BDEA" stroke-width="0.5" stroke-miterlimit="10"/>
<path d="M1801.57 407.484C1772.48 406.056 1743.58 401.955 1715.25 395.233C1690.95 389.38 1666.34 381.157 1641.64 376.608C1634.4 375.248 1627.07 374.455 1619.71 374.238C1586.87 373.48 1553.11 373.859 1522.51 387.84C1510.49 393.313 1497.8 399.688 1484.57 405.256C1459.68 415.617 1433.08 421.288 1406.13 421.986C1392.47 422.554 1378.44 420.73 1366.68 419.924C1356.81 419.237 1348.07 419 1339.15 419.142C1326.52 419.379 1315.44 418.668 1300.01 420.137C1290.56 420.88 1281.18 422.466 1272.01 424.877C1236.45 434.663 1204.19 438.502 1172.18 425.73C1151.84 417.626 1129.7 404.166 1108.38 394.522C1080.17 381.75 1053.31 359.262 1023.94 353.907C990.178 347.746 954.806 350.755 921.71 367.556C901.488 377.816 880.08 386.963 857.7 391.892C850.661 393.542 843.539 394.816 836.364 395.707C798.1 399.996 766.119 396.015 730.842 379.119C708.415 368.409 687.694 358.812 662.09 356.608C653.095 355.704 644.056 355.3 635.016 355.4C587.34 356.466 546.611 342.698 509.13 316.822C498.376 309.044 488.34 300.32 479.14 290.756C458.49 270.046 441.848 244.573 421.104 223.767C410.815 213.46 399.008 203.934 386.917 198.484C370.891 191.256 354.035 190.095 337.843 198.341C325.989 204.337 315.676 214.289 306.288 224.597C294.316 237.796 282.367 254.738 269.471 267.25C248.134 287.865 226.513 309.358 205.294 329.429C182.156 351.276 150.222 384.972 113.855 368.812C98.1244 370.338 82.2652 367.809 67.7911 361.466C58.3081 357.295 45.506 358.361 26.6823 363.006C-52.3584 382.555 -116.938 414.687 -200.459 392.034" stroke="#65BDEA" stroke-width="0.5" stroke-miterlimit="10"/>
<path d="M1799.38 405.73C1770.48 403.979 1741.77 399.786 1713.56 393.195C1689.14 387.366 1664.35 379.57 1639.5 375.186C1632.27 373.881 1624.94 373.128 1617.6 372.935C1584.81 372.224 1551.21 372.816 1520.4 386.371C1508.21 391.726 1495.43 397.887 1482.27 403.384C1457.35 413.453 1430.89 419.183 1404.04 420.327C1390.36 421.109 1376.47 419.83 1364.95 419.593C1355.25 419.379 1346.81 419.593 1338.06 420.256C1325.88 421.038 1314.97 420.872 1299.58 422.626C1290.19 423.626 1280.89 425.385 1271.77 427.886C1236.43 437.957 1204.02 441.749 1171.9 429.332C1151.48 421.441 1129.36 408.242 1108.1 398.527C1079.98 385.778 1053.17 363.646 1024.01 358.03C990.343 351.561 955.043 354.333 922.232 371.679C902.247 382.247 880.957 391.608 858.648 396.465C851.608 398.08 844.485 399.314 837.312 400.162C799.214 404.261 767.185 400.162 732.145 383.29C709.979 372.698 689.14 362.864 664.081 359.594C655.262 358.457 646.348 357.367 637.339 357.224C590.232 355.779 549.93 340.376 512.994 314.429C502.319 306.614 492.297 297.944 483.027 288.506C462.283 268.103 445.522 242.843 424.778 222.156C414.441 211.896 402.659 202.488 390.592 197.18C374.589 190.072 357.781 189.005 341.565 196.73C329.711 202.417 319.09 211.73 309.512 221.351C297.303 233.625 284.951 249.786 271.865 261.895C250.172 282.107 228.907 303.245 208.092 324.002C185.593 346.395 155.935 381.347 119.189 369.428C103.52 372.99 87.1727 372.17 71.9396 367.058C62.4567 363.788 49.465 366.063 30.1908 371.797C-49.7745 395.114 -115.349 426.299 -200.436 402.294" stroke="#65BDEA" stroke-width="0.5" stroke-miterlimit="10"/>
<path d="M1797.23 404.143C1768.49 402.007 1739.96 397.706 1711.88 391.276C1687.34 385.494 1662.38 378.077 1637.39 373.883C1630.16 372.632 1622.85 371.919 1615.51 371.75C1582.75 371.11 1549.29 371.868 1518.31 384.996C1505.98 390.233 1493.08 396.252 1479.9 401.583C1454.98 411.37 1428.66 417.16 1401.93 418.739C1388.23 419.758 1374.48 419 1363.21 419.332C1353.73 419.616 1345.55 420.422 1336.99 421.417C1325.14 422.791 1314.5 423.147 1299.06 425.327C1289.74 426.537 1280.51 428.43 1271.47 430.99C1236.21 441.346 1203.78 445.208 1171.54 433.028C1151.08 425.374 1128.87 412.413 1107.74 402.768C1079.72 390.043 1052.93 368.243 1023.98 362.485C990.462 355.708 955.233 358.243 922.682 376.157C902.934 387.01 881.763 396.584 859.455 401.347C852.413 402.934 845.29 404.136 838.118 404.948C800.186 408.858 768.086 404.427 733.283 387.721C711.401 377.2 690.397 367.129 665.812 362.864C657.111 361.347 648.316 359.831 639.402 359.073C592.935 355.115 553.083 338.149 516.621 312.083C506.025 304.237 496.018 295.629 486.678 286.325C465.792 266.207 448.936 241.184 428.216 220.782C417.855 210.592 406.073 201.327 394.029 196.114C378.051 189.242 361.266 188.176 345.026 195.403C333.03 200.735 322.267 209.479 312.476 218.388C300.029 229.715 287.227 244.999 274.022 256.895C252.093 276.681 231.088 297.462 210.652 318.931C188.628 342.035 161.198 377.935 124.286 370.399C108.737 375.898 91.9363 376.827 75.875 373.077C66.5343 370.707 53.2108 374.167 33.4625 380.778C-46.7873 407.602 -114.188 438.905 -200.436 412.839" stroke="#65BDEA" stroke-width="0.5" stroke-miterlimit="10"/>
<path d="M1795.02 402.46C1766.48 399.971 1738.13 395.562 1710.17 389.261C1685.49 383.551 1660.39 376.536 1635.23 372.508C1628 371.372 1620.7 370.692 1613.38 370.47C1580.87 369.262 1546.66 371.134 1516.32 383.551C1503.82 388.669 1490.81 394.546 1477.58 399.782C1452.65 409.299 1426.47 415.157 1399.87 417.175C1386.12 418.408 1372.51 418.194 1361.48 419.095C1352 419.853 1344.32 421.18 1335.95 422.602C1324.6 424.545 1314.02 425.422 1298.71 427.981C1289.45 429.415 1280.3 431.441 1271.3 434.047C1236.17 444.663 1203.73 448.265 1171.35 436.677C1150.82 429.237 1128.68 416.536 1107.55 406.891C1079.65 394.214 1054 374.427 1024.15 366.608C990.027 358.003 953.897 362.901 923.299 380.28C903.811 391.441 882.735 401.228 860.45 405.896C853.931 407.247 846.89 408.408 839.28 409.403C801.348 414.403 767.92 407.815 734.777 391.821C713.156 381.371 692.104 371.063 667.898 365.755C659.269 363.859 650.615 361.916 641.82 360.66C596.041 354.191 556.663 335.708 520.58 309.476C510.074 301.589 500.081 293.041 490.661 283.885C469.704 264.075 452.729 239.288 432.009 219.076C421.625 208.957 409.842 199.787 397.823 194.716C381.867 187.986 365.106 186.991 348.867 193.721C336.752 198.721 325.799 206.848 315.819 215.047C303.111 225.639 289.859 239.999 276.417 251.705C254.211 271.088 233.184 291.78 213.45 313.671C191.994 337.367 166.485 374.333 129.62 371.157C115.656 377.484 97.5675 381.726 80.0477 378.811C70.7543 377.271 57.17 381.963 36.9712 389.569C-44.1083 420.137 -112.955 450.658 -200.625 423.147" stroke="#65BDEA" stroke-width="0.5" stroke-miterlimit="10"/>
<path d="M1792.87 400.754C1764.5 397.913 1736.33 393.411 1708.49 387.271C1683.67 381.584 1658.4 374.973 1633.1 371.11C1625.87 370.041 1618.58 369.4 1611.27 369.191C1578.76 368.077 1544.74 370.091 1514.28 382.105C1501.64 387.082 1488.51 392.816 1475.23 397.934C1450.29 407.17 1424.24 413.097 1397.76 415.564C1383.98 417.034 1370.54 417.342 1359.82 418.811C1350.63 420.067 1343.23 421.891 1334.96 423.763C1324.03 426.133 1313.62 427.673 1298.33 430.611C1289.15 432.227 1280.08 434.379 1271.16 437.057C1236.1 447.957 1203.64 451.606 1171.14 440.256C1150.56 433.147 1128.46 420.612 1107.34 410.967C1079.53 398.29 1053.93 378.906 1024.36 370.826C1007.56 366.355 990.027 365.262 972.793 367.609C955.559 369.956 938.962 375.696 923.963 384.499C904.736 395.944 883.66 405.944 861.494 410.564C854.998 411.891 847.98 412.934 840.347 414C804.608 418.94 768.216 412.664 736.2 396.039C716.001 385.589 692.981 374.973 669.819 368.859C661.284 366.608 652.773 364.12 644.072 362.485C599.028 353.551 560.1 333.528 524.373 307.131C513.979 299.184 504.015 290.688 494.526 281.681C473.45 262.155 456.38 237.583 435.636 217.701C425.229 207.631 413.446 198.579 401.45 193.65C385.952 186.847 368.405 186.379 352.565 192.347C340.332 197.086 329.19 204.574 318.996 212.062C306.099 221.54 292.396 235.189 278.93 246.563C256.428 265.461 235.496 286.153 216.342 308.434C195.432 332.794 171.701 370.779 135.049 371.916C120.825 379.854 102.333 385.991 84.3152 384.546C75.0929 383.811 61.2005 389.712 40.575 398.361C-41.0973 432.554 -111.414 462.34 -200.506 433.502" stroke="#65BDEA" stroke-width="0.5" stroke-miterlimit="10"/>
<path d="M1790.68 399.048C1762.51 395.864 1734.51 391.253 1706.81 385.233C1681.84 379.617 1656.43 373.385 1630.94 369.736C1623.71 368.716 1616.43 368.099 1609.13 367.888C1576.65 366.869 1542.75 369.049 1512.22 380.636C1499.41 385.494 1486.14 391.086 1472.89 396.062C1447.93 405.026 1422.01 411.023 1395.65 413.929C1381.8 415.659 1368.53 416.465 1358 418.526C1348.97 420.256 1341.81 422.602 1333.79 424.901C1323.27 427.934 1313.03 429.924 1297.78 433.218C1289.27 435.042 1280.24 437.057 1270.8 440.066C1235.86 451.251 1203.4 454.853 1170.76 443.858C1150.13 436.915 1128.08 424.687 1106.96 415.067C1079.25 402.389 1053.69 383.385 1024.27 375.02C1007.56 370.343 990.067 369.143 972.875 371.494C955.682 373.846 939.156 379.7 924.318 388.693C905.352 400.541 884.442 410.636 862.205 415.114C855.756 416.417 848.762 417.484 841.105 418.455C805.447 423.127 769.215 416.733 737.314 400.138C717.091 389.735 694.332 378.812 671.573 371.703C663.157 369.072 654.764 366.229 646.158 364.025C601.991 352.675 563.467 331.159 528.024 304.524C517.569 296.657 507.494 287.771 498.153 279.288C476.958 260.094 459.794 235.734 439.05 215.901C428.595 205.924 416.86 196.944 404.887 192.204C389.361 185.639 371.947 185.073 356.026 190.617C343.984 195.261 332.546 201.339 321.959 208.721C308.801 217.299 294.648 230.047 281.063 241.184C258.286 259.616 237.449 280.323 218.879 302.984C198.395 328.173 176.205 367.082 140.123 372.461C125.756 381.939 106.742 389.972 88.2268 390.067C79.052 390.067 64.875 397.176 43.8227 406.915C-38.2051 444.829 -110.276 473.715 -200.744 443.668" stroke="#65BDEA" stroke-width="0.5" stroke-miterlimit="10"/>
<path d="M1788.5 397.318C1760.58 393.527 1732.41 389.309 1705.1 383.101C1680.02 377.508 1654.44 371.703 1628.83 368.219C1621.61 367.257 1614.33 366.672 1607.05 366.466C1574.57 365.542 1540.9 367.864 1510.23 379.072C1497.26 383.811 1483.91 389.238 1470.56 394.096C1445.59 402.783 1419.79 408.843 1393.56 412.176C1379.69 414.142 1366.56 415.493 1356.27 418.1C1347.43 420.469 1340.57 423.195 1332.75 425.943C1321.14 429.819 1309.33 433.078 1297.38 435.706C1288.87 437.744 1279.93 439.9 1270.59 442.981C1235.76 454.426 1203.24 457.98 1170.5 447.341C1149.8 440.611 1127.7 428.645 1106.7 418.905C1079.1 406.275 1053.6 387.65 1024.36 378.978C1007.75 374.072 990.274 372.754 973.107 375.112C955.941 377.469 939.472 383.447 924.793 392.65C906.064 404.64 885.249 415.114 863.153 419.474C856.752 420.754 849.758 421.844 842.077 422.721C806.495 427.115 770.416 420.603 738.618 404.048C717.545 392.869 695.795 383.016 673.493 374.546C665.148 371.537 656.898 368.267 648.411 365.565C605.097 351.822 567.047 328.86 531.818 301.941C521.41 293.979 511.358 285.212 501.946 276.871C480.609 257.914 463.398 233.815 442.678 214.194C432.175 204.266 420.416 195.451 408.468 190.759C392.922 184.42 375.64 183.758 359.654 188.887C347.585 193.148 336 198.668 325.089 205.356C311.717 213.033 297.137 224.976 283.387 235.829C260.275 253.678 239.516 274.379 221.605 297.439C202.426 322.675 180.283 364.855 145.386 372.888C130.806 384.048 111.342 393.74 92.3284 395.423C83.201 396.228 68.7632 404.546 47.2842 415.304C-34.8385 456.44 -109.327 485.539 -200.767 453.691" stroke="#65BDEA" stroke-width="0.5" stroke-miterlimit="10"/>
<path d="M1786.35 395.588C1758.61 391.394 1730.63 387.153 1703.37 381.181C1678.12 375.66 1652.4 370.233 1626.65 366.963C1619.43 366.064 1612.17 365.526 1604.89 365.352C1572.43 364.499 1538.91 366.963 1508.14 377.769C1495 382.366 1481.54 387.65 1468.17 392.389C1443.19 400.793 1417.51 406.923 1391.43 410.706C1377.51 412.934 1364.54 414.806 1354.49 417.981C1346.72 420.686 1339.09 423.786 1331.64 427.27C1320.34 431.845 1308.72 435.599 1296.88 438.502C1288.42 440.73 1279.53 443.052 1270.31 446.156C1235.57 458.004 1203.05 461.393 1170.16 451.108C1149.42 444.616 1127.33 432.886 1106.37 423.265C1078.89 410.659 1053.41 392.46 1024.39 383.456C1007.88 378.36 990.458 376.944 973.345 379.306C956.232 381.668 939.845 387.752 925.338 397.129C906.87 409.379 886.149 420.09 863.983 424.379C857.606 425.611 850.636 426.63 842.931 427.507C807.44 431.631 771.526 425.028 739.827 408.55C719.557 398.219 697.153 386.892 675.295 377.864C667.045 374.475 658.89 370.755 650.521 367.627C608.132 351.513 570.579 327.13 535.492 299.832C525.156 291.823 515.104 283.245 505.644 274.951C484.308 256.35 466.883 232.298 446.139 212.986C435.636 203.128 423.877 194.432 411.953 189.858C396.388 183.747 379.23 182.988 363.186 187.702C351.072 191.594 339.33 196.558 328.099 202.536C314.515 209.313 299.484 220.426 285.592 230.971C262.249 248.421 241.573 269.176 224.213 292.581C204.773 319.145 185.119 361.869 150.53 373.977C135.737 386.75 115.775 398.124 96.3112 401.441C87.2313 402.982 72.6037 412.531 50.5794 424.379C-31.8989 468.952 -108.261 497.482 -200.933 464.378" stroke="#65BDEA" stroke-width="0.5" stroke-miterlimit="10"/>
<path d="M1784.21 393.882C1756.66 389.309 1728.9 385.043 1701.78 379.19C1676.39 373.693 1650.53 368.669 1624.61 365.565C1617.5 364.736 1610.39 364.214 1602.87 364.049C1570.42 363.29 1537.06 365.873 1506.19 376.3C1492.89 380.754 1479.33 385.896 1465.89 390.517C1440.91 398.665 1415.33 404.868 1389.39 409.071C1375.45 411.441 1362.65 413.953 1352.83 417.72C1345.25 420.9 1337.84 424.483 1330.64 428.455C1319.69 433.746 1308.26 437.991 1296.5 441.132C1288.09 443.502 1279.24 446.037 1270.14 449.189C1235.5 461.203 1202.95 464.662 1169.95 454.734C1149.16 448.502 1127.04 437.009 1106.15 427.388C1078.77 414.782 1053.31 396.915 1024.51 387.674C1008.11 382.368 990.721 380.842 973.649 383.21C956.577 385.578 940.263 391.778 925.93 401.346C907.699 413.882 887.074 424.782 864.931 428.976C858.601 430.185 851.655 431.18 843.926 432.033C808.513 435.857 772.76 429.112 741.178 412.649C720.861 402.365 698.742 390.707 677.168 380.778C669.013 377.034 660.976 372.911 652.725 369.262C611.308 350.873 574.277 325.045 539.261 297.368C528.996 289.264 518.517 280.78 509.438 272.629C488.931 254.312 469.775 230.663 449.718 211.398C439.936 201.611 428.319 193.849 415.532 188.555C399.94 182.691 382.901 181.862 366.813 186.185C354.653 189.721 342.768 194.14 331.252 199.408C317.431 205.284 301.95 215.569 287.938 225.853C264.331 242.863 243.724 263.684 226.963 287.463C206.764 316.419 186.66 354.073 155.84 374.807C139.719 385.66 120.279 402.199 100.46 407.176C91.4273 409.545 76.3967 420.185 54.0643 433.241C-28.7222 481.25 -106.744 509.069 -200.957 474.947" stroke="#65BDEA" stroke-width="0.5" stroke-miterlimit="10"/>
<path d="M1781.98 392.081C1754.67 387.081 1727.08 382.84 1700.03 377.082C1674.49 371.631 1648.51 367.034 1622.43 364.096C1615.42 363.322 1608.18 362.848 1600.72 362.674C1568.28 362.035 1535.09 364.76 1504.11 374.759C1490.67 379.119 1476.99 384.096 1463.52 388.551C1438.68 396.844 1412.88 402.318 1387.28 407.365C1373.27 410.114 1360.65 413.029 1351.08 417.341C1343.68 421.024 1336.49 425.097 1329.53 429.545C1318.95 435.561 1307.71 440.332 1296.03 443.763C1287.64 446.393 1278.89 448.999 1269.95 452.222C1235.43 464.52 1202.81 467.885 1169.71 458.336C1148.88 452.317 1126.76 441.109 1105.94 431.464C1078.65 418.882 1053.22 401.394 1024.62 391.868C991.861 380.944 954.498 385.588 926.499 405.517C908.553 418.313 887.999 429.474 865.88 433.573C859.597 434.734 852.651 435.706 844.922 436.512C807.796 440.327 773.8 432.554 742.506 416.773C722.117 406.512 700.188 394.593 679.112 383.74C671.075 379.593 663.133 375.067 655.025 370.921C614.604 350.305 578.118 323.102 543.102 294.951C532.908 286.776 522.429 278.363 513.302 270.378C492.7 252.345 473.45 228.933 453.369 209.834C443.128 200.095 431.061 191.636 419.183 187.299C403.573 181.661 386.654 180.714 370.512 184.574C358.265 187.763 346.21 191.647 334.405 196.209C320.347 201.161 304.415 210.592 290.286 220.64C266.419 237.219 245.867 258.115 229.689 282.25C209.419 312.486 191.022 351.205 161.08 375.518C143.584 389.735 125.4 405.209 104.538 412.768C95.8844 415.896 80.2138 427.673 57.4784 441.748C-25.4978 493.098 -105.463 520.514 -200.933 485.136" stroke="#65BDEA" stroke-width="0.5" stroke-miterlimit="10"/>
<path d="M1779.8 390.328C1752.71 384.901 1725.28 380.683 1698.34 375.02C1672.55 369.574 1646.49 365.454 1620.28 362.674C1613.28 361.94 1606.05 361.49 1598.63 361.371C1566.2 360.802 1533.13 363.741 1502.07 373.219C1488.46 377.413 1474.69 382.247 1461.2 386.584C1436.21 394.233 1410.83 400.561 1385.17 405.541C1371.11 408.479 1358.69 412.01 1349.32 416.915C1341.17 421.18 1335.45 425.943 1328.46 430.564C1318.26 437.245 1307.2 442.5 1295.58 446.18C1287.23 448.999 1278.53 451.772 1269.5 455.018C1235.1 467.601 1202.48 470.918 1169.24 461.748C1148.35 455.966 1126.24 444.971 1105.44 435.35C1078.3 422.791 1052.88 405.659 1024.51 395.849C991.861 384.546 954.498 389.119 926.832 409.498C909.146 422.531 888.686 433.929 866.591 437.933C860.332 439.047 853.41 440.019 845.657 440.777C808.674 444.426 774.891 436.369 743.573 420.682C723.137 410.422 701.397 398.195 680.772 386.489C672.83 381.963 665.006 377.011 657.064 372.271C617.639 349.476 581.769 320.874 546.682 292.202C536.583 283.956 526.104 275.615 516.906 267.819C496.233 250.07 476.887 226.872 456.783 207.962C446.494 198.294 434.451 189.953 422.597 185.735C406.969 180.309 390.152 179.268 373.973 182.726C361.029 185.38 348.772 189.479 337.345 192.749C323.121 196.801 307.592 205.569 292.301 215.166C267.581 230.506 246.932 251.584 232.108 276.61C212.715 310.33 195.361 348.931 166.035 375.802C148.444 391.915 129.834 408.55 108.307 417.91C99.6542 421.701 83.7701 434.734 60.6079 449.924C-22.3683 504.425 -104.704 532.078 -201.383 494.946" stroke="#65BDEA" stroke-width="0.5" stroke-miterlimit="10"/>
<path d="M1777.62 388.55C1750.76 382.721 1723.5 378.48 1696.66 372.935C1670.58 367.579 1644.5 364.001 1618.14 361.252C1611.17 360.518 1603.92 360.139 1596.5 360.044C1564.09 359.594 1531.18 362.579 1500.05 371.774C1486.28 375.849 1472.39 380.541 1458.85 384.759C1434.1 392.46 1408.35 398.171 1382.99 404.024C1368.95 407.271 1356.62 411.299 1347.43 416.773C1339.46 421.512 1333.98 426.772 1327.23 431.867C1317.45 439.238 1306.56 445.006 1294.96 448.952C1286.66 451.961 1278.03 454.9 1269.21 458.194C1234.93 471.061 1202.22 474.307 1168.91 465.492C1147.97 459.947 1125.83 449.189 1105.11 439.592C1078.11 427.057 1052.69 410.256 1024.51 400.162C991.956 388.503 954.569 393.053 927.306 413.811C909.881 427.08 889.516 438.739 867.444 442.649C861.209 443.739 854.287 444.687 846.534 445.398C809.717 448.833 776.076 440.516 744.805 424.924C724.322 414.711 702.725 402.128 682.597 389.569C674.75 384.664 667.021 379.309 659.174 374.214C620.721 349.286 585.539 319.334 550.333 290.069C540.305 281.728 529.803 273.482 520.58 265.828C499.813 248.388 480.278 225.426 460.245 206.588C449.908 197.109 437.889 188.768 426.035 184.669C410.388 179.454 393.667 178.32 377.458 181.375C364.395 183.745 351.973 187.228 340.356 189.787C325.847 192.962 310.011 200.901 294.601 210.213C269.568 224.996 248.929 246.181 234.81 271.586C215.844 306.823 199.818 347.532 171.274 376.655C153.707 394.569 134.504 412.413 112.385 423.644C103.684 428.052 87.5396 442.317 64.0217 458.644C-18.9544 516.344 -103.448 543.642 -201.502 505.538" stroke="#65BDEA" stroke-width="0.5" stroke-miterlimit="10"/>
<path d="M1775.46 386.773C1748.82 380.541 1721.58 375.992 1694.86 370.897C1668.78 365.897 1642.42 362.39 1615.91 359.831C1608.8 359.144 1601.69 358.812 1594.29 358.741C1561.93 358.385 1529.12 361.49 1497.92 370.305C1483.98 374.238 1469.99 378.764 1456.41 382.863C1431.66 390.328 1405.96 395.991 1380.88 402.389C1366.91 405.944 1354.66 410.446 1345.74 416.488C1337.97 421.773 1332.75 427.507 1326.23 433.076C1316.89 441.099 1306.17 447.376 1294.61 451.606C1286.31 454.852 1277.75 457.933 1269.05 461.274C1234.86 474.425 1202.12 477.601 1168.69 469.141C1147.71 463.833 1125.59 453.336 1104.92 443.715C1077.99 431.204 1052.62 414.782 1024.67 404.403C992.217 392.366 954.83 396.844 927.898 418.029C910.734 431.535 890.464 443.478 868.392 447.27C862.228 448.336 855.306 449.236 847.53 449.924C810.878 453.17 777.356 444.568 746.157 429.095C724.813 418.312 704.22 406.105 684.517 392.555C676.765 387.271 669.131 381.489 661.402 375.968C623.945 348.978 589.379 317.557 554.126 287.771C544.216 279.406 533.975 271.326 524.397 263.719C502.918 246.634 483.952 223.744 463.848 205.261C453.464 195.782 441.468 187.607 429.638 183.626C413.968 178.634 397.34 177.416 381.109 180.072C367.928 181.991 355.315 185.024 343.485 186.849C328.739 189.219 312.666 196.327 296.924 205.284C271.96 219.644 250.338 241.066 237.536 266.61C219.092 303.387 204.346 346.277 176.537 377.556C159.041 397.176 139.15 416.251 116.486 429.355C107.738 434.426 91.3799 449.924 67.4591 467.388C-15.8727 528.287 -102.002 555.277 -201.479 516.036" stroke="#65BDEA" stroke-width="0.5" stroke-miterlimit="10"/>
<path d="M1773.28 384.949C1746.9 378.314 1719.73 373.74 1693.27 368.788C1666.81 363.835 1640.57 360.731 1613.87 358.362C1606.76 357.746 1599.65 357.438 1592.28 357.367C1559.81 356.809 1527.41 360.651 1495.98 368.788C1481.75 372.579 1467.76 376.94 1454.16 380.897C1429.41 388.124 1403.73 393.764 1378.86 400.683C1364.95 404.546 1352.78 409.545 1344.11 416.18C1336.52 421.962 1331.52 428.171 1325.26 434.213C1316.36 442.884 1305.82 449.684 1294.25 454.213C1286 457.625 1277.51 460.848 1268.91 464.236C1234.86 477.672 1201.98 480.824 1168.51 472.719C1147.5 467.648 1125.33 457.388 1104.73 447.767C1077.92 435.279 1052.58 419.332 1024.84 408.55C992.525 396.133 955.091 400.565 928.515 422.152C911.611 435.919 891.436 448.075 869.388 451.772C863.248 452.815 856.349 453.691 848.549 454.355C812.063 457.388 778.66 448.526 747.532 433.147C726.145 422.382 705.742 409.767 686.556 395.446C678.899 389.783 671.383 383.598 663.773 377.532C627.287 348.528 593.338 315.614 558.038 285.306C548.27 276.894 537.981 268.909 528.332 261.397C506.782 244.644 487.698 221.919 467.594 203.649C457.186 194.171 445.19 186.162 433.384 182.323C417.696 177.531 401.152 176.213 384.902 178.461C371.602 180.048 358.824 182.536 346.757 183.674C331.797 185.072 315.273 191.375 299.342 200.071C274.093 213.91 252.425 235.616 240.358 261.35C222.387 299.737 209.182 345.992 181.895 378.148C164.068 399.632 143.487 418.674 120.682 434.782C112.266 440.587 95.2917 457.175 70.8967 475.824C-12.2929 539.661 -100.935 567.054 -201.526 526.273" stroke="#65BDEA" stroke-width="0.5" stroke-miterlimit="10"/>
<path d="M1771.1 383.148C1745.02 376.039 1717.83 371.489 1691.56 366.561C1665.14 361.962 1638.5 358.704 1611.74 356.798C1604.63 356.229 1597.52 355.945 1590.17 355.921C1557.74 355.563 1525.41 359.337 1493.94 367.153C1479.71 370.802 1465.49 374.996 1451.83 378.859C1427.06 385.826 1401.38 391.441 1376.78 398.858C1362.91 403.053 1350.84 408.55 1342.38 415.754C1334.98 422.057 1330.19 428.763 1324.19 435.256C1315.75 444.513 1305.38 451.795 1293.8 456.582C1285.57 460.232 1277.2 463.691 1268.67 467.032C1234.72 480.752 1201.81 483.785 1168.22 476.084C1147.17 471.345 1125 461.25 1104.45 451.63C1077.73 439.166 1052.29 423.431 1024.91 412.507C992.714 399.711 955.233 404.095 929.036 426.085C912.441 440.066 892.313 452.507 870.289 456.085C864.196 457.08 857.297 457.957 849.498 458.454C813.154 461.298 779.869 452.175 748.812 436.891C727.327 426.124 707.053 413.096 688.334 398.029C680.795 391.963 673.375 385.352 665.907 378.835C630.346 347.864 597.155 313.434 561.594 282.581C551.969 274.169 541.609 266.231 531.912 258.885C510.244 242.416 491.112 219.929 470.937 201.825C460.506 192.346 448.533 184.527 436.751 180.783C421.04 176.209 404.575 174.807 388.316 176.66C374.898 177.892 361.906 179.835 349.649 180.261C334.477 180.783 317.597 186.28 301.499 194.669C275.943 207.962 254.227 229.81 242.894 255.876C225.446 295.97 213.758 344.476 186.969 378.527C168.975 401.37 147.851 421.014 124.594 439.971C107.406 453.999 91.1666 469.994 74.2395 483.999C-6.91121 551.343 -99.631 578.144 -201.668 536.273" stroke="#65BDEA" stroke-width="0.5" stroke-miterlimit="10"/>
<path d="M1771.1 373.148C1745.02 366.039 1717.83 361.489 1691.56 356.561C1665.14 351.962 1638.5 348.704 1611.74 346.798C1604.63 346.229 1597.52 345.945 1590.17 345.921C1557.74 345.563 1525.41 349.337 1493.94 357.153C1479.71 360.802 1465.49 364.996 1451.83 368.859C1427.06 375.826 1401.38 381.441 1376.78 388.858C1362.91 393.053 1350.84 398.55 1342.38 405.754C1334.98 412.057 1330.19 418.763 1324.19 425.256C1315.75 434.513 1305.38 441.795 1293.8 446.582C1285.57 450.232 1277.2 453.691 1268.67 457.032C1234.72 470.752 1201.81 473.785 1168.22 466.084C1147.17 461.345 1125 451.25 1104.45 441.63C1077.73 429.166 1052.29 413.431 1024.91 402.507C992.714 389.711 955.233 394.095 929.036 416.085C912.441 430.066 892.313 442.507 870.289 446.085C864.196 447.08 857.297 447.957 849.498 448.454C813.154 451.298 779.869 442.175 748.812 426.891C727.327 416.124 707.053 403.096 688.334 388.029C680.795 381.963 673.375 375.352 665.907 368.835C630.346 337.864 597.155 303.434 561.594 272.581C551.969 264.169 541.609 256.231 531.912 248.885C510.244 232.416 491.112 209.929 470.937 191.825C460.506 182.346 448.533 174.527 436.751 170.783C421.04 166.209 404.575 164.807 388.316 166.66C374.898 167.892 361.906 169.835 349.649 170.261C334.477 170.783 317.597 176.28 301.499 184.669C275.943 197.962 254.227 219.81 242.894 245.876C225.446 285.97 213.758 334.476 186.969 368.527C168.975 391.37 147.851 411.014 124.594 429.971C107.406 443.999 91.1666 459.994 74.2395 473.999C-6.91121 541.343 -99.631 568.144 -201.668 526.273" stroke="#65BDEA" stroke-width="0.5" stroke-miterlimit="10"/>
<path d="M1768.92 381.323C1743.06 373.859 1715.96 369.238 1689.88 364.57C1663.3 360.134 1636.51 357.089 1609.61 355.447C1602.49 354.949 1595.38 354.689 1588.06 354.689C1555.68 354.526 1523.41 358.241 1491.92 365.755C1477.48 369.262 1463.17 373.314 1449.49 377.034C1424.74 383.74 1399.04 389.356 1374.67 397.294C1360.87 401.797 1348.87 407.768 1340.62 415.564C1333.51 422.389 1328.77 429.592 1323.1 436.559C1315.17 446.47 1304.96 454.329 1293.35 459.473C1285.17 463.288 1276.75 466.819 1268.43 470.302C1234.58 484.307 1201.65 487.269 1167.94 479.947C1146.84 475.35 1124.36 465.729 1104.16 455.966C1077.97 443.36 1051.51 428.431 1024.96 416.938C993.758 403.408 955.375 408.1 929.558 430.493C913.176 444.71 893.19 457.412 871.166 460.895C865.121 461.843 858.246 462.696 850.398 463.265C814.245 465.918 781.054 456.535 750.069 441.322C728.509 430.552 708.396 417.105 690.207 401.299C682.763 394.854 675.366 387.863 668.088 380.849C633.854 347.959 600.877 312.13 565.458 280.567C555.976 272.131 545.544 264.264 535.8 257.013C514.037 240.829 494.81 218.554 474.611 200.616C464.109 191.28 452.184 183.484 440.425 179.882C424.826 175.143 408.302 174.432 392.038 175.475C378.478 176.351 365.32 177.844 352.873 177.489C337.464 177.133 320.228 181.825 303.894 189.906C277.766 202.652 257.08 224.344 245.597 251.042C228.006 293.268 218.737 341.845 192.208 379.522C174.783 404.237 151.455 426.725 128.672 445.753C111.46 460.137 94.8887 477.838 77.6534 492.79C-3.33137 563.167 -98.1611 589.802 -201.668 546.912" stroke="#65BDEA" stroke-width="0.5" stroke-miterlimit="10"/>
<path d="M1766.76 379.499C1741.14 371.608 1714.11 366.963 1688.2 362.461C1661.5 358.181 1634.59 355.349 1607.59 353.978C1600.53 353.536 1593.35 353.322 1586.07 353.338C1553.74 353.358 1521.51 357.014 1490 364.238C1475.4 367.603 1460.98 371.489 1447.33 375.068C1422.58 381.537 1396.88 387.129 1372.77 395.588C1359.02 400.328 1347.09 406.892 1339.08 415.28C1331.97 422.626 1327.72 430.303 1322.22 437.72C1314.78 448.216 1304.75 456.615 1293.11 462.103C1284.96 466.132 1276.66 469.805 1268.39 473.312C1236.78 487.187 1201.62 490.769 1167.87 483.549C1146.69 479.189 1124.24 469.805 1104.07 460.066C1077.99 447.483 1051.65 432.886 1025.22 421.109C993.971 407.223 955.683 411.891 930.387 434.663C914.29 449.071 894.352 462.056 872.375 465.468C866.377 466.393 859.479 467.222 851.655 467.838C815.643 470.208 782.571 460.729 751.657 445.54C730.022 434.723 710.06 420.844 692.388 404.332C685.062 397.508 677.761 390.115 670.601 382.627C637.268 347.888 605.05 310.424 569.536 278.364C560.066 270.055 550.166 262.248 539.878 254.975C518.091 239.123 498.746 217.062 478.499 199.266C467.95 190.001 456.049 182.299 444.29 178.816C428.714 174.195 412.237 173.532 395.95 174.077C382.295 174.574 368.923 175.475 356.287 174.48C340.64 173.247 323.097 177.134 306.502 184.906C280.15 197.169 259.471 219.017 248.679 245.995C231.586 290.046 223.976 340.542 197.827 380.281C180.449 406.726 156.67 430.493 133.153 451.369C115.538 466.938 99.5117 485.563 81.4704 501.392C-1.50579 574.305 -96.6202 601.792 -201.407 557.386" stroke="#65BDEA" stroke-width="0.5" stroke-miterlimit="10"/>
<path d="M1764.58 377.65C1739.24 369.357 1712.24 364.689 1686.51 360.329C1659.96 355.826 1632.72 354.049 1605.34 352.509C1598.26 352.13 1591.1 351.948 1583.86 351.964C1551.57 352.192 1519.39 355.789 1487.85 362.698C1473.1 365.921 1458.54 369.665 1444.79 373.101C1420.04 379.333 1394.34 384.949 1370.49 393.882C1356.79 399.048 1344.96 406.015 1337.16 414.972C1330.33 422.839 1326.21 431.038 1320.97 438.905C1314.04 449.967 1304.2 458.905 1292.52 464.734C1284.39 468.952 1276.16 472.814 1268.01 476.345C1236.44 490.356 1201.27 494.143 1167.44 487.174C1146.1 483.051 1123.79 473.904 1103.64 464.189C1077.56 451.606 1051.49 437.294 1025.15 425.303C993.923 411.086 955.707 415.659 930.648 438.81C914.812 453.431 895.087 466.7 873.016 469.971C867.041 470.871 860.166 471.677 852.319 472.174C816.426 474.544 783.567 464.52 752.748 449.497C731.014 438.645 711.189 424.336 694.048 407.128C686.936 399.901 679.823 392.081 672.711 384.143C640.066 347.722 609.839 308.529 573.14 275.875C563.692 267.601 553.799 259.848 543.505 252.653C521.6 237.085 502.183 215.237 481.866 197.631C471.269 188.413 459.391 180.854 447.656 177.489C432.104 173.01 415.651 172.347 399.364 172.513C385.59 172.655 372.006 173.058 359.203 171.352C341.881 169.542 324.392 172.448 308.588 179.764C295.392 185.561 283.497 193.953 273.612 204.44C263.728 214.926 256.055 227.294 251.05 240.805C234.455 286.752 228.504 339.097 202.71 380.897C185.356 409.024 160.653 434.118 136.875 456.724C119.189 473.478 102.926 492.956 84.5286 509.733C1.29161 585.703 -95.6482 613.048 -201.834 567.646" stroke="#65BDEA" stroke-width="0.5" stroke-miterlimit="10"/>
<path d="M1762.4 375.778C1737.34 367.082 1710.24 362.414 1684.81 358.196C1658.16 353.788 1630.71 352.343 1603.21 351.087C1596.09 350.755 1588.98 350.589 1581.75 350.66C1549.5 351.069 1517.37 354.608 1485.81 361.229C1470.89 364.262 1456.24 367.864 1442.47 371.181C1417.72 377.153 1391.97 382.721 1368.38 392.223C1354.78 397.697 1342.99 405.162 1335.43 414.711C1328.79 423.076 1324.86 431.796 1319.9 440.137C1313.44 451.714 1303.76 461.165 1292.02 467.34C1283.91 471.748 1275.76 475.729 1267.7 479.331C1234.27 494.235 1201.08 496.961 1167.11 490.752C1145.77 486.866 1123.46 477.956 1103.31 468.241C1077.37 455.706 1051.32 441.654 1025.08 429.45C993.876 414.877 955.707 419.427 931.028 442.933C915.476 457.743 895.775 471.369 873.774 474.473C867.847 475.326 860.948 476.108 853.101 476.558C817.398 478.62 784.539 468.454 753.814 453.502C731.977 442.603 712.284 427.857 695.684 409.972C688.571 402.365 681.459 394.167 674.56 385.754C642.887 347.627 613.514 306.775 576.601 273.506C567.215 265.201 557.317 257.493 546.967 250.426C524.99 235.165 505.502 213.531 485.185 196.09C474.541 186.944 462.687 179.503 450.975 176.233C435.447 171.92 419.018 171.281 402.731 170.996C388.838 170.783 375.088 170.665 362.048 168.248C344.646 165.445 326.805 167.673 310.627 174.669C297.376 180.25 285.455 188.569 275.649 199.081C265.843 209.594 258.373 222.06 253.729 235.663C237.798 283.529 233.412 337.557 207.95 381.513C190.62 411.346 165.016 437.72 140.905 462.08C123.148 479.994 106.624 500.373 87.9426 518.074C4.65825 596.911 -94.1071 624.375 -201.929 577.883" stroke="#65BDEA" stroke-width="0.5" stroke-miterlimit="10"/>
<path d="M1760.22 373.93C1735.47 364.783 1708.49 360.115 1683.12 356.04C1655.95 352.02 1628.54 349.851 1601.07 349.547C1547.07 348.362 1493.06 356.656 1440.12 369.167C1404.77 377.508 1353.66 384.522 1333.68 414.379C1321.44 432.649 1312.91 458.194 1291.57 470.018C1251.08 492.482 1210.78 503.193 1166.82 494.425C1118.72 484.947 1072.35 455.753 1025.24 433.692C993.923 419.024 956.726 423.218 931.644 447.127C909.217 468.454 885.414 479.947 854.121 481.037C796.654 483.075 735.275 456.298 697.651 412.934C650.118 358.148 611.522 289.714 550.855 248.34C518.352 226.208 490.97 184.076 454.65 175.096C428.002 168.508 393.603 170.214 365.249 165.262C319.991 157.324 270.182 185.783 256.431 230.616C241.14 280.378 238.817 338.054 213.165 382.271C195.361 412.958 169.638 441.014 145.006 467.577C50.1764 569.471 -55.4167 653.047 -202 588.428" stroke="#65BDEA" stroke-width="0.5" stroke-miterlimit="10"/>
</svg>
