<svg fill="none" xmlns="http://www.w3.org/2000/svg" viewBox="0 0 1440 612">
  <path d="M1774.3 394.569c-45.04-.711-85.34 21.777-128.78 27.417-47.41 6.406-95.63 3.043-141.7-9.881-32.14-9.266-63.18-24.739-95.56-32.512-14.82-3.554-43.34 1.564-55.78-3.009-10.89-4.028-18.97-19.336-31.08-26.279-27.7-15.805-62.07-20.023-90.97-4.976a339.8328 339.8328 0 0 1-95.19 32.535c-54.83 10.07-106.21 6.895-152.791-22.346-44.309-27.795-85.655-72.842-130.581-102.58-41.085-27.227-87.172-50.781-138.214-53.175-47.273-2.203-89.614 2.749-128.518 26.208-41.18 24.858-77.263 15.474-121.311.119-38.24-13.341-95.281-49.099-130.676-11.517-28.307 30.047-60.004 47.132-101.942 46.469-58.036-.925-101.231-58.103-138.2859-95.449C38.0383 110.263-29.5279 9.6728-114.116 1" stroke="#65BDEA" stroke-width=".5" stroke-miterlimit="10"/>
  <path d="M-116.89 9.3408C-33.3924 17.7767 33.6286 114.244 88.9382 168.105c6.2824 6.137 12.5888 12.464 18.7998 18.72 32.1 32.298 68.515 74.596 117.66 77.084 42.342 2.132 75.058-14.81 103.744-44.715a56.4754 56.4754 0 0 1 24.964-15.734c21.337-5.972 45.044.142 65.385 7.559 12.897 4.739 26.956 10.142 40.801 14.834 6.781 2.369 13.134 4.526 18.729 6.753 23.518 9.313 50.046 19.455 75.674 10.853a148.358 148.358 0 0 0 28.022-13.08 196.8282 196.8282 0 0 1 62.968-23.91 242.5745 242.5745 0 0 1 68.04-2.369 279.1308 279.1308 0 0 1 88.31 23.103 508.4499 508.4499 0 0 1 52.323 27.938 468.3776 468.3776 0 0 1 52.82 37.582c17.235 13.886 34.091 28.791 51.564 42.369 9.649 7.535 19.44 14.644 29.373 21.137 4.22 2.78 8.456 5.339 12.705 7.677a161.1239 161.1239 0 0 0 65.65 19.265c18.37 1.357 36.82 1.064 55.14-.876 7.11-.711 14.23-1.635 21.48-2.702 13.64-1.969 27.16-4.747 40.47-8.317 19.51-5.48 38.36-13.085 56.21-22.677 7.65-4.061 15.85-6.99 24.35-8.697 23.09-4.478 47.2.877 67.71 12.085 12.11 6.635 19.98 21.327 30.82 25.331 12.28 4.479 40.06-.355 54.52 3.176 31.7 7.654 62.14 22.772 93.55 31.776 16.59 4.931 33.59 8.381 50.78 10.308 29.28 2.955 58.78 2.851 88.03-.308 41.99-4.479 82.43-26.99 126.53-26.421" stroke="#65BDEA" stroke-width=".5" stroke-miterlimit="10"/>
  <path d="M-119.64 17.7058C-37.067 26.3312 29.3613 117.775 84.9553 170.759c6.2825 5.995 12.5414 12.18 18.7527 18.294 32.645 32.226 67.756 71.088 115.882 77.865 42.958 5.972 76.599-12.962 105.569-42.913a63.7535 63.7535 0 0 1 25.201-16.446c20.033-6.895 41.417-3.175 64.959 3.721 13.442 3.957 27.429 9.478 41.441 14.478 6.851 2.37 13.276 4.858 18.966 7.251 23.494 9.905 49.785 21.208 76.006 13.839a132.2693 132.2693 0 0 0 28.615-12.275 227.9966 227.9966 0 0 1 64.152-24.004 224.6625 224.6625 0 0 1 69.321-2.37 325.5855 325.5855 0 0 1 89.78 22.654 527.5408 527.5408 0 0 1 53.294 26.231 448.3215 448.3215 0 0 1 54.196 35.947c17.828 13.602 34.968 28.839 52.796 42.369 9.91 7.536 19.843 14.692 29.919 21.327 4.299 2.827 8.595 5.442 12.895 7.843a155.7996 155.7996 0 0 0 66.79 18.767c18.6 1.212 37.26 1.156 55.85-.165 7.11-.522 14.23-1.233 21.65-2.086 13.75-1.529 27.4-3.903 40.87-7.109a242.2077 242.2077 0 0 0 57.27-22.416 96.8227 96.8227 0 0 1 24.47-9.099c23.23-5.024 47.77 0 68.75 10.947 12.02 6.303 19.77 20.569 30.35 24.384 12.11 4.36 39.19-.143 53.46 3.317 31.01 7.535 60.78 22.274 91.53 31.089 16.27 4.824 32.93 8.225 49.79 10.166 28.67 2.95 57.57 2.95 86.25 0 41.2-4.218 81.03-25.876 124.22-25.426" stroke="#65BDEA" stroke-width=".5" stroke-miterlimit="10"/>
  <path d="M-122.367 26.0942C-40.9789 34.4116 25.3546 121.566 80.9961 173.366c6.2587 5.829 12.4938 11.848 18.6577 17.867 32.2182 31.516 66.7842 72.581 114.1512 78.647 42.674 5.474 77.808-10.805 107.371-41.136a70.3239 70.3239 0 0 1 25.462-17.132c19.938-7.631 40.967-5.901 64.532-.119a389.9126 389.9126 0 0 1 42.081 14.218c6.899 2.559 13.371 5.189 19.084 7.748 23.471 10.521 49.62 22.986 76.338 16.825a122.6395 122.6395 0 0 0 29.208-11.256 271.986 271.986 0 0 1 65.361-24.146 194.9112 194.9112 0 0 1 70.601-2.512 431.4271 431.4271 0 0 1 91.203 22.227 539.093 539.093 0 0 1 54.314 24.549 424.8712 424.8712 0 0 1 55.546 34.288c18.397 13.294 35.846 28.862 54.03 42.369 10.147 7.559 20.27 14.763 30.511 21.469 4.313 2.843 8.663 5.505 13.043 7.985 20.87 11.352 44.14 17.62 67.89 18.294 18.76.806 36.92 1.516 56.59.521 7.15-.347 14.43-.829 21.84-1.445 13.86-1.072 27.65-3.011 41.27-5.806 20.4-4.582 40.04-12.05 58.32-22.18 7.76-4.188 16.01-7.373 24.56-9.478 23.43-5.592 48.37-.924 69.75 9.834 11.86 5.971 19.54 19.715 29.94 23.435 11.86 4.242 38.32 0 52.3 3.46 30.35 7.417 59.46 21.753 89.52 30.402 15.89 4.718 32.15 8.063 48.6 10a418.961 418.961 0 0 0 84.43.19c40.46-3.958 79.65-24.739 121.97-24.431" stroke="#65BDEA" stroke-width=".5" stroke-miterlimit="10"/>
  <path d="M-125.117 34.5063c80.2738 8.033 146.4177 90.8507 202.1303 141.4657 6.235 5.687 12.47 11.54 18.5865 17.441 32.0762 30.971 66.0492 71.799 112.3972 79.453 43.005 7.109 79.183-8.768 109.173-39.359a78.8225 78.8225 0 0 1 25.746-17.844c19.867-8.364 40.516-8.625 64.011-3.981 13.821 2.725 28.449 8.152 42.673 13.744 6.946 2.702 13.49 5.521 19.25 8.247 23.542 11.16 49.431 24.762 76.694 19.833 10.368-2.009 20.4-5.472 29.8-10.284a330.0168 330.0168 0 0 1 66.547-24.241 179.3531 179.3531 0 0 1 71.905-2.559c31.128 5.165 62.588 11.492 92.625 21.776a556.0987 556.0987 0 0 1 55.31 22.844 406.9557 406.9557 0 0 1 56.898 32.653c18.966 12.985 36.675 28.862 55.262 42.369 10.431 7.606 20.696 14.81 31.059 21.634 4.36 2.891 8.75 5.592 13.2 8.128 21.01 11.966 45.21 17.156 69.04 17.819 19.15.522 37.39 1.707 57.3 1.209 7.11-.19 14.53-.427 22-.829 13.99-.627 27.92-2.163 41.7-4.597 20.84-4.105 40.88-11.504 59.39-21.919 7.79-4.28 16.07-7.606 24.65-9.905 23.71-6.114 48.96-1.801 70.77 8.72 11.86 5.663 19.35 18.957 29.59 22.511 11.85 4.147 37.41.213 51.11 3.602 29.66 7.322 58.16 21.326 87.53 29.739 15.53 4.486 31.38 7.774 47.41 9.834a377.861 377.861 0 0 0 82.6.45c39.66-3.721 78.24-23.696 119.72-23.46" stroke="#65BDEA" stroke-width=".5" stroke-miterlimit="10"/>
  <path d="M-127.843 42.9185c79.1353 7.796 145.208 86.3725 200.8968 135.6845 6.1877 5.497 12.4466 11.208 18.492 16.99 31.9572 30.426 65.3142 71.088 110.6662 80.282 43.219 8.768 80.606-6.729 110.951-37.605a88.4684 88.4684 0 0 1 26.078-18.531c19.796-9.099 40.066-11.374 63.679-7.867 14.034 2.109 28.757 7.488 43.313 13.388 7.113 2.844 13.632 5.853 19.44 8.768 23.566 11.848 49.264 26.516 77.026 22.819a104.3334 104.3334 0 0 0 30.393-9.289 416.0998 416.0998 0 0 1 67.685-24.288 166.7024 166.7024 0 0 1 73.185-2.607c31.436 5.948 63.346 11.848 94.095 21.327a573.4067 573.4067 0 0 1 56.281 21.137 389.1259 389.1259 0 0 1 58.297 31.018c19.535 12.677 37.553 28.886 56.519 42.369 10.692 7.606 21.096 14.857 31.606 21.8 4.41 2.915 8.84 5.664 13.37 8.27 21.33 12.227 46.01 17.038 70.15 17.322 19.58.261 37.93 1.943 58.03 1.919 7.26 0 14.65 0 22.19-.236 14.1-.175 28.16-1.299 42.11-3.365 22.12-3.507 41.32-11.351 60.43-21.706 7.84-4.346 16.15-7.795 24.77-10.284 23.71-6.635 49.5-2.678 71.76 7.606 11.67 5.379 19.14 18.128 29.24 21.635 11.57 4.028 36.51.379 49.95 3.72 28.97 7.109 56.9 20.758 85.49 29.075 15.21 4.391 30.74 7.622 46.44 9.668 26.82 3.211 53.92 3.442 80.79.688 38.72-3.578 76.89-22.275 117.43-22.464" stroke="#65BDEA" stroke-width=".5" stroke-miterlimit="10"/>
  <path d="M-130.593 51.3542C-52.4771 59.2688 13.1925 133.011 69.071 181.233c6.1877 5.332 12.4228 10.9 18.4208 16.587 31.8632 29.905 64.5792 70.378 108.9122 81.112 43.408 10.497 81.838-4.739 112.776-35.805a100.3666 100.3666 0 0 1 26.292-19.265c19.725-9.81 39.686-12.274 63.251-11.848 14.225.332 29.208 6.825 43.954 13.009 7.112 2.986 13.751 6.185 19.606 9.266 23.708 12.416 49.122 28.435 77.358 25.852a99.5955 99.5955 0 0 0 30.985-8.294 550.9187 550.9187 0 0 1 68.942-24.502 156.8977 156.8977 0 0 1 74.489-2.677c31.697 6.706 64.176 12.18 95.493 20.876a590.7956 590.7956 0 0 1 57.278 19.455 374.9322 374.9322 0 0 1 59.671 29.383c20.104 12.369 38.406 28.909 57.752 42.369 10.952 7.63 21.499 14.905 32.169 21.966 4.46 2.938 8.96 5.758 13.54 8.412 21.55 12.512 46.82 16.896 71.26 16.872 19.99 0 38.34 2.109 58.77 2.559 7.33.142 14.77.308 22.36.379 14.2.254 28.41-.474 42.51-2.18 22.69-3.033 42.24-10.971 61.5-21.492 7.9-4.402 16.25-7.975 24.89-10.664 23.9-7.108 50.07-3.507 72.78 6.541 11.52 5.094 18.97 17.322 28.83 20.734 11.4 3.91 35.56.568 48.81 3.862 28.24 7.109 55.45 20.26 83.48 28.436 14.85 4.312 30.01 7.481 45.35 9.478a365.66 365.66 0 0 0 78.97.948c37.93-3.341 75.48-21.185 115.17-21.493" stroke="#65BDEA" stroke-width=".5" stroke-miterlimit="10"/>
  <path d="M-133.343 59.7664C-56.3888 67.3728 9.1861 136.897 65.112 183.839c6.164 5.166 12.3753 10.593 18.3259 16.09 31.7681 29.407 63.8441 69.714 107.1811 81.941 43.338 12.228 83.166-2.606 114.579-34.027a113.5277 113.5277 0 0 1 26.528-19.976c19.654-10.521 39.355-14.858 62.849-15.616 14.39-.45 29.658 6.137 44.57 12.63 7.112 3.128 13.869 6.517 19.796 9.787 23.707 13.056 49.027 30.117 77.689 28.862a94.8818 94.8818 0 0 0 31.578-7.299c22.949-9.265 46.491-17.582 70.127-24.644a148.3635 148.3635 0 0 1 75.864-2.725c31.981 7.464 65.006 12.512 96.94 20.402 18.966 4.74 38.145 10.64 58.273 17.773a359.7767 359.7767 0 0 1 61.047 27.724c20.625 12.061 39.283 28.957 58.984 42.393 11.217 7.653 21.927 14.952 32.737 22.108 4.51 2.986 9.04 5.853 13.71 8.578 21.83 12.749 47.62 16.729 72.37 16.374 20.42-.284 38.81 2.37 59.53 3.223 7.35.332 14.87.711 22.5.971 14.31.732 28.65.4 42.91-.995a167.617 167.617 0 0 0 62.57-21.326 138.429 138.429 0 0 1 24.98-11.043c24.09-7.677 50.67-4.336 73.81 5.474 11.38 4.739 18.68 16.587 28.45 19.857 11.23 3.815 35.11.522 47.62 3.981 26.79 7.393 54.67 19.502 81.46 27.748 14.48 4.375 29.29 7.546 44.29 9.479 25.6 3.149 51.47 3.546 77.17 1.185 37.22-3.081 74.06-20.071 112.89-20.497" stroke="#65BDEA" stroke-width=".5" stroke-miterlimit="10"/>
  <path d="M-136.093 68.2969C-60.2293 75.6664 5.1558 140.855 61.1055 186.541c6.1402 5 12.3753 10.26 18.2548 15.639 31.7207 28.909 63.1087 69.122 105.4267 82.795 43.646 14.217 84.494-.498 116.38-32.251a130.8686 130.8686 0 0 1 26.814-20.687c19.582-11.255 38.832-19.786 62.397-19.525 14.699.166 30.133 5.45 45.235 12.274 7.112 3.247 13.987 6.848 19.961 10.284 23.85 13.72 48.956 31.943 78.021 31.895a91.0068 91.0068 0 0 0 32.172-6.303c23.517-8.838 47.414-17.274 71.335-24.81 26.648-8.388 51.256-7.961 77.05-2.772 31.365 6.303 65.812 12.843 98.362 19.928 19.369 4.218 38.833 9.479 59.269 16.066a349.5028 349.5028 0 0 1 62.421 26.066c21.171 11.706 40.161 28.957 60.217 42.393 11.479 7.677 22.359 14.999 33.309 22.274 4.55 3.009 9.13 5.924 13.85 8.696 22.16 13.033 48.45 16.588 73.49 15.924 20.84-.568 39.28 2.488 60.24 3.863 7.42.497 15.01 1.09 22.71 1.587 14.41 1.155 28.89 1.211 43.31.166 22.46-2.038 44.12-10.094 63.61-21.066 8-4.561 16.39-8.384 25.08-11.421 26.32-8.863 50.6-3.886 74.85 4.431 10.98 3.744 18.47 15.758 28.07 18.957 11.07 3.72 34.21.711 46.47 4.123 26.07 7.251 53.31 18.957 79.44 27.085 14.12 4.242 28.57 7.324 43.19 9.218 25.01 3.127 50.27 3.612 75.37 1.445 36.49-2.82 72.66-18.957 110.62-19.549" stroke="#65BDEA" stroke-width=".5" stroke-miterlimit="10"/>
  <path d="M-138.82 76.7803C-64.1887 83.8891 1.1966 144.836 57.17 189.195c6.0928 4.739 12.3278 9.952 18.1598 15.213 31.6732 28.435 62.3742 68.576 103.6962 83.624 43.693 15.947 85.774 1.634 118.182-30.45a163.8181 163.8181 0 0 1 27.074-21.327c18.468-11.848 39.591-22.464 61.971-23.459 14.746-.687 30.559 4.739 45.851 11.848 6.895 3.261 13.62 6.867 20.151 10.806 24.205 14.454 49.24 31.753 78.377 34.928 10.194 1.114 20.934-1.185 32.74-5.308 24.063-8.412 48.434-16.967 72.521-24.952 27.193-9.005 52.156-8.555 78.235-2.844 31.602 6.872 66.641 13.175 99.784 19.455 19.701 3.72 39.521 8.483 60.265 14.36a337.6492 337.6492 0 0 1 63.797 24.502c21.692 11.35 41.014 28.956 61.449 42.368 11.857 7.702 22.787 15.071 33.877 22.441 4.5 3.205 9.18 6.156 14.01 8.838 23.07 11.848 47.01 16.588 74.63 15.474 21.34-.853 39.76 2.654 60.98 4.502 7.47.664 15.1 1.469 22.88 2.156a274.825 274.825 0 0 0 43.71 1.304c22.86-1.588 45.05-9.645 64.68-20.853 8.04-4.66 16.48-8.624 25.2-11.848 26.46-9.478 51.14-4.739 75.86 3.365 10.81 3.531 18.26 15.023 27.72 18.151 10.88 3.602 33.31.877 45.3 4.242 25.49 7.109 51.94 18.554 77.43 26.445 13.77 4.157 27.85 7.184 42.1 9.052 24.36 3.288 49.01 3.852 73.5 1.682 36.29-3.223 71.12-17.938 108.34-18.578" stroke="#65BDEA" stroke-width=".5" stroke-miterlimit="10"/>
  <path d="M-141.546 85.2871C-67.6971 92.5144-3.2602 148.722 53.1873 191.92c6.0929 4.739 12.3278 9.644 18.1124 14.762 31.6263 27.986 61.6393 68.032 101.9423 84.501 43.74 17.843 87.054 3.72 119.984-28.672a199.0798 199.0798 0 0 1 27.334-22.133c18.279-12.511 38.952-25.236 61.64-27.392 14.864-1.422 31.009 4.075 46.466 11.516a212.8103 212.8103 0 0 1 20.341 11.327c24.372 15.165 49.288 33.553 78.709 37.914 10.408 1.564 21.337-.451 33.333-4.313 24.632-7.986 49.786-18.08 73.706-25.118 28.236-8.317 50.663-9.218 79.634-2.938 32.621 7.109 67.353 13.506 101.254 18.957 20.009 3.222 40.185 7.416 61.237 12.677a326.7015 326.7015 0 0 1 65.172 22.891c22.214 10.995 41.891 28.98 62.678 42.368 12 7.725 23.19 15.118 34.45 22.583 4.58 3.251 9.32 6.249 14.23 8.98 23.39 12.038 47.67 16.446 75.86 15 21.67-1.09 40.3 2.844 61.64 5.166 7.54.806 15.22 1.801 23.04 2.725 14.62 2 29.38 2.793 44.12 2.37 23.26-1.138 45.76-9.218 65.77-20.64 8.09-4.708 16.54-8.765 25.27-12.132 26.65-9.976 51.73-5.427 76.86 2.369 10.67 3.318 18.04 14.218 27.36 17.322 10.71 3.507 32.19 1.161 44.12 4.36 25.22 6.754 50.64 18.104 75.41 25.805a259.149 259.149 0 0 0 41.04 8.91c23.77 3.266 47.83 3.909 71.74 1.92 35.56-2.939 69.84-16.872 106.06-17.583" stroke="#65BDEA" stroke-width=".5" stroke-miterlimit="10"/>
  <path d="M-144.296 93.8416C-71.5139 100.95-7.2667 152.821 49.2282 194.55c6.0692 4.479 12.2806 9.336 17.9941 14.218 31.6495 27.559 60.8807 67.558 100.2117 85.306 43.693 19.81 88.334 5.853 121.785-26.895a246.199 246.199 0 0 1 27.619-22.843c18.136-13.246 38.335-28.033 61.118-31.35 14.959-2.18 31.46 3.388 47.083 11.137a204.5075 204.5075 0 0 1 20.531 11.848c24.3 15.829 48.908 37.511 79.04 41.042a83.2488 83.2488 0 0 0 33.926-3.318c25.177-7.535 50.71-17.867 74.916-25.284 28.923-8.862 51.16-9.81 80.913-3.009 33.191 7.536 68.088 13.815 102.677 18.483 20.341 2.725 40.896 6.351 62.233 10.995 22.759 4.953 45.992 11.611 66.546 21.327 22.736 10.663 42.674 29.004 64.009 42.392 12.26 7.725 23.71 15.142 34.99 22.725 4.61 3.309 9.4 6.362 14.35 9.146 23.7 12.204 48.34 16.303 76.86 14.526 22.07-1.374 40.7 3.01 62.44 5.782 7.59.972 15.34 2.156 23.21 3.294 14.72 2.438 29.63 3.619 44.55 3.531 23.71-.688 46.54-8.792 66.81-20.45 8.14-4.778 16.63-8.952 25.39-12.488 26.81-10.498 52.29-6.161 77.88 1.351 10.5 3.08 17.8 13.53 26.95 16.587 10.55 3.388 31.32 1.327 42.98 4.478 24.61 6.659 48.96 17.796 73.5 25.189 13.06 3.915 26.41 6.838 39.92 8.744a324.609 324.609 0 0 0 69.94 2.157c34.77-2.631 68.42-15.806 103.81-16.588" stroke="#65BDEA" stroke-width=".5" stroke-miterlimit="10"/>
  <path d="M-147.022 102.419c71.6909 6.754 135.7722 54.502 192.2908 94.785 6.0217 4.289 12.2568 9.005 17.9229 13.862 31.6732 27.132 60.0983 67.108 98.4573 86.231 43.669 21.8 89.59 8.033 123.587-25.095a326.8146 326.8146 0 0 1 27.88-23.577c18.065-14.005 37.742-30.805 60.691-35.308 15.054-2.962 31.91 2.726 47.723 10.759a199.6797 199.6797 0 0 1 20.697 12.369c24.489 16.587 48.885 39.407 79.373 44.122a81.8343 81.8343 0 0 0 34.517-2.37c25.723-7.108 51.54-17.701 76.101-25.449 29.682-9.479 51.707-10.426 82.218-3.128a838.1328 838.1328 0 0 0 104.1 18.009c20.673 2.37 41.582 5.261 63.227 9.289 23.163 4.336 46.941 10.355 67.922 19.668 23.234 10.308 43.622 29.004 65.175 42.368 12.51 7.773 24.01 15.213 35.56 22.915 4.66 3.327 9.5 6.412 14.48 9.241 25.35 13.057 47.96 15.095 78 14.218 22.67-.758 41.18 3.175 63.18 6.398 7.64 1.114 15.44 2.512 23.4 3.839 14.89 2.637 29.94 4.22 45.05 4.739 24.06.616 47.41-8.341 67.87-20.284 8.18-4.864 16.7-9.147 25.49-12.82 26.97-11.018 52.89-6.872 78.89.356 10.34 2.867 17.62 12.819 26.6 15.687 10.36 3.27 30.42 1.469 41.8 4.573 23.92 6.54 47.63 17.346 71.38 24.573 12.72 3.849 25.71 6.725 38.86 8.602 22.56 3.245 45.4 4.04 68.13 2.369 33.79-2.583 67-14.431 101.54-15.687" stroke="#65BDEA" stroke-width=".5" stroke-miterlimit="10"/>
  <path d="M-149.772 110.95c70.1025 6.469 134.8477 49.904 191.0581 89.003 5.998 4.17 12.233 8.673 17.8517 13.412 31.7206 26.729 59.2692 66.728 96.7032 87.131 43.598 23.696 90.799 10.213 125.412-23.317 9.483-9.242 19.701-17.37 28.141-24.289 18.018-14.834 37.126-33.601 60.241-39.312 15.149-3.72 32.384 2.038 48.363 10.403a190.157 190.157 0 0 1 20.886 12.867c24.514 17.298 48.98 41.35 79.705 47.203a78.7526 78.7526 0 0 0 35.11-1.327c25.913-6.896 52.299-17.488 77.287-25.616 30.44-9.929 52.156-11.066 83.521-3.223a661.5268 661.5268 0 0 0 105.546 17.488c20.981 1.754 42.27 4.171 64.2 7.63 23.589 3.673 47.936 9.076 69.321 18.057 23.707 9.952 44.475 29.004 66.376 42.369 12.78 7.796 24.45 15.26 36.13 23.056 4.75 3.151 9.61 6.279 14.66 9.478 23.92 14.645 52.15 15.569 79.11 13.626 23.16-1.683 41.65 3.341 64.01 7.108 7.68 1.28 15.55 2.868 23.56 4.408 14.95 3.01 30.1 4.911 45.33 5.687 24.42 1.043 48.25-7.914 68.94-20.094 8.25-4.927 16.8-9.32 25.61-13.152 27.14-11.54 53.43-7.582 79.89-.616 10.17 2.678 17.4 12.109 26.25 14.881 10.17 3.199 29.51 1.635 40.63 4.74 23.23 6.445 46.25 16.895 69.37 23.956 12.35 3.77 24.98 6.598 37.76 8.46 21.97 3.243 44.23 4.125 66.39 2.63 33.04-2.369 65.57-13.388 99.26-14.715" stroke="#65BDEA" stroke-width=".5" stroke-miterlimit="10"/>
  <path d="M-152.522 119.552c68.9646 6.256 133.6149 45.402 189.8253 83.102 5.998 4.029 12.2331 8.365 17.7806 12.962 31.7917 26.35 58.5341 66.349 94.9481 88.031 43.48 25.876 92.056 12.393 127.215-21.516 9.696-9.478 20.009-17.725 28.449-25.047 18.041-15.663 36.533-36.35 59.837-43.269 15.22-4.502 32.835 1.303 48.98 10a183.773 183.773 0 0 1 21.076 13.388c24.632 18.057 49.027 43.317 80.036 50.307a77.7708 77.7708 0 0 0 35.704-.332c26.41-6.516 53.081-17.298 78.495-25.805 31.175-10.473 52.749-11.706 84.778-3.341a550.2025 550.2025 0 0 0 106.992 16.99c21.337 1.256 42.958 3.105 65.219 5.924 23.968 3.081 48.861 7.844 70.672 16.469 24.063 9.479 45.735 29.028 67.615 42.369 12.87 7.867 24.87 15.308 36.7 23.198 4.74 3.199 9.67 6.375 14.82 9.479 24.25 14.952 53.05 15.402 80.22 13.199 23.71-1.92 42.13 3.483 64.65 7.606 7.75 1.422 15.67 3.199 23.71 4.953 15.84 3.412 31.13 6.445 45.75 6.753 24.76.545 48.91-7.583 69.99-19.928a261.952 261.952 0 0 1 25.7-13.484c27.31-12.061 54.03-8.27 80.94-1.587 9.98 2.488 17.16 11.421 25.84 14.217 10.02 3.105 28.64 1.778 39.47 4.74 22.57 6.326 45.04 16.445 67.35 23.364 12.01 3.671 24.28 6.451 36.7 8.317a308.411 308.411 0 0 0 64.51 2.844c32.22-1.896 64.15-12.369 96.99-13.768" stroke="#65BDEA" stroke-width=".5" stroke-miterlimit="10"/>
  <path d="M-155.249 128.154c67.8271 6.066 132.3825 40.947 188.5929 77.225a201.5204 201.5204 0 0 1 17.6858 12.512c31.9103 26.066 57.7513 66.017 93.2183 88.932 46.182 29.833 92.198 12.487 129.016-19.716 10.052-8.791 20.293-18.127 28.662-25.781 18.065-16.587 35.917-39.146 59.411-47.274 15.267-5.308 33.19.593 49.62 9.479a178.7657 178.7657 0 0 1 21.336 13.933c24.751 18.791 49.075 45.283 80.369 53.364a76.8782 76.8782 0 0 0 36.296.687c26.908-6.137 53.839-17.085 79.681-26.066 31.934-11.019 53.27-12.346 86.082-3.436A474.603 474.603 0 0 0 823.135 278.6c21.645.782 43.645 2.015 66.191 4.242 24.371 2.37 49.383 6.753 72.071 14.881 25.177 9.028 45.823 29.194 68.753 42.369 13.56 7.772 25.27 15.331 37.24 23.341 4.74 3.222 9.77 6.445 14.99 9.668 24.58 15.213 53.86 15.189 81.34 12.725 24.04-2.157 42.67 3.649 65.38 8.222 7.8 1.564 15.79 3.531 23.9 5.474 15.93 3.815 31.36 7.251 46.16 7.796 25.13.924 49.78-7.109 71.12-19.763 8.72-5.142 17.52-9.952 25.82-13.814 25.46-11.849 55.4-10.119 81.93-2.512 10.08 2.891 16.95 10.71 25.49 13.317 9.83 2.986 27.73 1.919 38.31 4.905 21.88 6.208 43.55 16.019 65.33 22.772a249.847 249.847 0 0 0 35.57 8.175c20.74 3.161 41.75 4.193 62.7 3.081 31.46-1.635 62.71-11.374 94.83-12.82" stroke="#65BDEA" stroke-width=".5" stroke-miterlimit="10"/>
  <path d="M-157.999 136.779c68.4672 9.479 129.2769 36.208 187.2891 71.349a163.5464 163.5464 0 0 1 17.5909 12.038c32.0288 25.615 56.898 65.709 91.487 89.856 45.969 32.132 93.455 14.573 130.818-17.938 10.171-8.863 20.317-18.483 28.923-26.516 18.516-17.275 34.661-42.251 58.984-51.302 15.79-5.853 33.736 0 50.236 9.217a174.189 174.189 0 0 1 21.337 14.455c24.893 19.597 49.098 47.392 80.606 56.492a76.064 76.064 0 0 0 36.889 1.658c27.429-5.734 54.527-15.355 80.866-26.184 27.572-11.398 59.695-13.767 87.385-3.531 34.495 12.725 71.478 15.024 109.837 15.948 22.333.521 44.831 1.327 67.211 2.559a277.4679 277.4679 0 0 1 73.493 13.294c25.723 8.72 46.657 29.193 70.107 42.345 13.84 7.796 25.69 15.402 37.93 23.483 4.88 3.27 9.86 6.54 15.12 9.81 24.99 15.497 54.84 14.786 82.48 12.298 21.93-1.991 44.81 3.768 66.12 8.791 7.68 1.825 15.89 3.863 24.09 6.019 16 4.171 32.45 8.886 46.56 8.815 25.38.217 50.33-6.573 72.09-19.62 8.8-5.214 17.62-10.119 25.92-14.218 25.62-12.322 56.02-10.782 82.97-3.46 9.89 2.702 16.74 10.071 25.11 12.583 9.67 2.891 26.86 2.062 37.15 5.024 21.34 6.089 42.22 15.568 63.32 22.155 11.29 3.522 22.83 6.207 34.52 8.033 20.14 3.132 40.54 4.243 60.9 3.318 30.82-1.351 61.26-10.379 92.46-11.848" stroke="#65BDEA" stroke-width=".5" stroke-miterlimit="10"/>
  <path d="M-160.749 145.428c67.3529 8.768 128.3523 32.085 186.1511 65.425a188.3134 188.3134 0 0 1 17.5199 11.611c34.1387 25.26 55.8784 65.236 89.733 90.756 45.731 34.478 94.711 16.588 132.619-16.113 10.337-8.934 20.626-18.957 29.208-27.274 18.61-18.223 33.973-45.023 58.557-55.331 15.884-6.658 34.187-.805 50.853 8.839 7.58 4.411 14.801 9.411 21.598 14.952 25.058 20.403 49.169 49.312 81.055 59.62a75.8935 75.8935 0 0 0 37.482 2.677c27.951-5.379 55.475-15.142 82.075-26.397 27.856-11.848 60.644-14.407 88.642-3.673 34.898 13.365 72.356 15.402 111.307 15.426 22.546 0 45.495-.118 68.183.877 25.224 1.114 51.208 4.242 74.797 11.706 26.078 8.293 47.419 29.217 71.339 42.369 14.22 7.796 26.07 15.426 38.36 23.696 4.93 3.293 9.98 6.587 15.31 9.905 25.3 15.781 55.64 14.62 83.59 11.848 22.22-2.18 45.38 3.933 66.86 9.478 7.7 1.967 16 4.194 24.23 6.54 16.09 4.55 32.74 9.716 46.99 9.81 25.74.577 51.11-6.179 73.16-19.478 8.86-5.26 17.71-10.284 26.07-14.407 25.8-12.796 56.62-11.421 83.98-4.384 9.69 2.37 16.59 9.479 24.72 11.848 9.49 2.82 25.77 2.37 35.99 5.119 20.22 5.592 40.64 15.355 61.31 21.611 10.95 3.372 22.12 6 33.43 7.867 19.54 3.007 39.31 4.197 59.08 3.554 29.96-.829 59.81-9.336 90.08-10.948" stroke="#65BDEA" stroke-width=".5" stroke-miterlimit="10"/>
  <path d="M-163.475 154.077c65.717 5.711 128.447 28.554 184.9182 59.549a180.8314 180.8314 0 0 1 17.4487 11.113c34.6366 24.763 54.859 65.165 87.9551 91.704 45.897 36.8 95.944 18.815 134.445-14.217 10.478-9.029 20.91-19.265 29.468-28.033 18.729-19.218 33.309-47.795 58.107-59.359 15.979-7.44 34.661-1.516 51.517 8.436a165.836 165.836 0 0 1 21.763 15.497c25.201 21.327 49.217 51.35 81.412 62.724a75.613 75.613 0 0 0 37.932 3.673c28.448-4.976 56.305-14.881 83.26-26.587 28.188-12.251 61.639-15.024 89.946-3.792 35.277 13.981 73.114 15.664 112.729 14.882 22.831-.451 46.135-1.233 69.179-.806 25.627.474 52.156 3.009 76.172 10.142 26.671 7.914 48.343 29.217 72.573 42.345 14.41 7.82 26.52 15.474 38.92 23.696 4.98 3.318 10.08 6.659 15.48 10.047 25.66 16.066 56.45 14.408 84.73 11.422 22.48-2.37 45.93 4.099 67.57 9.952 7.75 2.109 16.12 4.526 24.42 7.109 16.17 4.929 32.08 9.478 47.41 10.829 26.34 2.133 51.9-6.113 74.26-19.336 8.96-5.284 17.78-10.474 26.07-14.715 26.08-13.246 57.23-12.038 85-5.284 9.48 2.369 16.31 8.743 24.37 11.089 9.29 2.725 24.89 2.37 34.8 5.237 19.61 5.474 39.31 14.905 59.27 21.019 10.6 3.293 21.41 5.874 32.36 7.725 18.92 3.077 38.09 4.339 57.25 3.767 29.23-.805 58.37-8.388 87.93-9.999" stroke="#65BDEA" stroke-width=".5" stroke-miterlimit="10"/>
  <path d="M-166.226 162.774A488.344 488.344 0 0 1 17.46 216.375a161.3985 161.3985 0 0 1 17.3539 10.686c34.9448 24.265 54.7167 68.933 86.2481 92.629 45.423 34.122 92.648 24.833 136.246-12.512a383.6694 383.6694 0 0 0 29.706-28.791c18.966-20.236 32.693-50.591 57.704-63.411 16.074-8.246 35.111-2.227 52.157 8.057a162.4573 162.4573 0 0 1 21.952 16.019c25.367 22.013 49.241 53.387 81.744 65.851a75.7102 75.7102 0 0 0 38.643 4.74c29.042-4.574 57.135-14.645 84.446-26.801 28.449-12.654 62.635-15.663 91.25-3.933 35.561 14.644 73.873 15.947 114.152 14.359 23.114-.924 46.798-2.369 70.174-2.369 26.078-.19 53.01 1.753 77.547 8.578 27.147 7.535 49.197 29.217 73.797 42.321a443.1765 443.1765 0 0 1 39.48 23.649c5.02 3.365 10.17 6.73 15.62 10.189 26.08 16.327 57.25 14.218 85.87 10.995 22.78-2.583 46.51 4.266 68.3 10.521 7.78 2.228 16.24 4.74 24.58 7.536 16.27 5.284 32.32 10.331 47.8 11.848 26.67 2.512 52.65-5.758 75.27-19.194 9.06-5.355 17.9-10.64 26.24-15 26.08-13.72 57.85-12.63 85.99-6.161 9.29 2.109 16.1 8.104 23.99 10.356 9.15 2.63 24.02 2.559 33.67 5.331 18.96 5.403 37.93 14.479 57.28 20.45 10.23 3.222 20.67 5.771 31.24 7.63 18.33 3.029 36.9 4.362 55.48 3.981 28.45-.545 56.9-7.417 85.63-9.076" stroke="#65BDEA" stroke-width=".5" stroke-miterlimit="10"/>
  <path d="M-168.976 171.47c64.011 5.356 126.1479 19.952 182.548 47.677a152.73 152.73 0 0 1 17.2827 10.213c35.1819 23.696 53.9582 69.074 84.4693 93.576 45.045 36.231 93.621 27.203 138.049-10.711a322.076 322.076 0 0 0 29.99-29.525c18.966-21.327 32.029-53.364 57.277-67.487 16.145-9.028 35.561-2.962 52.749 7.654a174.3654 174.3654 0 0 1 22.143 16.587c26.624 22.986 48.53 55.402 82.076 69.004a77.2527 77.2527 0 0 0 39.235 5.663c29.587-4.194 57.918-14.407 85.655-27.014 28.805-13.104 62.707-18.506 92.46-4.075 35.229 17.037 76.859 16.587 115.574 13.791 23.707-1.73 47.414-3.436 71.122-4.171a309.2818 309.2818 0 0 1 78.922 7.109c27.094 6.327 50.044 29.241 75.034 42.345 13.79 7.261 27.17 15.282 40.07 24.028 5.07 3.389 10.26 6.801 15.79 10.308 26.38 16.587 58.03 14.052 86.95 10.568 23.1-2.772 47.11 4.432 69.06 11.067 7.83 2.369 16.34 5.142 24.75 8.032 16.36 5.664 32.58 11.09 48.2 12.749 27.05 2.867 53.41-5.403 76.36-18.957 9.08-5.426 18-10.829 26.32-15.308 26.31-14.217 58.49-13.175 87.03-7.108 9.1 1.966 15.86 7.487 23.71 9.668 8.96 2.535 23.14 2.677 32.48 5.402 18.32 5.332 36.6 14.052 55.26 19.905 9.88 3.147 19.96 5.64 30.18 7.464 17.69 3.21 35.67 4.615 53.65 4.195 27-.877 55.5-5.522 83.38-8.128" stroke="#65BDEA" stroke-width=".5" stroke-miterlimit="10"/>
  <path d="M-171.654 180.19c63.014 5.214 125.0092 15.664 181.2197 41.753a139.008 139.008 0 0 1 17.2116 9.739c35.419 23.246 53.2232 69.288 82.7387 94.548 44.76 38.317 94.522 29.573 139.874-8.91a278.4386 278.4386 0 0 0 30.251-30.307c19.132-22.346 31.389-56.136 56.898-71.563 16.216-9.81 36.012-3.673 53.389 7.275 7.889 5.08 15.35 10.794 22.309 17.085 26.861 23.862 48.506 57.463 82.407 72.155a77.7578 77.7578 0 0 0 39.829 6.658c30.156-3.791 58.7-14.217 86.84-27.25 29.113-13.531 63.655-19.313 93.811-4.218 35.561 17.748 77.903 16.919 117.044 13.27 23.992-2.251 48.458-5.048 72.141-5.877 27.193-.948 54.528 0 80.298 5.474 27.523 5.924 50.903 29.241 76.293 42.321 14 7.252 27.56 15.323 40.61 24.17 5.1 3.413 10.36 6.872 15.95 10.427 26.72 16.895 58.85 13.862 88.1 10.142 23.35-2.939 47.68 4.597 69.77 11.634 7.87 2.488 16.45 5.427 24.94 8.507 16.43 5.995 32.79 11.848 48.58 13.673 27.43 3.223 54.19-5.047 77.43-18.957 9.15-5.474 18.06-10.995 26.41-15.592 26.48-14.597 59.1-13.72 88.05-7.867 8.91 1.777 15.67 6.848 23.23 8.957 8.8 2.37 22.26 2.82 31.34 5.497 17.69 5.261 35.25 13.65 53.25 19.36 9.52 3.082 19.24 5.528 29.09 7.322 17.09 3.175 34.46 4.651 51.85 4.408 26.31-.593 53.95-5.095 81.08-7.109" stroke="#65BDEA" stroke-width=".5" stroke-miterlimit="10"/>
  <path d="M-174.452 188.934c60.929 4.977 123.943 9.905 180.0112 35.805a144.803 144.803 0 0 1 17.1167 9.289c35.5612 22.677 52.5122 69.525 80.9851 95.496 44.356 40.449 95.446 31.989 141.676-7.109a264.6638 264.6638 0 0 0 30.511-31.042c19.559-23.341 30.18-59.241 56.424-75.686 16.595-10.521 36.462-4.383 54.005 6.872a170.24 170.24 0 0 1 22.499 17.63c27.121 24.739 48.482 59.548 82.739 75.306a78.2601 78.2601 0 0 0 40.303 7.678c30.677-3.389 59.553-13.933 88.049-27.488 29.374-13.957 64.556-20.118 95.091-4.36 35.727 18.436 78.946 17.156 118.537 12.702 24.324-2.749 49.098-6.185 73.138-7.56 27.619-1.563 55.523-1.279 81.672 3.91 27.975 5.545 51.755 29.265 77.525 42.322 14.22 7.236 27.97 15.356 41.18 24.312 5.14 3.436 10.43 6.943 16.12 10.545 27.07 17.179 59.6 13.649 89.21 9.739 23.71-3.152 48.25 4.739 70.51 12.156 7.92 2.63 16.59 5.734 25.1 9.005 16.6 6.326 33.03 12.535 49.01 14.573 27.73 3.578 54.93-4.74 78.47-18.815 9.22-5.521 18.18-11.137 26.53-15.853 26.64-15.047 59.74-14.218 89.07-8.744 8.67 1.635 15.43 6.28 22.85 8.318 8.63 2.369 21.34 2.914 30.16 5.568 17.07 5.19 33.9 13.223 51.23 18.815 9.18 2.968 18.54 5.343 28.02 7.109 16.49 3.128 33.24 4.675 50.02 4.621 25.63-.309 52.47-4.195 78.83-6.304" stroke="#65BDEA" stroke-width=".5" stroke-miterlimit="10"/>
  <path d="M-177.202 197.678c60.169 4.905 122.7098 5.474 178.778 29.857a135.2357 135.2357 0 0 1 17.0457 8.815c35.8457 22.109 51.8245 69.88 79.2541 96.491 43.9302 42.653 96.3472 34.383 143.4542-5.308a239.7887 239.7887 0 0 0 30.819-31.824c19.725-24.454 29.469-61.871 55.997-79.761 16.785-11.351 36.937-5.119 54.528 6.469a170.88 170.88 0 0 1 22.664 18.151c27.382 25.639 48.458 61.61 82.976 78.482a83.885 83.885 0 0 0 41.014 8.672c31.223-1.492 61.829-13.767 89.235-27.7 30.014-15.284 65.504-20.995 96.395-4.55 35.94 19.146 80.012 17.393 119.888 12.132 24.68-3.246 49.786-7.298 74.133-9.217 28.046-2.204 56.377-2.37 82.977 2.369 28.444 5.166 52.584 29.265 78.754 42.298 14.44 7.226 28.39 15.395 41.75 24.454 5.19 3.46 10.53 7.109 16.29 10.664 27.47 17.44 60.38 13.459 90.32 9.312 24-3.317 48.84 4.905 71.13 12.678 7.94 2.772 16.59 6.042 25.27 9.478 16.59 6.682 33.19 13.27 49.4 15.497 28.12 3.887 55.72-4.407 79.54-18.696 9.3-5.592 18.28-11.327 26.65-16.161 26.79-15.45 60.36-14.739 90.09-9.478 8.49 1.493 15.22 5.687 22.47 7.654 8.44 2.369 20.53 3.033 29.02 5.663 16.41 5.095 32.55 12.82 49.22 18.27 8.8 2.949 17.79 5.324 26.91 7.109 15.91 2.926 32.04 4.511 48.22 4.739 25.32.403 51.04-3.27 76.57-5.379" stroke="#65BDEA" stroke-width=".5" stroke-miterlimit="10"/>
  <path d="M-179.928 206.469c59.458 4.739 121.4532 1.043 177.545 23.886a124.9267 124.9267 0 0 1 16.9508 8.365c36.0354 21.469 51.2556 65.97 77.5235 97.438 40.5157 48.577 103.0797 35.545 145.2557-3.483a279.9778 279.9778 0 0 0 31.033-32.606c19.938-25.616 28.828-64.619 55.57-83.884 16.904-12.156 37.411-5.83 55.286 6.066a169.1111 169.1111 0 0 1 22.854 18.696c27.643 26.564 48.434 63.719 83.403 81.657a84.5475 84.5475 0 0 0 41.607 9.668c31.673-.948 62.801-13.554 90.42-27.938 34.186-17.795 65.196-19.383 97.698-4.739 35.941 16.232 81.08 17.606 121.312 11.564 25.011-3.768 50.425-8.436 75.129-10.9 28.449-2.844 57.253-3.673 84.422.805 28.829 4.74 53.439 29.289 79.989 42.298a351.951 351.951 0 0 1 42.32 24.573c5.24 3.507 10.62 7.109 16.43 10.782 27.85 17.724 61.16 13.269 91.46 8.909 24.32-3.507 49.43 5.048 71.98 13.199 7.99 2.915 16.81 6.327 25.43 9.953 16.6 7.108 33.53 13.956 49.79 16.374 28.45 4.217 56.5-4.1 80.61-18.602 9.34-5.616 18.37-11.469 26.74-16.398 26.95-15.876 61-15.213 91.08-10.379 8.3 1.351 15.01 5.119 22.12 7.109 8.27 2.18 19.63 3.128 27.83 5.735 15.79 5.023 31.2 12.416 47.21 17.748a204.46 204.46 0 0 0 25.84 6.919 287.561 287.561 0 0 0 46.42 5.048c24.56.687 49.54-2.37 74.27-4.455" stroke="#65BDEA" stroke-width=".5" stroke-miterlimit="10"/>
  <path d="M-182.678 215.261c60.098 3.341 121.0501-.925 176.3123 17.914a99.5802 99.5802 0 0 1 16.8798 7.891c36.2013 20.852 50.4495 70.235 75.8639 98.434 40.018 44.548 99.168 42.416 146.986-1.659a257.91 257.91 0 0 0 31.199-33.364c20.104-26.824 28.189-67.416 55.144-88.032 16.975-12.985 37.932-6.587 55.902 5.664a169.4213 169.4213 0 0 1 23.044 19.217c27.927 27.512 48.387 65.828 83.735 84.856a85.6756 85.6756 0 0 0 42.199 10.687c32.124-.426 63.702-14.999 91.629-28.198 35.775-16.919 63.679-21.327 98.955-4.882 36.249 16.801 82.194 17.844 122.781 10.996 25.32-4.29 51.066-9.479 76.101-12.583 28.9-3.46 58.131-4.882 85.798-.711 29.229 4.384 54.339 29.312 81.249 42.298 14.86 7.188 29.19 15.44 42.86 24.691 5.29 3.507 10.72 7.109 16.59 10.9 28.22 17.986 61.98 13.104 92.46 8.484 24.64-3.721 50 5.213 72.71 13.72 8.04 3.009 16.93 6.611 25.61 10.402 16.81 7.322 33.76 14.668 50.23 17.251 28.81 4.526 57.19-3.791 81.65-18.507 9.49-5.687 18.47-11.635 26.84-16.587 27.12-16.256 61.64-15.64 92.1-11.137 8.11 1.184 14.8 4.549 21.77 6.35 8.08 2.109 18.75 3.247 26.67 5.83 15.15 4.928 29.85 12.014 45.18 17.203 8.1 2.808 16.37 5.087 24.76 6.824 14.7 2.899 29.61 4.65 44.59 5.237 23.82.948 48.05-1.469 72.02-3.554" stroke="#65BDEA" stroke-width=".5" stroke-miterlimit="10"/>
  <path d="M-185.405 224.076c59.459 2.677 120.0785-5.119 175.0798 11.848a92.671 92.671 0 0 1 16.785 7.44c36.3435 20.189 49.7856 70.804 74.0146 99.524 39.4966 46.61 99.9506 45.023 148.8826.166a236.9984 236.9984 0 0 0 31.579-34.17c20.246-28.009 27.524-70.188 54.717-92.154 17.045-13.815 38.311-7.322 56.518 5.237a168.2852 168.2852 0 0 1 23.233 19.762c28.165 28.436 48.364 67.961 84.067 88.079a87.2762 87.2762 0 0 0 42.674 11.658c32.598 0 64.674-14.857 92.838-28.435 36.296-17.511 64.484-22.061 100.259-5.071 36.557 17.393 83.261 18.057 124.204 10.426 25.675-4.739 51.706-10.71 77.096-14.217 29.326-4.1 59.008-6.066 87.168-2.37 29.66 4.028 55.17 29.312 82.48 42.274a335.676 335.676 0 0 1 43.44 24.834c5.31 3.554 10.81 7.108 16.76 11.018 28.45 18.246 62.77 12.891 93.69 8.081 24.91-3.886 50.59 5.355 73.49 14.217 8.09 3.128 17.05 6.872 25.8 10.83 16.87 7.653 33.97 15.355 50.61 18.103 29.16 4.74 57.97-3.483 82.72-18.412 9.48-5.734 18.56-11.848 26.95-16.919 28.45-17.345 61.78-15.236 93.12-11.848 7.85.806 14.56 3.981 21.34 5.711 7.92 2.038 17.88 3.365 25.51 5.9 14.53 4.74 28.45 11.635 43.17 16.588 7.75 2.743 15.67 4.975 23.71 6.682 14.12 2.869 28.43 4.691 42.81 5.45 23.1 1.232 46.54-.592 69.73-2.63" stroke="#65BDEA" stroke-width=".5" stroke-miterlimit="10"/>
  <path d="M-188.25 232.914c58.937 1.967 119.1069-9.478 173.8474 5.924a87.3402 87.3402 0 0 1 16.7375 6.967c36.4621 19.526 49.0507 71.444 72.2604 100.448 38.9987 48.672 100.6617 47.7 150.6847 1.967a228.3595 228.3595 0 0 0 31.934-34.905c20.649-29.17 26.386-73.055 54.266-96.348 17.496-14.597 38.762-8.057 57.183 4.739a153.2352 153.2352 0 0 1 23.375 20.308c27.051 28.909 48.98 70.425 84.446 91.253a89.413 89.413 0 0 0 43.338 12.678c33.048.9 65.669-14.739 94.023-28.696 36.794-18.128 65.315-22.891 101.563-5.237 36.842 17.938 84.375 18.246 125.65 9.81 26.078-5.308 52.536-11.706 78.092-15.924 29.54-4.739 59.885-7.25 88.55-3.767 30.06 3.649 56.02 29.312 83.71 42.274 15.29 7.15 30 15.494 43.98 24.952 5.38 3.554 10.9 7.251 16.92 11.113 28.95 18.507 65.44 10.45 94.83 7.678 25.2-2.37 48.96 4.739 74.16 14.739 8.13 3.246 17.19 7.109 26.08 11.279 16.95 7.962 34.21 16.019 51.04 18.957 29.47 5.118 58.7-3.199 83.78-18.341 9.49-5.758 18.64-11.848 27.03-17.156 28.45-17.724 62.44-15.639 94.14-12.701 7.66.711 14.37 3.46 21.01 5.119 7.75 1.943 16.99 3.459 24.34 5.971 13.9 4.739 27.2 11.256 41.14 16.208a185.309 185.309 0 0 0 22.61 6.564c13.51 2.838 27.2 4.715 40.97 5.616 22.5 1.207 45.06.637 67.47-1.706" stroke="#65BDEA" stroke-width=".5" stroke-miterlimit="10"/>
  <path d="M-190.905 241.753c58.487 1.351 118.2531-13.578 172.6381 0a79.2935 79.2935 0 0 1 16.5952 6.493c36.5569 18.814 48.9559 68.268 70.5297 101.443 37.932 58.482 106.873 45.26 152.463 3.791a212.1253 212.1253 0 0 0 32.123-35.734c20.816-30.402 25.723-75.827 53.84-100.495 17.591-15.426 39.212-8.815 57.799 4.455a150.75 150.75 0 0 1 23.565 20.853c27.24 29.833 48.956 72.581 84.778 94.476a90.1193 90.1193 0 0 0 43.954 13.673c34.352 1.232 65.148-14.668 95.209-28.981 38.454-18.317 66.12-23.696 102.819-5.426 37.174 18.53 85.584 18.483 127.072 9.241 26.316-5.876 53.224-12.867 79.112-17.606 29.943-5.497 60.715-8.459 89.898-5.308 30.49 3.294 56.9 29.313 84.94 42.251 15.51 7.146 30.42 15.53 44.57 25.07 5.41 3.602 11.01 7.37 17.07 11.256 29.31 18.767 66.39 10.165 95.95 7.274 25.53-2.511 49.43 4.74 74.89 15.213 8.18 3.389 17.31 7.441 26.08 11.849 17.07 8.27 34.45 16.587 51.44 19.738 29.83 5.427 59.46-2.914 84.85-18.246 9.49-5.805 18.68-11.99 27.15-17.393 27.69-17.701 63.7-16.753 95.16-13.435 6.97 1.005 13.87 2.51 20.62 4.502 7.57 1.872 16.13 3.531 23.17 6.043 13.27 4.739 25.84 10.876 39.14 15.71 7.02 2.596 14.2 4.741 21.5 6.422 12.92 2.781 26.01 4.729 39.19 5.829a375.362 375.362 0 0 0 65.17-.829" stroke="#65BDEA" stroke-width=".5" stroke-miterlimit="10"/>
  <path d="M-193.631 250.615c58.154.687 117.1384-17.843 171.3811-6.042a75.0281 75.0281 0 0 1 16.5952 6.019c36.6518 18.08 47.7469 72.534 68.7517 102.462 37.79 53.766 102.558 52.534 154.288 5.616a201.448 201.448 0 0 0 32.385-36.516c21.028-31.706 25.058-78.6 53.412-104.69 17.686-16.255 39.663-9.478 58.416 4.029a167.1078 167.1078 0 0 1 23.707 21.326c29.137 31.279 48.055 74.43 85.11 97.699a92.1746 92.1746 0 0 0 44.546 14.692c34.945 1.777 66.026-14.526 96.395-29.241 39.046-18.957 66.926-24.573 104.123-5.616s86.722 18.625 128.518 8.625c26.624-6.398 53.84-14.004 80.084-19.288 30.369-6.114 61.64-9.621 91.299-6.801 30.82 2.915 57.68 29.288 86.15 42.226a310.3617 310.3617 0 0 1 45.05 25.19c5.47 3.625 11.09 7.416 17.25 11.374 29.69 18.957 65.03 12.511 97.06 6.872 26.29-4.74 51.73 5.971 75.63 15.686 8.39 3.436 17.43 7.725 26.32 12.18 17.16 8.555 34.68 17.298 51.84 20.521 30.18 5.687 60.22-2.654 85.92-18.175 9.67-5.876 18.8-12.156 27.24-17.63 27.86-18.08 64.34-17.085 96.18-14.217 6.84.807 13.61 2.13 20.25 3.957 7.44 1.627 14.8 3.66 22.02 6.09 12.64 4.62 24.49 10.497 37.1 15.213 6.67 2.538 13.5 4.644 20.44 6.303 12.31 2.794 24.79 4.812 37.36 6.042 20.93 2.003 42 2.003 62.92 0" stroke="#65BDEA" stroke-width=".5" stroke-miterlimit="10"/>
  <path d="M-196.381 259.525c57.941 0 115.9765-22.132 170.1718-12.085a70.6762 70.6762 0 0 1 16.4768 5.545C27.014 270.33 37.3033 326.443 57.3124 356.49c37.1496 55.899 103.2456 55.212 156.0896 7.44a193.0802 193.0802 0 0 0 32.646-37.298c21.147-32.961 24.394-81.396 52.986-109.002 17.78-17.109 40.113-10.308 59.055 3.626a169.3608 169.3608 0 0 1 23.945 21.942c29.421 32.251 47.889 76.515 85.347 100.922a93.8223 93.8223 0 0 0 45.044 15.711c35.419 2.369 66.902-14.431 97.603-29.526 39.616-19.502 64.2-24.312 105.404-5.829 43.076 19.312 84.161 19.739 129.941 8.009 26.955-6.895 54.527-15.141 81.079-20.947 30.82-6.73 62.422-10.805 92.648-8.317 31.29 2.559 58.53 29.312 87.43 42.226 15.93 7.101 31.21 15.568 45.66 25.308 5.53 3.649 11.19 7.464 17.43 11.469 30.04 19.288 65.84 12.345 98.17 6.469 26.63-4.74 52.3 6.113 76.36 16.184 8.44 3.531 17.52 7.962 26.51 12.583 17.23 8.862 34.9 17.938 52.16 21.326 30.48 5.948 60.95-2.369 86.95-18.127 9.75-5.901 18.97-12.275 27.36-17.843 27.98-18.46 65.03-17.417 97.2-14.905 6.71.586 13.37 1.711 19.89 3.365 7.07 1.607 14.04 3.665 20.84 6.161 12.02 4.549 23.14 10.141 35.11 14.738 6.31 2.471 12.78 4.537 19.35 6.185 11.72 2.777 23.59 4.85 35.56 6.209 20.13 2.47 40.47 2.795 60.67.971" stroke="#65BDEA" stroke-width=".5" stroke-miterlimit="10"/>
  <path d="M-199.108 268.411c64.745 4.455 127.7835-33.838 185.3215-13.009 35.5612 12.843 47.1067 71.254 65.2904 104.524 47.9839 87.675 151.7281 33.909 190.7981-28.815 21.336-34.17 23.707-84.903 52.583-113.125 28.022-27.464 64.01 4.857 83.782 25.71 29.729 31.208 48.885 82.534 85.774 104.263 48.15 28.246 93.81 12.275 144.615-13.104 40.137-20.094 64.911-25.118 106.684-6.043 44.902 20.521 85.181 18.957 131.363 7.417 57.846-14.359 117.613-35.994 176.097-32.463 32.13 1.943 59.03 29.407 88.67 42.226 22.35 9.692 43.53 23.483 63.8 36.99 29.96 19.976 66.23 11.848 99.31 6.09 27.21-4.739 52.58 5.639 77.09 16.587 26.39 11.848 51.26 28.886 79.33 35.071 42.84 9.478 81.29-12.844 115.48-36.137 27.71-18.957 65.6-17.843 98.22-15.616 32.62 2.227 59.95 21.327 90.51 29.383a270.9136 270.9136 0 0 0 92.15 8.247" stroke="#65BDEA" stroke-width=".5" stroke-miterlimit="10"/>
  <path d="M1825.51 425.066c-30.82 2.346-61.81-.562-91.65-8.601-23.12-6.327-45.54-18.957-68.75-25.308-7.28-1.859-14.72-2.994-22.22-3.388-32.48-2.062-69.79-2.939-98.12 15.45-10.48 6.777-21.91 14.691-34.43 21.492-24.7 13.412-53.1 19.691-81.12 14.478-14.51-2.701-29.16-9.194-43.44-16.184-11.85-5.806-23.54-11.848-34.87-16.256-16.59-6.35-30.16-12.654-45.99-15.118a91.278 91.278 0 0 0-30.28.356c-37.69 6.445-68.18 11.374-99.35-5.522-19.59-10.616-41.8-26.729-63.8-36.515-29.23-12.986-56.66-39.455-88.31-42.085-35.231-2.891-71.693 3.649-107.206 13.365-22.357 6.113-45.282 13.672-68.064 19.596-6.97 1.801-14.225 3.413-21.645 4.74-36.249 7.109-77.785 4.407-109.363-12.678-23.565-12.772-46.704-19.194-75.058-9.668a216.67 216.67 0 0 0-30.82 13.199c-49.193 25.805-96.655 35.852-142.956 8.72-11.545-6.753-21.716-17.511-30.203-28.032-19.44-24.052-34.945-52.132-55.76-75.188-9.934-11.043-21.858-21.943-34.163-28.791-16.334-9.076-33.64-11.161-49.596 3.104-10.621 9.479-18.966 26.516-25.959 44.573-8.298 21.658-15.529 45.567-27.904 64.832-16.429 25.521-41.322 47.866-68.562 63.174-47.842 26.848-92.4591 11.161-119.3196-28.198-12.5176-18.317-21.5975-43.08-33.1905-63.648-8.6295-15.189-19.6772-27.867-33.8306-32.559-60.2407-19.952-126.5273 15.853-188.8063 14.218" stroke="#65BDEA" stroke-width=".5" stroke-miterlimit="10"/>
  <path d="M1823.33 423.526c-30.67 2.013-61.46-1.013-91.16-8.957-23.21-6.279-45.85-18.507-69.17-24.691-7.28-1.819-14.71-2.93-22.19-3.318-32.51-1.967-69.56-2.678-98.06 15.284-10.6 6.659-22.14 14.431-34.73 21.137-24.68 13.152-52.94 19.431-80.89 14.668-14.46-2.37-29.02-8.483-43.05-14.905-11.69-5.355-23.12-10.971-34.21-14.881-16.36-5.734-29.57-11.54-45.38-13.649a95.522 95.522 0 0 0-30.06.758c-37.62 6.706-68.04 11.635-99.4-4.928-19.68-10.379-41.87-26.28-63.8-36.042-29.14-12.962-56.5-39.052-87.96-41.919-35.273-3.223-71.38 3.128-106.68 13.365-22.167 6.421-45.045 14.218-67.685 20.047-6.946 1.777-14.225 3.365-21.621 4.739-36.202 6.848-77.453 4.028-109.055-13.033-23.352-12.654-46.206-19.36-74.465-10.829a208.718 208.718 0 0 0-30.417 11.848c-49.24 23.838-96.062 31.374-141.391 4.36-11.498-6.848-21.645-17.488-30.18-27.867-19.535-23.696-35.158-51.539-55.973-74.429-9.981-10.972-21.882-21.73-34.162-28.436-16.311-8.909-33.57-10.9-49.549 2.82-10.716 9.194-19.345 25.545-26.458 42.867-8.629 20.971-16.263 44.193-28.733 62.794-16.809 25.071-41.464 47.251-68.159 63.08-40.801 24.217-89.6143 19.904-116.7831-21.967-12.3042-18.957-22.6169-39.43-34.4469-58.458-8.8429-14.218-19.9854-25.521-34.4943-29.407-61.9951-16.587-128.2097 18.957-192.3147 15.426" stroke="#65BDEA" stroke-width=".5" stroke-miterlimit="10"/>
  <path d="M1821.15 421.962c-30.53 1.664-61.13-1.47-90.68-9.289-23.31-6.208-46.16-18.08-69.61-24.099-7.27-1.762-14.69-2.833-22.16-3.199-32.53-1.943-69.32-2.369-97.99 15.095-10.74 6.564-22.4 14.217-35.04 20.781-24.68 12.891-52.77 19.147-80.6 14.882-14.44-2.228-28.88-7.773-42.68-13.673-11.49-4.882-22.68-9.976-33.54-13.46-16-5.165-29-10.45-44.74-12.203a94.406 94.406 0 0 0-29.87 1.185c-36.27 7.417-68.75 11.469-99.43-4.36-19.75-10.166-41.96-25.805-63.82-35.545-29.04-12.961-56.33-38.672-87.72-41.8-35.321-3.53-71.119 2.654-106.301 13.412-21.929 6.706-44.617 14.739-67.329 20.498-6.899 1.729-14.225 3.53-21.574 4.739-39.686 6.113-71.122 3.981-108.651-13.365-25.296-11.706-45.78-19.478-73.897-12.014a251.1099 251.1099 0 0 0-30.061 10.569c-50.971 20.971-93.62 27.321-139.874 0-11.356-6.706-21.573-17.441-30.156-27.677-19.629-23.412-35.395-51.018-56.163-73.672-10.004-10.924-21.905-21.563-34.162-28.151-16.287-8.744-33.499-10.639-49.501 2.512-10.835 8.886-19.654 24.597-26.979 41.208-8.938 20.307-16.951 42.653-29.54 60.757-17.235 24.667-42.01 48.766-67.756 62.984-43.432 23.98-81.5773 21.326-114.2462-15.758-11.1425-12.677-22.7592-34.762-35.5612-53.269-9.1748-13.222-20.2699-23.199-35.1582-26.303-64.0102-13.293-129.7034 22.156-195.7764 16.588" stroke="#65BDEA" stroke-width=".5" stroke-miterlimit="10"/>
  <path d="M1818.97 420.398a302.9897 302.9897 0 0 1-90.09-9.62c-23.42-6.209-46.47-17.63-70.06-23.507-7.27-1.714-14.68-2.753-22.14-3.104-32.53-1.896-69.06-2.18-97.91 14.928-10.88 6.446-22.64 13.934-35.35 20.427-24.68 12.63-52.61 18.956-80.39 15.047-14.39-1.967-28.71-7.109-42.32-12.37-11.31-4.455-22.26-8.981-32.88-12.085-15.65-4.55-28.45-9.336-44.12-10.734-9.91-.963-19.91-.428-29.66 1.587-36.22 7.678-68.58 11.849-99.57-3.767-19.82-9.929-42.01-25.355-63.82-35.071-28.95-12.914-56.21-38.269-87.24-41.657-35.305-3.839-70.866 2.203-105.858 13.459-21.717 6.99-44.333 15.284-66.95 20.924-6.876 1.706-14.225 3.459-21.55 4.549-39.521 5.924-71.004 3.602-108.296-13.72-24.964-11.563-45.376-19.573-73.327-13.175a248.9172 248.9172 0 0 0-29.635 9.242c-50.876 18.791-92.98 22.914-138.309-4.36-11.308-6.801-21.503-17.393-30.132-27.488-19.749-23.104-35.561-50.496-56.377-72.937-10.028-10.829-21.929-21.326-34.162-27.795-16.263-8.578-33.404-10.379-49.454 2.204-10.929 8.554-19.677 23.482-27.477 39.525-10.076 20.663-19.227 44.193-30.369 58.743a285.4082 285.4082 0 0 1-67.448 62.913c-40.872 27.274-81.151 21.611-111.7096-9.479-11.1425-11.374-23.7075-30.805-36.794-48.103-9.2696-12.18-20.4832-20.829-35.7983-23.175-66.6417-10.26-131.2681 31.824-199.1431 17.938" stroke="#65BDEA" stroke-width=".5" stroke-miterlimit="10"/>
  <path d="M1816.81 418.834a316.039 316.039 0 0 1-89.71-9.976c-23.52-6.137-46.8-17.179-70.51-22.89-7.26-1.661-14.67-2.676-22.11-3.033-32.51-1.825-68.76-1.92-97.82 14.786-11.03 6.351-22.93 13.673-35.56 20.047-24.68 12.37-52.44 18.602-80.13 15.26-14.37-1.729-28.6-6.35-41.99-11.113-11.12-3.981-21.81-7.986-32.19-10.663-15.32-3.981-27.81-8.247-43.51-9.289-9.86-.737-19.77-.059-29.44 2.014-36.13 7.938-68.52 11.848-99.57-3.199-19.87-9.716-42.08-24.881-63.82-34.596-28.86-12.891-56.07-37.914-86.89-41.516-35.326-4.147-70.627 1.73-105.406 13.483-21.479 7.275-44.001 15.805-66.57 21.326-6.828 1.683-14.225 3.413-21.527 4.455-39.354 5.711-70.909 3.176-107.964-14.051-24.608-11.446-45.044-19.692-72.71-14.337a245.9608 245.9608 0 0 0-29.397 7.939c-50.758 16.587-92.46 18.506-136.769-8.697-11.261-6.872-21.337-17.322-30.108-27.321-19.915-22.844-35.846-49.952-56.59-72.179-10.076-10.758-21.953-21.161-34.186-27.488-16.216-8.388-33.333-10.118-49.383 1.92-11.024 8.246-19.986 22.535-27.999 37.914-10.312 19.739-19.795 42.439-31.175 56.728a325.3779 325.3779 0 0 1-66.95 62.795c-33.807 23.696-78.756 29.075-109.0542-3.389-10.9292-11.682-24.5609-27.037-37.932-42.961-9.3407-11.137-20.744-18.53-36.462-20.07-68.3013-6.683-132.3348 29.359-202.7468 19.241" stroke="#65BDEA" stroke-width=".5" stroke-miterlimit="10"/>
  <path d="M1814.63 417.247c-30.08.654-60.1-2.814-89.24-10.308-23.7-6.114-47.08-16.73-70.93-22.298-7.27-1.605-14.66-2.58-22.09-2.915-32.53-1.777-68.59-1.682-97.75 14.597-11.17 6.232-23.19 13.412-35.96 19.691-24.68 12.085-52.35 18.317-79.92 15.45a207.5647 207.5647 0 0 1-41.61-9.834c-10.95-3.507-21.34-7.109-31.53-9.265-14.96-3.365-27.24-7.109-42.89-7.796-9.8-.546-19.64.251-29.23 2.37-36.03 8.199-68.42 12.203-99.57-2.63-19.94-9.479-42.15-24.408-63.82-34.099-28.76-12.891-55.9-37.511-86.53-41.398-35.35-4.478-70.39 1.256-104.955 13.531-21.337 7.535-43.669 16.327-66.215 21.777-6.804 1.659-14.225 3.341-21.479 4.384-39.212 5.497-70.814 2.772-107.608-14.408-24.277-11.35-44.618-19.762-72.142-15.521a251.52 251.52 0 0 0-29.065 6.635c-50.545 14.218-91.677 14.218-135.133-12.985-11.19-7.109-21.337-17.298-30.109-27.156-20.009-22.535-36.059-49.43-56.779-71.42-10.099-10.711-21.977-20.971-34.186-27.18-16.192-8.222-33.191-9.857-49.335 1.612-11.143 7.938-20.318 21.587-28.449 36.184-10.55 18.791-20.389 40.686-31.958 54.69-19.416 23.507-42.365 47.037-66.571 62.7-38.145 24.668-71.122 29.834-106.6833 2.773-11.1899-8.507-25.4144-23.151-39.1173-37.914a51.0528 51.0528 0 0 0-16.792-12.355 51.079 51.079 0 0 0-20.3338-4.612c-70.3164-3.056-133.6386 32.535-206.2546 20.569" stroke="#65BDEA" stroke-width=".5" stroke-miterlimit="10"/>
  <path d="M1812.45 415.635c-29.92.303-59.74-3.266-88.74-10.615-23.71-6.067-47.41-16.304-71.41-21.683-7.24-1.633-14.62-2.585-22.04-2.843-33.03-1.09-67.57-1.682-97.68 14.431-11.28 6.042-23.42 13.151-36.27 19.312a154.6389 154.6389 0 0 1-79.66 15.687c-13.99-1.546-27.8-4.418-41.25-8.578-10.76-3.033-20.93-5.971-30.82-7.843-14.58-2.749-26.65-6.019-42.27-6.327-9.76-.309-19.52.63-29.04 2.796-35.94 8.483-68.33 12.44-99.57-2.038-19.99-9.241-42.23-23.933-63.82-33.625-28.67-12.843-55.76-37.108-86.2-41.231-35.375-4.739-70.107.758-104.482 13.53-21.005 7.82-43.338 16.848-65.836 22.227a214.5381 214.5381 0 0 1-21.337 4.289c-39.046 5.285-70.695 2.37-107.252-14.786-23.969-11.208-44.31-19.834-71.573-16.587a255.5847 255.5847 0 0 0-28.734 5.308c-50.259 11.848-90.965 9.763-133.639-17.299-11.142-7.108-21.336-17.227-30.085-26.966-20.127-22.227-36.272-48.885-56.897-70.662-10.124-10.639-22.001-20.805-34.187-26.871-16.145-8.057-33.19-9.479-49.311 1.327-11.237 7.606-20.602 20.639-28.994 34.525-10.811 17.843-20.958 39.359-32.788 52.653-20.151 22.677-42.673 45.923-66.167 62.629-35.04 24.999-67.946 32.393-104.0999 8.886a297.1857 297.1857 0 0 1-40.3027-32.677c-9.483-9.076-21.2182-14.028-37.7898-13.886-72.2366.64-134.9906 35.544-209.7166 21.919" stroke="#65BDEA" stroke-width=".5" stroke-miterlimit="10"/>
  <path d="M1810.29 414.024c-29.75-.036-59.38-3.713-88.24-10.948-23.71-6.018-47.7-15.852-71.83-21.089-7.25-1.575-14.63-2.487-22.05-2.725-33-1.043-67.35-1.422-97.6 14.218-11.43 5.947-23.71 12.89-36.58 18.956-24.7 11.936-52.03 17.399-79.43 15.877a245.3633 245.3633 0 0 1-40.89-7.251c-10.57-2.583-20.48-4.976-30.2-6.469-14.23-2.157-26.08-4.882-41.63-4.739-9.71-.084-19.39.998-28.83 3.222-35.85 8.72-68.18 12.701-99.57-1.445-20.11-9.052-42.27-23.483-63.82-33.175-28.67-13.009-55.6-36.705-85.94-41.184-35.399-5.142-69.87.285-104.032 13.554-20.768 8.057-43.006 17.37-65.456 22.678-6.733 1.587-14.083 3.199-21.337 4.17-38.88 5.095-70.625 1.943-106.897-15.118-23.708-11.113-44.001-19.928-70.98-17.843a207.741 207.741 0 0 0-28.449 4.005c-49.264 10.971-92.009 4.289-132.122-21.564a164.9178 164.9178 0 0 1-30.061-26.8c-20.199-21.943-36.438-48.317-57.206-69.928-10.147-10.592-22.001-20.615-34.163-26.563-16.144-7.891-33.19-9.336-49.264 1.043-11.332 7.298-20.91 19.691-29.516 32.866-11.024 16.895-21.55 37.487-33.593 50.639-20.341 22.203-42.839 45.283-65.765 62.51-33.427 25.094-64.934 34.834-101.5624 15.047a244.1508 244.1508 0 0 1-41.4406-27.606c-9.483-8.033-21.3368-11.848-38.4536-10.758-73.991 4.408-136.4604 38.767-213.2014 23.27" stroke="#65BDEA" stroke-width=".5" stroke-miterlimit="10"/>
  <path d="M1808.09 412.413c-29.58-.401-59.01-4.185-87.72-11.28-23.92-5.995-47.99-15.402-72.29-20.473a124.523 124.523 0 0 0-22-2.631c-32.97-.971-67.16-1.161-97.53 14.218-11.57 5.829-23.92 12.607-36.86 18.554-24.73 11.632-51.88 17.15-79.19 16.09-13.64-.989-27.19-2.985-40.54-5.972-10.4-2.109-20.03-3.957-29.54-5.023-13.82-1.564-25.46-3.815-40.99-3.412-9.65.13-19.26 1.346-28.64 3.625-35.75 9.005-68.08 12.938-99.57-.877-20.17-8.791-42.34-23.009-63.82-32.653-28.45-12.82-55.47-36.373-85.49-40.994a183.745 183.745 0 0 0-103.574 13.578 363.5635 363.5635 0 0 1-65.101 23.103 215.851 215.851 0 0 1-21.337 4.076c-38.738 4.905-70.529 1.54-106.683-15.473-23.328-10.996-43.764-20-70.412-18.957-9.406.279-18.783 1.181-28.069 2.701-48.98 8.531-91.179 0-130.557-25.852a174.586 174.586 0 0 1-30.038-26.611c-20.317-21.635-36.675-47.795-57.419-69.193-10.194-10.521-22.024-20.402-34.163-26.232-16.121-7.725-33.19-9.123-49.216.735-11.451 6.967-21.337 18.744-30.014 31.208-11.285 15.971-22.166 35.544-34.423 48.624-20.578 21.753-42.911 44.667-65.362 62.416-27.358 21.634-62.042 41.207-99.0258 21.161-12.0908-6.541-27.8325-11.588-42.6734-22.512-9.483-7.109-21.6924-9.478-39.1174-7.677-75.5794 8.222-138.0014 41.823-216.6864 24.667" stroke="#65BDEA" stroke-width=".5" stroke-miterlimit="10"/>
  <path d="M1805.93 410.778a408.194 408.194 0 0 1-87.29-11.612c-24.07-5.924-48.32-14.952-72.74-19.833-7.24-1.478-14.59-2.334-21.97-2.559-32.96-.901-66.95-.901-97.44 13.933-11.86 5.711-24.21 12.346-37.2 18.175-26.08 11.682-51.97 16.019-78.94 16.303-13.61.142-27.96-2.725-40.17-4.739-10.24-1.635-19.55-2.939-28.87-3.626-13.42-.948-24.87-2.678-40.3-1.943-9.6.351-19.14 1.709-28.45 4.052-35.56 9.265-68 13.175-99.74-.284-20.22-8.578-42.39-22.535-63.8-32.203-28.45-12.773-55.35-35.995-85.15-40.853-34.964-6.03-70.933-1.286-103.132 13.602-20.696 9.668-42.318 18.412-64.721 23.53a213.3671 213.3671 0 0 1-21.337 3.981c-38.572 4.739-70.435 1.114-106.233-15.805-23.02-10.9-43.503-20.118-69.795-20.189-9.266-.12-18.53.347-27.737 1.398-48.624 6.066-90.302-4.289-129.017-30.118a188.8334 188.8334 0 0 1-30.013-26.445c-20.436-21.326-36.865-47.25-57.633-68.458-10.242-10.45-22.048-20.213-34.163-25.9-16.073-7.559-33-8.886-49.193.427-11.545 6.658-21.526 17.819-30.511 29.572-11.522 15.024-22.759 33.815-35.229 46.587-20.816 21.327-42.887 43.577-64.959 62.345-24.916 21.208-61.307 51.444-96.513 27.25a115.6042 115.6042 0 0 1-43.7403-17.44c-9.483-6.043-21.8583-7.37-39.7812-4.597-76.8833 11.848-139.8745 45.686-220.1715 26.066" stroke="#65BDEA" stroke-width=".5" stroke-miterlimit="10"/>
  <path d="M1803.75 409.143a441.8544 441.8544 0 0 1-86.8-11.849c-24.18-5.9-48.62-14.525-73.18-19.265-7.24-1.387-14.58-2.179-21.95-2.369-32.89-.829-66.76-.616-97.37 13.767-11.85 5.593-24.47 12.085-37.51 17.796a204.6103 204.6103 0 0 1-78.68 16.587c-13.63.356-27.83-1.99-39.83-3.364-10.03-1.161-18.97-1.944-28.19-2.18-13.04-.38-24.3-1.612-39.76-.498-9.52.568-18.97 2.06-28.21 4.455-35.56 9.478-67.9 13.412-99.78.284-20.3-8.341-42.44-22.037-63.8-31.705-28.31-12.772-55.21-35.544-84.8-40.734-34.805-6.47-70.767-1.698-102.677 13.625-20.46 9.953-41.986 18.957-64.342 23.933a205.5314 205.5314 0 0 1-21.337 3.887c-38.43 4.502-70.34.734-105.877-16.161-22.712-10.782-43.314-20.189-69.226-21.327a230.317 230.317 0 0 0-27.406 0c-48.197 3.578-89.377-8.507-127.452-34.335a202.437 202.437 0 0 1-30.013-26.422c-20.555-21.018-37.103-46.728-57.847-67.723-10.265-10.379-22.071-20.024-34.186-25.592-16.05-7.393-32.929-8.626-49.122.142-11.664 6.327-21.834 16.872-31.033 27.914-11.735 14.218-23.328 31.966-36.011 44.573-21.124 20.971-42.935 42.866-64.58 62.273-23.944 21.469-58.107 53.577-93.976 33.317a101.0238 101.0238 0 0 1-44.902-12.393c-9.483-5.095-22.0717-5.19-40.445-1.493-78.0687 15.687-141.699 48.672-223.656 27.535" stroke="#65BDEA" stroke-width=".5" stroke-miterlimit="10"/>
  <path d="M1801.57 407.484a474.753 474.753 0 0 1-86.32-12.251c-24.3-5.853-48.91-14.076-73.61-18.625-7.24-1.36-14.57-2.153-21.93-2.37-32.84-.758-66.6-.379-97.2 13.602-12.02 5.473-24.71 11.848-37.94 17.416-24.89 10.361-51.49 16.032-78.44 16.73-13.66.568-27.69-1.256-39.45-2.062-9.87-.687-18.61-.924-27.53-.782-12.63.237-23.71-.474-39.14.995-9.45.743-18.83 2.329-28 4.74-35.56 9.786-67.82 13.625-99.83.853-20.34-8.104-42.48-21.564-63.8-31.208-28.21-12.772-55.07-35.26-84.44-40.615-33.762-6.161-69.134-3.152-102.23 13.649-20.222 10.26-41.63 19.407-64.01 24.336a203.2252 203.2252 0 0 1-21.336 3.815c-38.264 4.289-70.245.308-105.522-16.588-22.427-10.71-43.148-20.307-68.752-22.511a243.7887 243.7887 0 0 0-27.074-1.208c-47.676 1.066-88.405-12.702-125.886-38.578a222.7438 222.7438 0 0 1-29.99-26.066c-20.65-20.71-37.292-46.183-58.036-66.989-10.289-10.307-22.096-19.833-34.187-25.283-16.026-7.228-32.882-8.389-49.074-.143-11.854 5.996-22.167 15.948-31.555 26.256-11.972 13.199-23.921 30.141-36.817 42.653-21.337 20.615-42.958 42.108-64.177 62.179-23.138 21.847-55.072 55.543-91.439 39.383a92.5107 92.5107 0 0 1-46.0639-7.346c-9.483-4.171-22.2851-3.105-41.1088 1.54-79.0407 19.549-143.6203 51.681-227.1413 29.028" stroke="#65BDEA" stroke-width=".5" stroke-miterlimit="10"/>
  <path d="M1799.38 405.73c-28.9-1.751-57.61-5.944-85.82-12.535-24.42-5.829-49.21-13.625-74.06-18.009-7.23-1.305-14.56-2.058-21.9-2.251-32.79-.711-66.39-.119-97.2 13.436-12.19 5.355-24.97 11.516-38.13 17.013a235.5964 235.5964 0 0 1-78.23 16.943c-13.68.782-27.57-.497-39.09-.734-9.7-.214-18.14 0-26.89.663-12.18.782-23.09.616-38.48 2.37-9.39 1-18.69 2.759-27.81 5.26-35.34 10.071-67.75 13.863-99.87 1.446-20.42-7.891-42.54-21.09-63.8-30.805-28.12-12.749-54.93-34.881-84.09-40.497-33.667-6.469-68.967-3.697-101.778 13.649-19.985 10.568-41.275 19.929-63.584 24.786a200.9275 200.9275 0 0 1-21.336 3.697c-38.098 4.099-70.127 0-105.167-16.872-22.166-10.592-43.005-20.426-68.064-23.696-8.819-1.137-17.733-2.227-26.742-2.37-47.107-1.445-87.409-16.848-124.345-42.795a244.1955 244.1955 0 0 1-29.967-25.923c-20.744-20.403-37.505-45.663-58.249-66.35-10.337-10.26-22.119-19.668-34.186-24.976-16.003-7.108-32.811-8.175-49.027-.45-11.854 5.687-22.475 15-32.053 24.621-12.209 12.274-24.561 28.435-37.647 40.544-21.693 20.212-42.958 41.35-63.773 62.107-22.499 22.393-52.157 57.345-88.903 45.426a87.5289 87.5289 0 0 1-47.2494-2.37c-9.4829-3.27-22.4746-.995-41.7488 4.739-79.9653 23.317-145.5398 54.502-230.6268 30.497" stroke="#65BDEA" stroke-width=".5" stroke-miterlimit="10"/>
  <path d="M1797.23 404.143a572.4446 572.4446 0 0 1-85.35-12.867c-24.54-5.782-49.5-13.199-74.49-17.393-7.23-1.251-14.54-1.964-21.88-2.133-32.76-.64-66.22.118-97.2 13.246-12.33 5.237-25.23 11.256-38.41 16.587-24.92 9.787-51.24 15.577-77.97 17.156-13.7 1.019-27.45.261-38.72.593-9.48.284-17.66 1.09-26.22 2.085-11.85 1.374-22.49 1.73-37.93 3.91-9.32 1.21-18.55 3.103-27.59 5.663-35.26 10.356-67.69 14.218-99.93 2.038-20.46-7.654-42.67-20.615-63.8-30.26-28.02-12.725-54.81-34.525-83.76-40.283-33.518-6.777-68.747-4.242-101.298 13.672-19.748 10.853-40.919 20.427-63.227 25.19a198.7639 198.7639 0 0 1-21.337 3.601c-37.932 3.91-70.032-.521-104.835-17.227-21.882-10.521-42.886-20.592-67.471-24.857-8.701-1.517-17.496-3.033-26.41-3.791-46.467-3.958-86.319-20.924-122.781-46.99a270.5856 270.5856 0 0 1-29.943-25.758c-20.886-20.118-37.742-45.141-58.462-65.543-10.361-10.19-22.143-19.455-34.187-24.668-15.978-6.872-32.763-7.938-49.003-.711-11.996 5.332-22.759 14.076-32.55 22.985-12.447 11.327-25.249 26.611-38.454 38.507-21.929 19.786-42.934 40.567-63.37 62.036-22.024 23.104-49.454 59.004-86.366 51.468a86.3297 86.3297 0 0 1-48.411 2.678c-9.3407-2.37-22.6642 1.09-42.4125 7.701-80.2498 26.824-147.6505 58.127-233.8985 32.061" stroke="#65BDEA" stroke-width=".5" stroke-miterlimit="10"/>
  <path d="M1795.02 402.46a638.173 638.173 0 0 1-84.85-13.199c-24.68-5.71-49.78-12.725-74.94-16.753-7.23-1.136-14.53-1.816-21.85-2.038-32.51-1.208-66.72.664-97.06 13.081-12.5 5.118-25.51 10.995-38.74 16.231a276.5765 276.5765 0 0 1-77.71 17.393c-13.75 1.233-27.36 1.019-38.39 1.92-9.48.758-17.16 2.085-25.53 3.507-11.35 1.943-21.93 2.82-37.24 5.379a219.053 219.053 0 0 0-27.41 6.066c-35.13 10.616-67.57 14.218-99.95 2.63-20.53-7.44-42.67-20.141-63.8-29.786-27.9-12.677-53.55-32.464-83.4-40.283-34.123-8.605-70.253-3.707-100.851 13.672-19.488 11.161-40.564 20.948-62.849 25.616-6.519 1.351-13.56 2.512-21.17 3.507-37.932 5-71.36-1.588-104.503-17.582-21.621-10.45-42.673-20.758-66.879-26.066-8.629-1.896-17.283-3.839-26.078-5.095-45.779-6.469-85.157-24.952-121.24-51.184a309.656 309.656 0 0 1-29.919-25.591c-20.957-19.81-37.932-44.597-58.652-64.809-10.384-10.119-22.167-19.289-34.186-24.36-15.956-6.73-32.717-7.725-48.956-.995-12.115 5-23.068 13.127-33.048 21.326-12.708 10.592-25.96 24.952-39.402 36.658a739.4237 739.4237 0 0 0-62.967 61.966c-21.456 23.696-46.965 60.662-83.83 57.486-13.964 6.327-32.0525 10.569-49.5723 7.654-9.2934-1.54-22.8777 3.152-43.0765 10.758-81.0795 30.568-149.9262 61.089-237.5962 33.578" stroke="#65BDEA" stroke-width=".5" stroke-miterlimit="10"/>
  <path d="M1792.87 400.754a729.0629 729.0629 0 0 1-84.38-13.483c-24.82-5.687-50.09-12.298-75.39-16.161-7.23-1.069-14.52-1.71-21.83-1.919-32.51-1.114-66.53.9-96.99 12.914-12.64 4.977-25.77 10.711-39.05 15.829a304.4056 304.4056 0 0 1-77.47 17.63c-13.78 1.47-27.22 1.778-37.94 3.247-9.19 1.256-16.59 3.08-24.86 4.952-10.93 2.37-21.34 3.91-36.63 6.848-9.18 1.616-18.25 3.768-27.17 6.446-35.06 10.9-67.52 14.549-100.02 3.199-20.58-7.109-42.68-19.644-63.8-29.289-27.81-12.677-53.41-32.061-82.98-40.141-16.8-4.471-34.333-5.564-51.567-3.217a131.5343 131.5343 0 0 0-48.83 16.89c-19.227 11.445-40.303 21.445-62.469 26.065-6.496 1.327-13.514 2.37-21.147 3.436-35.739 4.94-72.131-1.336-104.147-17.961-20.199-10.45-43.219-21.066-66.381-27.18-8.535-2.251-17.046-4.739-25.747-6.374-45.044-8.934-83.972-28.957-119.699-55.354a368.2164 368.2164 0 0 1-29.847-25.45c-21.076-19.526-38.146-44.098-58.89-63.98-10.407-10.07-22.19-19.122-34.186-24.051-15.498-6.803-33.045-7.271-48.885-1.303-12.233 4.739-23.375 12.227-33.569 19.715-12.897 9.478-26.6 23.127-40.066 34.501a543.3245 543.3245 0 0 0-62.588 61.871c-20.91 24.36-44.641 62.345-81.293 63.482-14.224 7.938-32.716 14.075-50.7338 12.63-9.2223-.735-23.1147 5.166-43.7402 13.815-81.6723 34.193-151.989 63.979-241.081 35.141" stroke="#65BDEA" stroke-width=".5" stroke-miterlimit="10"/>
  <path d="M1790.68 399.048a838.3169 838.3169 0 0 1-83.87-13.815c-24.97-5.616-50.38-11.848-75.87-15.497-7.23-1.02-14.51-1.637-21.81-1.848-32.48-1.019-66.38 1.161-96.91 12.748-12.81 4.858-26.08 10.45-39.33 15.426a338.1223 338.1223 0 0 1-77.24 17.867c-13.85 1.73-27.12 2.536-37.65 4.597-9.03 1.73-16.19 4.076-24.21 6.375-10.52 3.033-20.76 5.023-36.01 8.317-8.51 1.824-17.54 3.839-26.98 6.848-34.94 11.185-67.4 14.787-100.04 3.792-20.63-6.943-42.68-19.171-63.8-28.791-27.71-12.678-53.27-31.682-82.69-40.047a126.8976 126.8976 0 0 0-51.395-3.526 126.854 126.854 0 0 0-48.557 17.199c-18.966 11.848-39.876 21.943-62.113 26.421-6.449 1.303-13.443 2.37-21.1 3.341-35.658 4.672-71.89-1.722-103.791-18.317-20.223-10.403-42.982-21.326-65.741-28.435-8.416-2.631-16.809-5.474-25.415-7.678-44.167-11.35-82.691-32.866-118.134-59.501-10.455-7.867-20.53-16.753-29.871-25.236-21.195-19.194-38.359-43.554-59.103-63.387-10.455-9.977-22.19-18.957-34.163-23.697-15.526-6.565-32.94-7.131-48.861-1.587a160.5847 160.5847 0 0 0-34.067 18.104c-13.158 8.578-27.311 21.326-40.896 32.463a430.6165 430.6165 0 0 0-62.184 61.8c-20.484 25.189-42.674 64.098-78.756 69.477-14.367 9.478-33.381 17.511-51.8962 17.606-9.1748 0-23.3518 7.109-44.4041 16.848-82.0278 37.914-154.0987 66.8-244.5667 36.753" stroke="#65BDEA" stroke-width=".5" stroke-miterlimit="10"/>
  <path d="M1788.5 397.318c-27.92-3.791-56.09-8.009-83.4-14.217-25.08-5.593-50.66-11.398-76.27-14.882-7.22-.962-14.5-1.547-21.78-1.753-32.48-.924-66.15 1.398-96.82 12.606-12.97 4.739-26.32 10.166-39.67 15.024-24.97 8.687-50.77 14.747-77 18.08-13.87 1.966-27 3.317-37.29 5.924-8.84 2.369-15.7 5.095-23.52 7.843a347.202 347.202 0 0 1-35.37 9.763c-8.51 2.038-17.45 4.194-26.79 7.275-34.83 11.445-67.35 14.999-100.09 4.36-20.7-6.73-42.8-18.696-63.8-28.436-27.6-12.63-53.1-31.255-82.34-39.927-16.61-4.906-34.086-6.224-51.253-3.866a122.2662 122.2662 0 0 0-48.314 17.538c-18.729 11.99-39.544 22.464-61.64 26.824-6.401 1.28-13.395 2.37-21.076 3.247-35.582 4.394-71.661-2.118-103.459-18.673a573.3385 573.3385 0 0 0-65.125-29.502c-8.345-3.009-16.595-6.279-25.082-8.981-43.314-13.743-81.364-36.705-116.593-63.624-10.408-7.962-20.46-16.729-29.872-25.07-21.337-18.957-38.548-43.056-59.268-62.677-10.503-9.928-22.262-18.743-34.21-23.435-15.546-6.339-32.828-7.001-48.814-1.872a182.221 182.221 0 0 0-34.565 16.469c-13.372 7.677-27.952 19.62-41.702 30.473a346.051 346.051 0 0 0-61.782 61.61c-19.179 25.236-41.322 67.416-76.219 75.449-14.58 11.16-34.044 20.852-53.0576 22.535-9.1274.805-23.5652 9.123-45.0442 19.881-82.1227 41.136-156.6112 70.235-248.0512 38.387" stroke="#65BDEA" stroke-width=".5" stroke-miterlimit="10"/>
  <path d="M1786.35 395.588c-27.74-4.194-55.72-8.435-82.98-14.407-25.25-5.521-50.97-10.948-76.72-14.218-7.22-.899-14.48-1.437-21.76-1.611-32.46-.853-65.98 1.611-96.75 12.417-13.14 4.597-26.6 9.881-39.97 14.62a437.6895 437.6895 0 0 1-76.74 18.317c-13.92 2.228-26.89 4.1-36.94 7.275-7.77 2.705-15.4 5.805-22.85 9.289-11.3 4.575-22.92 8.329-34.76 11.232-8.46 2.228-17.35 4.55-26.57 7.654-34.74 11.848-67.26 15.237-100.15 4.952-20.74-6.492-42.83-18.222-63.79-27.843-27.48-12.606-52.96-30.805-81.98-39.809a118.2477 118.2477 0 0 0-51.045-4.15 118.2095 118.2095 0 0 0-48.007 17.823c-18.468 12.25-39.189 22.961-61.355 27.25-6.377 1.232-13.347 2.251-21.052 3.128-35.491 4.124-71.405-2.479-103.104-18.957-20.27-10.331-42.674-21.658-64.532-30.686-8.25-3.389-16.405-7.109-24.774-10.237-42.389-16.114-79.942-40.497-115.029-67.795-10.336-8.009-20.388-16.587-29.848-24.881-21.336-18.601-38.761-42.653-59.505-61.965-10.503-9.858-22.262-18.554-34.186-23.128a75.3354 75.3354 0 0 0-48.767-2.156 213.9676 213.9676 0 0 0-35.087 14.834c-13.584 6.777-28.615 17.89-42.507 28.435a300.2345 300.2345 0 0 0-61.379 61.61c-19.44 26.564-39.094 69.288-73.683 81.396-14.793 12.773-34.755 24.147-54.2188 27.464-9.0799 1.541-23.7075 11.09-45.7318 22.938-82.4783 44.573-158.8404 73.103-251.5124 39.999" stroke="#65BDEA" stroke-width=".5" stroke-miterlimit="10"/>
  <path d="M1784.21 393.882c-27.55-4.573-55.31-8.839-82.43-14.692-25.39-5.497-51.25-10.521-77.17-13.625-7.11-.829-14.22-1.351-21.74-1.516-32.45-.759-65.81 1.824-96.68 12.251-13.3 4.454-26.86 9.596-40.3 14.217a509.4895 509.4895 0 0 1-76.5 18.554c-13.94 2.37-26.74 4.882-36.56 8.649-7.58 3.18-14.99 6.763-22.19 10.735a192.85 192.85 0 0 1-34.14 12.677c-8.41 2.37-17.26 4.905-26.36 8.057-34.64 12.014-67.19 15.473-100.19 5.545-20.79-6.232-42.91-17.725-63.8-27.346-27.38-12.606-52.84-30.473-81.64-39.714a114.2422 114.2422 0 0 0-50.861-4.464 114.2094 114.2094 0 0 0-47.719 18.136c-18.231 12.536-38.856 23.436-60.999 27.63-6.33 1.209-13.276 2.204-21.005 3.057-35.413 3.824-71.166-2.921-102.748-19.384-20.317-10.284-42.436-21.942-64.01-31.871-8.155-3.744-16.192-7.867-24.443-11.516-41.417-18.389-78.448-44.217-113.464-71.894-10.265-8.104-20.744-16.588-29.823-24.739-20.507-18.317-39.663-41.966-59.72-61.231a105.2625 105.2625 0 0 0-34.186-22.843 79.6697 79.6697 0 0 0-48.719-2.37 260.005 260.005 0 0 0-35.561 13.223c-13.821 5.876-29.302 16.161-43.314 26.445a261.9562 261.9562 0 0 0-60.975 61.61c-20.199 28.956-40.303 66.61-71.123 87.344-16.121 10.853-35.561 27.392-55.38 32.369-9.0327 2.369-24.0633 13.009-46.3957 26.065-82.7865 48.009-160.8083 75.828-255.0213 41.706" stroke="#65BDEA" stroke-width=".5" stroke-miterlimit="10"/>
  <path d="M1781.98 392.081c-27.31-5-54.9-9.241-81.95-14.999-25.54-5.451-51.52-10.048-77.6-12.986-7.01-.774-14.25-1.248-21.71-1.422-32.44-.639-65.63 2.086-96.61 12.085-13.44 4.36-27.12 9.337-40.59 13.792-24.84 8.293-50.64 13.767-76.24 18.814-14.01 2.749-26.63 5.664-36.2 9.976-7.4 3.683-14.59 7.756-21.55 12.204a157.6711 157.6711 0 0 1-33.5 14.218c-8.39 2.63-17.14 5.236-26.08 8.459-34.52 12.298-67.14 15.663-100.24 6.114-20.83-6.019-42.95-17.227-63.77-26.872-27.29-12.582-52.72-30.07-81.32-39.596-32.759-10.924-70.122-6.28-98.121 13.649-17.946 12.796-38.5 23.957-60.619 28.056-6.283 1.161-13.229 2.133-20.958 2.939-37.126 3.815-71.122-3.958-102.416-19.739-20.389-10.261-42.318-22.18-63.394-33.033-8.037-4.147-15.979-8.673-24.087-12.819-40.421-20.616-76.907-47.819-111.923-75.97-10.194-8.175-20.673-16.588-29.8-24.573-20.602-18.033-39.852-41.445-59.933-60.544-10.241-9.739-22.308-18.198-34.186-22.535a85.0494 85.0494 0 0 0-48.671-2.725 332.8405 332.8405 0 0 0-36.107 11.635c-14.058 4.952-29.99 14.383-44.119 24.431a232.9308 232.9308 0 0 0-60.597 61.61c-20.27 30.236-38.667 68.955-68.609 93.268-17.496 14.217-35.68 29.691-56.542 37.25-8.6536 3.128-24.3242 14.905-47.0596 28.98-82.9762 51.35-162.9414 78.766-258.4114 43.388" stroke="#65BDEA" stroke-width=".5" stroke-miterlimit="10"/>
  <path d="M1779.8 390.328c-27.09-5.427-54.52-9.645-81.46-15.308a771.9109 771.9109 0 0 0-78.06-12.346c-7-.734-14.23-1.184-21.65-1.303-32.43-.569-65.5 2.37-96.56 11.848-13.61 4.194-27.38 9.028-40.87 13.365a744.261 744.261 0 0 1-76.03 18.957c-14.06 2.938-26.48 6.469-35.85 11.374-8.15 4.265-13.87 9.028-20.86 13.649-10.2 6.681-21.26 11.936-32.88 15.616-8.35 2.819-17.05 5.592-26.08 8.838-34.4 12.583-67.02 15.9-100.26 6.73-20.89-5.782-43-16.777-63.8-26.398-27.14-12.559-52.56-29.691-80.93-39.501-32.649-11.303-70.012-6.73-97.678 13.649-17.686 13.033-38.146 24.431-60.241 28.435-6.259 1.114-13.181 2.086-20.934 2.844-36.983 3.649-70.766-4.408-102.084-20.095-20.436-10.26-42.176-22.487-62.801-34.193-7.942-4.526-15.766-9.478-23.708-14.218-39.425-22.795-75.295-51.397-110.382-80.069-10.099-8.246-20.578-16.587-29.776-24.383-20.673-17.749-40.019-40.947-60.123-59.857-10.289-9.668-22.332-18.009-34.186-22.227a90.5477 90.5477 0 0 0-48.624-3.009c-12.944 2.654-25.201 6.753-36.628 10.023-14.224 4.052-29.753 12.82-45.044 22.417a180.6944 180.6944 0 0 0-60.193 61.444c-19.393 33.72-36.747 72.321-66.073 99.192-17.591 16.113-36.201 32.748-57.728 42.108-8.6528 3.791-24.5369 16.824-47.6991 32.014-82.9762 54.501-165.3119 82.154-261.9909 45.022" stroke="#65BDEA" stroke-width=".5" stroke-miterlimit="10"/>
  <path d="M1777.62 388.55c-26.86-5.829-54.12-10.07-80.96-15.615-26.08-5.356-52.16-8.934-78.52-11.683-6.97-.734-14.22-1.113-21.64-1.208-32.41-.45-65.32 2.535-96.45 11.73-13.77 4.075-27.66 8.767-41.2 12.985-24.75 7.701-50.5 13.412-75.86 19.265-14.04 3.247-26.37 7.275-35.56 12.749-7.97 4.739-13.45 9.999-20.2 15.094a115.311 115.311 0 0 1-32.27 17.085c-8.3 3.009-16.93 5.948-25.75 9.242-34.28 12.867-66.99 16.113-100.3 7.298-20.94-5.545-43.08-16.303-63.8-25.9-27-12.535-52.42-29.336-80.6-39.43-32.554-11.659-69.941-7.109-97.204 13.649-17.425 13.269-37.79 24.928-59.862 28.838-6.235 1.09-13.157 2.038-20.91 2.749-36.817 3.435-70.458-4.882-101.729-20.474-20.483-10.213-42.08-22.796-62.208-35.355-7.847-4.905-15.576-10.26-23.423-15.355-38.453-24.928-73.635-54.88-108.841-84.145-10.028-8.341-20.53-16.587-29.753-24.241-20.767-17.44-40.302-40.402-60.335-59.24-10.337-9.479-22.356-17.82-34.21-21.919a96.8835 96.8835 0 0 0-48.577-3.294c-13.063 2.37-25.485 5.853-37.102 8.412-14.509 3.175-30.345 11.114-45.755 20.426-25.033 14.783-45.672 35.968-59.791 61.373-18.966 35.237-34.992 75.946-63.536 105.069-17.567 17.914-36.77 35.758-58.889 46.989-8.701 4.408-24.8454 18.673-48.3633 35-82.9761 57.7-167.4697 84.998-265.5237 46.894" stroke="#65BDEA" stroke-width=".5" stroke-miterlimit="10"/>
  <path d="M1775.46 386.773c-26.64-6.232-53.88-10.781-80.6-15.876-26.08-5-52.44-8.507-78.95-11.066-7.11-.687-14.22-1.019-21.62-1.09-32.36-.356-65.17 2.749-96.37 11.564-13.94 3.933-27.93 8.459-41.51 12.558-24.75 7.465-50.45 13.128-75.53 19.526-13.97 3.555-26.22 8.057-35.14 14.099-7.77 5.285-12.99 11.019-19.51 16.588-9.34 8.023-20.06 14.3-31.62 18.53-8.3 3.246-16.86 6.327-25.56 9.668-34.19 13.151-66.93 16.327-100.36 7.867-20.98-5.308-43.1-15.805-63.77-25.426-26.93-12.511-52.3-28.933-80.25-39.312-32.453-12.037-69.84-7.559-96.772 13.626-17.164 13.506-37.434 25.449-59.506 29.241-6.164 1.066-13.086 1.966-20.862 2.654-36.652 3.246-70.174-5.356-101.373-20.829a532.6352 532.6352 0 0 1-61.64-36.54c-7.752-5.284-15.386-11.066-23.115-16.587-37.457-26.99-72.023-58.411-107.276-88.197-9.91-8.365-20.151-16.445-29.729-24.052-21.479-17.085-40.445-39.975-60.549-58.458-10.384-9.479-22.38-17.654-34.21-21.635a104.3559 104.3559 0 0 0-48.529-3.554c-13.181 1.919-25.794 4.952-37.624 6.777-14.746 2.37-30.819 9.478-46.561 18.435-24.964 14.36-46.586 35.782-59.388 61.326-18.444 36.777-33.19 79.667-60.999 110.946-17.496 19.62-37.387 38.695-60.051 51.799-8.748 5.071-25.1061 20.569-49.0269 38.033-83.3318 60.899-169.4611 87.889-268.9381 48.648" stroke="#65BDEA" stroke-width=".5" stroke-miterlimit="10"/>
  <path d="M1773.28 384.949c-26.38-6.635-53.55-11.209-80.01-16.161-26.46-4.953-52.7-8.057-79.4-10.426-7.11-.616-14.22-.924-21.59-.995-32.47-.558-64.87 3.284-96.3 11.421-14.23 3.791-28.22 8.152-41.82 12.109-24.75 7.227-50.43 12.867-75.3 19.786-13.91 3.863-26.08 8.862-34.75 15.497-7.59 5.782-12.59 11.991-18.85 18.033-8.9 8.671-19.44 15.471-31.01 20-8.25 3.412-16.74 6.635-25.34 10.023-34.05 13.436-66.93 16.588-100.4 8.483-21.01-5.071-43.18-15.331-63.78-24.952-26.81-12.488-52.15-28.435-79.89-39.217-32.315-12.417-69.749-7.985-96.325 13.602-16.904 13.767-37.079 25.923-59.127 29.62-6.14 1.043-13.039 1.919-20.839 2.583-36.486 3.033-69.889-5.829-101.017-21.208a410.4269 410.4269 0 0 1-60.976-37.701c-7.657-5.663-15.173-11.848-22.783-17.914-36.486-29.004-70.435-61.918-105.735-92.226-9.768-8.412-20.057-16.397-29.706-23.909-21.55-16.753-40.634-39.478-60.738-57.748-10.408-9.478-22.404-17.487-34.21-21.326a112.968 112.968 0 0 0-48.482-3.862c-13.3 1.587-26.078 4.075-38.145 5.213-14.96 1.398-31.484 7.701-47.415 16.397-25.249 13.839-46.917 35.545-58.984 61.279-17.971 38.387-31.176 84.642-58.463 116.798a317.767 317.767 0 0 1-61.213 56.634c-8.416 5.805-25.3903 22.393-49.7853 41.042-83.1896 63.837-171.8317 91.23-272.4227 50.449" stroke="#65BDEA" stroke-width=".5" stroke-miterlimit="10"/>
  <path d="M1771.1 383.148c-26.08-7.109-53.27-11.659-79.54-16.587a794.6254 794.6254 0 0 0-79.82-9.763c-7.11-.569-14.22-.853-21.57-.877-32.43-.358-64.76 3.416-96.23 11.232-14.23 3.649-28.45 7.843-42.11 11.706-24.77 6.967-50.45 12.582-75.05 19.999-13.87 4.195-25.94 9.692-34.4 16.896-7.4 6.303-12.19 13.009-18.19 19.502-8.44 9.257-18.81 16.539-30.39 21.326-8.23 3.65-16.6 7.109-25.13 10.45-33.95 13.72-66.86 16.753-100.45 9.052-21.05-4.739-43.22-14.834-63.77-24.454-26.72-12.464-52.16-28.199-79.54-39.123-32.196-12.796-69.677-8.412-95.874 13.578-16.595 13.981-36.723 26.422-58.747 30-6.093.995-12.992 1.872-20.791 2.369-36.344 2.844-69.629-6.279-100.686-21.563a337.8804 337.8804 0 0 1-60.478-38.862c-7.539-6.066-14.959-12.677-22.427-19.194-35.561-30.971-68.752-65.401-104.313-96.254-9.625-8.412-19.985-16.35-29.682-23.696-21.668-16.469-40.8-38.956-60.975-57.06-10.431-9.479-22.404-17.298-34.186-21.042a123.3196 123.3196 0 0 0-48.435-4.123c-13.418 1.232-26.41 3.175-38.667 3.601-15.172.522-32.052 6.019-48.15 14.408-25.556 13.293-47.272 35.141-58.605 61.207-17.448 40.094-29.136 88.6-55.925 122.651-17.994 22.843-39.118 42.487-62.375 61.444-17.188 14.028-33.4274 30.023-50.3545 44.028-81.1507 67.344-173.8705 94.145-275.9075 52.274" stroke="#65BDEA" stroke-width=".5" stroke-miterlimit="10"/>
  <path d="M1771.1 373.148c-26.08-7.109-53.27-11.659-79.54-16.587a794.6254 794.6254 0 0 0-79.82-9.763c-7.11-.569-14.22-.853-21.57-.877-32.43-.358-64.76 3.416-96.23 11.232-14.23 3.649-28.45 7.843-42.11 11.706-24.77 6.967-50.45 12.582-75.05 19.999-13.87 4.195-25.94 9.692-34.4 16.896-7.4 6.303-12.19 13.009-18.19 19.502-8.44 9.257-18.81 16.539-30.39 21.326-8.23 3.65-16.6 7.109-25.13 10.45-33.95 13.72-66.86 16.753-100.45 9.052-21.05-4.739-43.22-14.834-63.77-24.454-26.72-12.464-52.16-28.199-79.54-39.123-32.196-12.796-69.677-8.412-95.874 13.578-16.595 13.981-36.723 26.422-58.747 30-6.093.995-12.992 1.872-20.791 2.369-36.344 2.844-69.629-6.279-100.686-21.563a337.8804 337.8804 0 0 1-60.478-38.862c-7.539-6.066-14.959-12.677-22.427-19.194-35.561-30.971-68.752-65.401-104.313-96.254-9.625-8.412-19.985-16.35-29.682-23.696-21.668-16.469-40.8-38.956-60.975-57.06-10.431-9.479-22.404-17.298-34.186-21.042a123.3196 123.3196 0 0 0-48.435-4.123c-13.418 1.232-26.41 3.175-38.667 3.601-15.172.522-32.052 6.019-48.15 14.408-25.556 13.293-47.272 35.141-58.605 61.207-17.448 40.094-29.136 88.6-55.925 122.651-17.994 22.843-39.118 42.487-62.375 61.444-17.188 14.028-33.4274 30.023-50.3545 44.028-81.1507 67.344-173.8705 94.145-275.9075 52.274" stroke="#65BDEA" stroke-width=".5" stroke-miterlimit="10"/>
  <path d="M1768.92 381.323c-25.86-7.464-52.96-12.085-79.04-16.753a774.1035 774.1035 0 0 0-80.27-9.123c-7.12-.498-14.23-.758-21.55-.758-32.38-.163-64.65 3.552-96.14 11.066-14.44 3.507-28.75 7.559-42.43 11.279-24.75 6.706-50.45 12.322-74.82 20.26-13.8 4.503-25.8 10.474-34.05 18.27-7.11 6.825-11.85 14.028-17.52 20.995-7.93 9.911-18.14 17.77-29.75 22.914-8.18 3.815-16.6 7.346-24.92 10.829-33.85 14.005-66.78 16.967-100.49 9.645-21.1-4.597-43.58-14.218-63.78-23.981-26.19-12.606-52.65-27.535-79.2-39.028-31.202-13.53-69.585-8.838-95.402 13.555-16.382 14.217-36.368 26.919-58.392 30.402-6.045.948-12.92 1.801-20.768 2.37-36.153 2.653-69.344-6.73-100.329-21.943a286.3511 286.3511 0 0 1-59.862-40.023c-7.444-6.445-14.841-13.436-22.119-20.45-34.234-32.89-67.211-68.719-102.63-100.282-9.482-8.436-19.914-16.303-29.658-23.554-21.763-16.184-40.99-38.459-61.189-56.397-10.502-9.336-22.427-17.132-34.186-20.734-15.599-4.739-32.123-5.45-48.387-4.407-13.56.876-26.718 2.369-39.165 2.014-15.409-.356-32.645 4.336-48.979 12.417-26.128 12.746-46.814 34.438-58.297 61.136-17.591 42.226-26.86 90.803-53.389 128.48-17.425 24.715-40.753 47.203-63.536 66.231-17.212 14.384-33.7833 32.085-51.0186 47.037-80.9848 70.377-175.8145 97.012-279.3214 54.122" stroke="#65BDEA" stroke-width=".5" stroke-miterlimit="10"/>
  <path d="M1766.76 379.499c-25.62-7.891-52.65-12.536-78.56-17.038-26.7-4.28-53.61-7.112-80.61-8.483-7.06-.442-14.24-.656-21.52-.64-32.33.02-64.56 3.676-96.07 10.9-14.6 3.365-29.02 7.251-42.67 10.83-24.75 6.469-50.45 12.061-74.56 20.52-13.75 4.74-25.68 11.304-33.69 19.692-7.11 7.346-11.36 15.023-16.86 22.44-7.44 10.496-17.47 18.895-29.11 24.383-8.15 4.029-16.45 7.702-24.72 11.209-31.61 13.875-66.77 17.457-100.52 10.237-21.18-4.36-43.63-13.744-63.8-23.483-26.08-12.583-52.42-27.18-78.85-38.957-31.249-13.886-69.537-9.218-94.833 13.554-16.097 14.408-36.035 27.393-58.012 30.805-5.998.925-12.896 1.754-20.72 2.37-36.012 2.37-69.084-7.109-99.998-22.298a251.6505 251.6505 0 0 1-59.269-41.208c-7.326-6.824-14.627-14.217-21.787-21.705-33.333-34.739-65.551-72.203-101.065-104.263a360.5087 360.5087 0 0 0-29.658-23.389c-21.787-15.852-41.132-37.913-61.379-55.709-10.549-9.265-22.45-16.967-34.209-20.45-15.576-4.621-32.053-5.284-48.34-4.739-13.655.497-27.027 1.398-39.663.403-15.647-1.233-33.19 2.654-49.785 10.426-26.352 12.263-47.031 34.111-57.823 61.089-17.093 44.051-24.703 94.547-50.852 134.286-17.378 26.445-41.157 50.212-64.674 71.088-17.615 15.569-33.6413 34.194-51.6826 50.023-82.9762 72.913-178.0906 100.4-282.8774 55.994" stroke="#65BDEA" stroke-width=".5" stroke-miterlimit="10"/>
  <path d="M1764.58 377.65c-25.34-8.293-52.34-12.961-78.07-17.321-26.55-4.503-53.79-6.28-81.17-7.82-7.08-.379-14.24-.561-21.48-.545-32.29.228-64.47 3.825-96.01 10.734-14.75 3.223-29.31 6.967-43.06 10.403-24.75 6.232-50.45 11.848-74.3 20.781-13.7 5.166-25.53 12.133-33.33 21.09-6.83 7.867-10.95 16.066-16.19 23.933-6.93 11.062-16.77 20-28.45 25.829-8.13 4.218-16.36 8.08-24.51 11.611-31.57 14.011-66.74 17.798-100.57 10.829-21.34-4.123-43.65-13.27-63.8-22.985-26.08-12.583-52.15-26.895-78.49-38.886-31.227-14.217-69.443-9.644-94.502 13.507-15.836 14.621-35.561 27.89-57.632 31.161-5.975.9-12.85 1.706-20.697 2.203-35.893 2.37-68.752-7.654-99.571-22.677a224.2423 224.2423 0 0 1-58.7-42.369c-7.112-7.227-14.225-15.047-21.337-22.985-32.645-36.421-62.872-75.614-99.571-108.268a344.8657 344.8657 0 0 0-29.635-23.222c-21.905-15.568-41.322-37.416-61.639-55.022-10.597-9.218-22.475-16.777-34.21-20.142-15.552-4.479-32.005-5.142-48.292-4.976-13.774.142-27.358.545-40.161-1.161a96.5903 96.5903 0 0 0-50.615 8.412 107.4593 107.4593 0 0 0-34.976 24.676 107.4204 107.4204 0 0 0-22.562 36.365c-16.595 45.947-22.546 98.292-48.34 140.092-17.354 28.127-42.057 53.221-65.835 75.827-17.686 16.754-33.949 36.232-52.3464 53.009-83.237 75.97-180.1768 103.315-286.3626 57.913" stroke="#65BDEA" stroke-width=".5" stroke-miterlimit="10"/>
  <path d="M1762.4 375.778c-25.06-8.696-52.16-13.364-77.59-17.582-26.65-4.408-54.1-5.853-81.6-7.109-7.12-.332-14.23-.498-21.46-.427-32.25.409-64.38 3.948-95.94 10.569-14.92 3.033-29.57 6.635-43.34 9.952-24.75 5.972-50.5 11.54-74.09 21.042-13.6 5.474-25.39 12.939-32.95 22.488-6.64 8.365-10.57 17.085-15.53 25.426-6.46 11.577-16.14 21.028-27.88 27.203-8.11 4.408-16.26 8.389-24.32 11.991-33.43 14.904-66.62 17.63-100.59 11.421-21.34-3.886-43.65-12.796-63.8-22.511-25.94-12.535-51.99-26.587-78.23-38.791-31.204-14.573-69.373-10.023-94.052 13.483-15.552 14.81-35.253 28.436-57.254 31.54-5.927.853-12.826 1.635-20.673 2.085-35.703 2.062-68.562-8.104-99.287-23.056a202.987 202.987 0 0 1-58.13-43.53c-7.113-7.607-14.225-15.805-21.124-24.218-31.673-38.127-61.046-78.979-97.959-112.248a300.02 300.02 0 0 0-29.634-23.08c-21.977-15.261-41.465-36.895-61.782-54.336-10.644-9.146-22.498-16.587-34.21-19.857-15.528-4.313-31.957-4.952-48.244-5.237-13.893-.213-27.643-.331-40.683-2.748a92.4949 92.4949 0 0 0-51.421 6.421 101.9504 101.9504 0 0 0-34.978 24.412 101.897 101.897 0 0 0-21.92 36.582c-15.931 47.866-20.317 101.894-45.779 145.85-17.33 29.833-42.934 56.207-67.045 80.567-17.757 17.914-34.281 38.293-52.9624 55.994C4.6582 596.911-94.1071 624.375-201.929 577.883" stroke="#65BDEA" stroke-width=".5" stroke-miterlimit="10"/>
  <path d="M1760.22 373.93c-24.75-9.147-51.73-13.815-77.1-17.89-27.17-4.02-54.58-6.189-82.05-6.493-54-1.185-108.01 7.109-160.95 19.62-35.35 8.341-86.46 15.355-106.44 45.212-12.24 18.27-20.77 43.815-42.11 55.639-40.49 22.464-80.79 33.175-124.75 24.407-48.1-9.478-94.47-38.672-141.58-60.733-31.317-14.668-68.514-10.474-93.596 13.435-22.427 21.327-46.23 32.82-77.523 33.91-57.467 2.038-118.846-24.739-156.47-68.103-47.533-54.786-86.129-123.22-146.796-164.594-32.503-22.132-59.885-64.264-96.205-73.244-26.648-6.588-61.047-4.882-89.401-9.834-45.258-7.938-95.067 20.521-108.818 65.354-15.291 49.762-17.614 107.438-43.266 151.655-17.804 30.687-43.527 58.743-68.159 85.306C50.1764 569.471-55.4167 653.047-202 588.428" stroke="#65BDEA" stroke-width=".5" stroke-miterlimit="10"/>
</svg>
