<svg width="578" height="763" viewBox="0 0 578 763" fill="none" xmlns="http://www.w3.org/2000/svg">
  <path
    d="M150.14 567.162C131.313 539.585 121.751 491.36 130.212 458.845C140.52 419.05 164.257 389.218 132.613 351.372C106.678 320.409 64.6222 306.465 30.0056 288.464C-19.122 262.921 -36.5445 209.224 -14.1451 156.81C10.8397 98.2315 60.1122 63.472 124.826 53.2119C304.043 24.8581 478.495 163.011 501.065 342.158C507.913 396.898 506.253 451.597 477.398 498.402C446.664 548.348 412.226 595.714 358.01 621.665C281.089 658.644 197.341 636.255 150.14 567.162Z"
    stroke="url(#paint0_linear_60_1061)" stroke-miterlimit="10"/>
  <path
    d="M491.636 345.969C498.003 399.775 495.733 453.312 467.138 499.257L465.132 502.598C435.363 550.286 401.962 595.41 349.865 620.521C274.93 656.585 194.643 634.63 147.031 569.329C132.833 549.862 122.856 519.828 121.261 492.662C120.667 483.546 121.276 474.382 123.073 465.412C124.88 457.117 127.262 449.241 129.633 441.555C138.273 413.487 146.735 388.308 123.243 358.48L121.517 356.335C96.9135 326.103 60.0301 312.302 28.0559 294.522C-18.4855 268.684 -35.4839 216.873 -13.6976 165.651C10.7097 108.274 58.2664 74.2666 120.771 63.4343C165.182 55.4953 210.707 57.6488 254.05 69.7388C337.019 93.0843 409.226 151.514 452.095 227.052C473.097 263.514 486.549 303.969 491.636 345.969V345.969Z"
    stroke="url(#paint1_linear_60_1061)" stroke-miterlimit="10"/>
  <path
    d="M482.262 349.718C487.952 402.614 485.4 455.036 457.182 500.114L455.241 503.201C425.739 550.302 392.894 594.451 341.525 619.248C268.612 654.408 191.697 632.94 143.708 571.441C128.146 550.06 118.476 524.846 115.679 498.358C114.689 489.638 114.864 480.814 116.201 472.125C117.557 464.099 119.544 456.429 121.467 448.859C128.608 421.291 136.28 395.637 114.167 365.626L112.558 363.472C89.3752 332.451 56.5502 318.543 26.4364 300.627C-17.4383 274.476 -33.9508 224.605 -12.9744 174.601C10.5141 118.57 56.4111 85.0975 116.789 73.5213C160.126 64.7041 204.792 65.839 247.495 76.8426C329.846 98.7543 401.374 157.163 443.619 231.882C464.322 268.017 477.473 308.119 482.262 349.718V349.718Z"
    stroke="url(#paint2_linear_60_1061)" stroke-miterlimit="10"/>
  <path
    d="M472.851 353.457C477.981 405.436 474.719 456.632 447.083 500.934L445.161 503.949C416.052 550.263 383.933 593.52 333.532 618.104C262.602 652.504 189 631.315 140.777 573.654C124.738 553.516 114.12 529.493 109.947 503.899C108.602 495.575 108.355 487.099 109.214 478.693C110.12 470.936 111.676 463.464 113.186 456.018C118.687 428.913 125.757 402.795 104.977 372.627L103.457 370.419C81.6965 338.607 52.973 324.719 24.7027 306.586C-16.5597 280.185 -32.6387 232.164 -12.356 183.371C10.3582 128.567 54.5938 95.7837 112.817 83.572C155.479 74.6256 198.971 73.1906 240.968 83.838C322.666 104.307 393.551 162.703 435.098 236.74C455.558 272.51 468.415 312.259 472.851 353.457Z"
    stroke="url(#paint3_linear_60_1061)" stroke-miterlimit="10"/>
  <path
    d="M463.477 357.205C468.019 408.222 464.208 458.31 436.948 501.744L435.081 504.697C406.33 550.216 374.802 592.66 325.37 616.878C256.513 650.618 186.008 629.652 137.595 575.957C121.164 557.078 109.68 534.304 104.185 509.703C102.464 501.761 101.787 493.615 102.171 485.477C102.655 477.882 103.742 470.751 104.831 463.466C108.771 436.807 115.141 410.159 95.6835 380.025L94.2541 377.763C73.9502 345.171 49.2381 331.357 22.8299 312.935C-15.6944 286.239 -31.4299 240.121 -11.8035 192.393C10.1626 138.862 52.7198 106.687 108.788 93.8397C150.259 84.3532 192.824 81.2112 234.366 91.1229C315.456 110.121 385.688 168.542 426.592 241.833C446.777 277.174 459.346 316.487 463.477 357.205V357.205Z"
    stroke="url(#paint4_linear_60_1061)" stroke-miterlimit="10"/>
  <path
    d="M453.996 360.927C457.977 411.025 453.635 459.934 426.778 502.546L424.956 505.471C396.582 550.123 365.689 591.728 317.137 615.633C250.327 648.514 182.82 628.015 134.443 577.997C117.62 560.319 105.27 538.768 98.4356 515.163C96.3436 507.612 95.2329 499.81 95.1316 491.954C95.138 484.737 95.8215 477.695 96.4618 470.525C98.8678 444.356 104.539 417.18 86.4594 386.863C86.0129 386.091 85.5571 385.355 85.1463 384.592C66.2375 351.165 45.8238 337.345 21.0623 318.731C-14.7427 291.813 -30.161 247.553 -11.2095 200.963C9.97473 148.542 50.8873 117.138 104.774 103.61C144.983 93.5646 186.648 88.7609 227.94 97.8745C308.357 115.656 377.966 173.838 418.191 246.374C438.106 281.457 450.317 320.523 453.996 360.927V360.927Z"
    stroke="url(#paint5_linear_60_1061)" stroke-miterlimit="10"/>
  <path
    d="M444.692 364.693C448.077 413.866 443.195 461.63 416.751 503.384L414.947 506.237C386.931 550.093 356.683 590.824 309.046 614.425C244.211 646.582 179.658 626.424 131.416 579.993C114.187 563.506 100.986 543.173 92.8477 520.587C90.3792 513.435 88.8204 505.987 88.2086 498.422C87.8006 491.483 87.9814 484.62 88.2805 477.594C89.1525 451.916 94.1239 424.211 77.3873 393.701C76.9408 392.929 76.53 392.166 76.1642 391.376C58.6862 357.122 42.5334 343.441 19.4466 324.528C-13.6486 297.424 -28.6859 254.923 -10.4731 209.57C9.97991 158.504 49.2516 127.562 100.92 113.498C139.902 102.903 180.64 96.3928 221.369 104.743C301.169 121.091 370.109 179.215 409.645 251.032C429.412 285.804 441.376 324.603 444.692 364.693V364.693Z"
    stroke="url(#paint6_linear_60_1061)" stroke-miterlimit="10"/>
  <path
    d="M435.282 368.433C437.999 416.66 432.657 463.263 406.661 504.168L404.867 506.984C377.254 550.019 347.616 589.864 300.885 613.199C238.079 644.569 176.192 624.831 128.26 582.341C110.627 566.997 96.56 547.895 87.0499 526.381C84.2105 519.616 82.2186 512.512 81.1206 505.234C80.3708 498.516 79.963 491.762 79.8987 484.997C79.1918 459.836 83.4822 431.53 68.1146 400.873C67.7038 400.11 67.338 399.32 66.9722 398.531C50.9513 363.496 39.0782 349.881 17.6041 330.613C-12.7023 303.46 -27.4469 262.618 -9.92787 218.474C9.77705 168.682 47.3796 138.311 96.8389 123.675C134.649 112.468 174.451 104.286 214.797 111.765C293.944 126.67 362.26 184.71 401.134 255.854C419.921 290.485 432.966 328.494 435.282 368.433Z"
    stroke="url(#paint7_linear_60_1061)" stroke-miterlimit="10"/>
  <path
    d="M425.908 372.181C428.18 419.482 422.146 464.941 396.527 504.978L394.787 507.732C367.532 549.971 338.574 588.951 292.723 611.972C231.946 642.555 172.698 623.347 125.116 584.499C107.851 570.414 90.9807 551.721 81.3346 532.004C78.1315 525.616 75.7219 518.846 74.1602 511.847C72.9385 505.369 72.0954 498.821 71.635 492.237C69.3941 467.567 73.0318 438.551 58.9244 407.873C58.5942 407.093 58.2285 406.303 57.9433 405.496C43.3813 369.526 35.7841 356.286 15.8778 336.691C-11.64 309.487 -26.1274 270.295 -9.25706 227.334C9.63788 178.76 45.6615 148.908 92.8927 133.771C129.512 122.024 168.351 112.126 208.249 118.987C286.77 132.494 354.397 190.548 392.611 260.865C411.1 295.033 424.015 332.661 425.908 372.181Z"
    stroke="url(#paint8_linear_60_1061)" stroke-miterlimit="10"/>
  <path
    d="M416.498 375.92C418.209 422.304 411.644 466.583 386.428 505.798L384.707 508.479C357.846 549.933 329.497 588.028 284.561 610.746C225.787 640.497 161.994 629.878 121.971 586.657C102.038 576.707 86.4485 556.299 75.6192 537.627C72.0361 531.626 69.1936 525.198 67.1547 518.487C65.4771 512.252 64.1983 505.912 63.3262 499.505C59.5063 475.352 62.4706 445.853 49.6779 415.091C49.3477 414.31 49.0626 413.503 48.7774 412.696C35.7006 375.837 28.6534 365.904 14.0801 342.749C-14.9447 320.483 -24.8436 277.962 -8.65762 236.176C9.45174 189.02 43.844 159.594 88.8828 143.967C124.294 131.598 162.197 120.029 201.64 126.154C279.543 138.227 346.527 196.269 384.097 265.84C402.314 299.591 415.065 336.828 416.498 375.92Z"
    stroke="url(#paint9_linear_60_1061)" stroke-miterlimit="10"/>
  <path
    d="M407.123 379.669C408.283 425.099 401.133 468.261 376.329 506.618L374.617 509.263C348.133 549.849 320.43 587.069 276.399 609.52C219.654 638.483 158.099 629.062 118.862 588.824C98.3157 580.066 81.9521 560.887 69.8326 543.232C65.8867 537.65 62.6004 531.616 60.0404 525.253C57.8931 519.254 56.1695 513.105 54.8824 506.853C49.6185 483.137 51.857 453.064 40.3602 422.29C40.075 421.482 39.7898 420.675 39.5496 419.841C27.958 382.093 24.6222 372.658 12.29 348.925C-14.505 327.005 -23.5148 285.603 -8.08624 245.126C9.31251 199.098 42.0526 170.325 84.8915 154.09C119.085 141.135 156.053 127.895 195.075 133.294C272.183 143.887 338.676 201.918 375.567 270.734C393.576 303.967 406.15 341.004 407.123 379.669Z"
    stroke="url(#paint10_linear_60_1061)" stroke-miterlimit="10"/>
  <path
    d="M397.713 383.408C398.321 427.885 390.524 469.875 366.23 507.438L364.537 510.011C338.447 549.81 311.353 586.146 268.237 608.293C213.458 636.569 154.147 628.463 115.708 591.018C94.4247 583.343 77.373 565.646 64.1528 548.864C59.8481 543.603 56.1573 537.854 53.153 531.73C50.5311 525.995 48.3703 520.052 46.6917 513.958C39.8488 490.759 41.6297 460.105 31.2599 429.236L30.53 426.769C20.4686 388.106 20.8442 379.169 10.5748 354.813C-14.0259 333.229 -22.2215 293.234 -7.40233 253.642C9.22207 208.842 40.3474 180.577 80.949 163.878C114.016 150.284 149.993 135.437 188.613 140.036C265.237 149.269 330.918 207.205 367.121 275.302C384.717 308.66 397.235 345.18 397.713 383.408Z"
    stroke="url(#paint11_linear_60_1061)" stroke-miterlimit="10"/>
  <path
    d="M388.338 387.157C388.457 430.734 380.12 471.581 356.096 508.248L354.457 510.758C328.734 549.726 302.321 585.196 260.075 607.067C207.353 634.447 150.224 627.756 112.599 593.186C90.6313 586.685 72.959 570.062 58.4375 554.487C53.7631 549.582 49.6305 544.176 46.112 538.361C43.0507 532.878 40.4677 527.133 38.3923 521.189C30.0154 498.481 31.0179 467.161 22.0416 436.345C21.8108 435.475 21.6062 434.65 21.4467 433.798C12.8704 394.244 16.9125 385.833 8.78659 360.835C-13.5486 339.607 -20.9283 300.866 -6.83103 262.592C9.04527 219.066 38.5392 191.227 76.939 174.073C108.843 159.831 143.839 143.339 182.03 147.249C258.037 155.047 323.074 212.971 358.607 280.277C375.931 313.217 388.284 349.348 388.338 387.157Z"
    stroke="url(#paint12_linear_60_1061)" stroke-miterlimit="10"/>
  <path
    d="M378.928 390.896C378.46 433.511 369.571 473.404 345.997 509.068L344.377 511.505C319.012 549.679 293.244 584.273 251.904 605.877C201.194 632.389 146.301 627.048 109.454 595.344C86.8116 589.98 68.4719 574.613 52.7222 560.109C47.6845 555.56 43.1223 550.497 39.1065 545.001C35.5686 539.792 32.5494 534.238 30.0928 528.421C20.1819 506.203 20.5487 474.255 12.8326 443.418L12.3184 440.853C5.26295 400.419 13.0258 392.47 7.03397 366.867C-13.0807 346.021 -19.6707 308.488 -6.2577 271.388C8.90799 228.99 36.7423 201.687 72.9215 184.151C103.636 169.214 137.678 151.125 175.448 154.307C250.847 160.636 315.206 218.538 350.051 285.125C367.146 317.774 379.369 353.524 378.928 390.896Z"
    stroke="url(#paint13_linear_60_1061)" stroke-miterlimit="10"/>
  <path
    d="M369.554 394.644C368.57 436.315 359.106 474.901 335.898 509.888L334.287 512.289C309.397 549.659 284.176 583.314 243.742 604.651C195.025 630.366 142.377 626.341 106.345 597.511C83.0182 593.321 63.9848 579.164 47.0069 565.732C41.5281 561.545 36.489 556.799 31.9679 551.568C27.9711 546.645 24.4982 541.307 21.606 535.642C10.2061 513.888 9.97254 481.321 3.48109 450.454L3.05686 447.835C-2.43278 406.494 8.93287 399.17 5.13888 372.862C-12.7815 352.353 -18.4842 316.092 -5.75561 280.166C0.513804 261.606 10.3272 244.456 23.1221 229.698C35.917 214.941 51.4418 202.865 68.8066 194.165C98.3754 178.661 131.454 158.855 168.769 161.302C243.542 166.233 307.238 224.195 341.468 289.928C358.325 322.323 370.464 357.664 369.554 394.644Z"
    stroke="url(#paint14_linear_60_1061)" stroke-miterlimit="10"/>
  <path
    d="M360.144 398.384C358.644 439.11 348.623 476.471 325.799 510.708L324.207 513.037C299.542 549.538 275.099 582.391 235.58 603.424C188.866 628.307 138.57 625.625 103.2 599.669C79.2341 596.626 59.5332 583.725 41.2558 571.346C35.4638 567.52 30.0549 563.133 25.1049 558.245C20.6492 553.607 16.7382 548.462 13.4491 542.91C0.515179 521.647 -0.309213 488.425 -5.58542 457.564C-5.73558 456.676 -5.81447 455.806 -5.89336 454.936C-9.84346 412.643 5.18111 405.726 3.50248 378.885C-12.1618 358.767 -17.0128 323.77 -5.00416 289.008C6.86234 252.84 31.8655 222.521 64.9053 204.234C93.3132 187.928 125.4 166.668 162.294 168.388C236.459 171.849 299.495 229.718 333.018 294.804C349.548 326.844 361.549 361.841 360.144 398.384Z"
    stroke="url(#paint15_linear_60_1061)" stroke-miterlimit="10"/>
  <path
    d="M350.769 402.132C348.718 441.905 338.093 478.221 315.674 511.482L314.127 513.784C289.927 549.518 266.174 581.469 227.419 602.198C182.707 626.249 134.54 624.889 100.091 601.836C75.4051 599.958 55.0555 588.24 35.5499 576.933C29.3705 573.435 23.5424 569.34 18.1464 564.703C13.2488 560.347 8.89989 555.396 5.19653 549.96C-9.27135 529.187 -10.6865 495.311 -14.7475 464.456C-14.8526 463.54 -14.9315 462.671 -14.9654 461.774C-17.3422 418.692 1.33195 412.218 1.79679 384.736C-11.647 365 -15.6634 331.184 -4.34845 297.633C6.77233 262.767 30.0144 233.106 61.0322 214.195C88.2791 197.086 119.383 174.336 155.857 175.33C229.378 177.311 291.762 235.204 324.651 299.508C340.763 331.401 352.634 366.017 350.769 402.132Z"
    stroke="url(#paint16_linear_60_1061)" stroke-miterlimit="10"/>
  <path
    d="M341.404 405.844C339.392 443.96 326.983 480.839 305.556 512.375L304.028 514.604C280.195 549.507 256.945 580.545 219.238 601.044C176.529 624.262 130.56 624.399 96.7756 604.066C71.4597 603.299 50.2738 592.753 29.6731 582.591C23.1096 579.491 16.8377 575.799 10.9326 571.56C5.59535 567.492 0.80736 562.735 -3.31113 557.408C-19.313 537.126 -21.274 502.567 -24.1647 471.745L-24.302 469.046C-25.0492 424.957 -2.79869 419.063 -0.271012 390.956C-11.4493 371.576 -14.5783 339.032 -4.01897 306.636C6.44643 273.04 27.9783 244.033 56.9585 224.49C83.0706 206.623 113.201 182.347 149.218 182.759C222.121 183.307 283.826 241.178 316.027 304.764C331.942 335.949 343.728 370.157 341.404 405.844Z"
    stroke="url(#paint17_linear_60_1061)" stroke-miterlimit="10"/>
  <path
    d="M331.994 409.583C329.288 446.744 316.665 482.534 295.476 513.122L293.967 515.279C270.528 549.396 247.896 579.513 211.237 599.782C170.532 622.168 126.835 623.511 93.9705 606.235C67.9346 606.632 46.2782 597.316 24.2711 588.179C17.2426 585.45 10.4811 582.07 4.0717 578.082C-1.69681 574.332 -6.91716 569.783 -11.4397 564.567C-29.0712 544.558 -31.4393 509.663 -33.2029 478.746C-33.2602 477.833 -33.2641 476.917 -33.2146 476.002C-32.4054 431.043 -6.51454 425.628 -1.7815 396.935C-10.7655 377.891 -13.043 346.61 -3.19609 315.497C6.4378 283.126 26.1519 254.719 52.9861 234.54C77.8753 215.817 107.085 190.105 142.719 189.646C214.979 188.714 276.041 246.573 307.524 309.549C323.156 340.506 334.849 374.343 331.994 409.583Z"
    stroke="url(#paint18_linear_60_1061)" stroke-miterlimit="10"/>
  <path
    d="M322.548 413.313C319.09 449.528 306.241 484.24 285.306 513.924L283.842 516.053C260.735 549.329 238.757 578.536 202.862 598.5C164.159 620.054 122.698 622.748 90.612 608.337C63.9368 609.881 41.5867 601.776 18.3326 593.783C10.9786 591.407 3.84781 588.385 -2.97875 584.749C-9.18003 581.292 -14.8543 576.949 -19.8291 571.852C-38.8183 552.534 -41.8728 516.766 -42.4568 485.846C-42.4813 484.913 -42.4347 483.998 -42.3879 483.084C-39.9791 437.381 -10.4819 432.283 -3.57908 402.993C-10.3332 384.296 -11.7947 354.268 -2.61346 324.257C6.27171 293.055 24.2672 265.249 48.9968 244.509C72.6631 224.929 100.916 197.773 136.129 196.587C207.881 194.095 268.198 252.186 299.086 314.235C314.333 345.209 325.934 378.519 322.548 413.313Z"
    stroke="url(#paint19_linear_60_1061)" stroke-miterlimit="10"/>
  <path
    d="M313.209 417.071C309.062 452.345 295.982 485.997 275.243 514.753L273.833 516.82C251.129 549.274 229.725 577.586 194.771 597.293C158.071 618.014 118.81 622.051 87.5741 610.523C60.2502 613.251 37.1893 606.273 12.6527 599.415C4.90721 597.387 -2.65283 594.705 -9.94871 591.399C-16.5651 588.193 -22.6699 584.01 -28.0649 578.985C-48.5787 560.12 -52.1622 523.752 -51.6022 492.82C-51.5817 491.86 -51.535 490.945 -51.4432 490.004C-47.3598 443.268 -14.3049 438.821 -5.30364 408.917C-10.5318 383.766 -9.36239 357.635 -1.90522 332.972C7.95256 299.468 24.0621 273.683 45.043 254.488C67.4696 233.968 94.8629 205.432 129.647 203.556C200.626 199.937 260.373 257.88 290.574 319.056C305.595 349.585 317.064 382.669 313.209 417.071Z"
    stroke="url(#paint20_linear_60_1061)" stroke-miterlimit="10"/>
  <path
    d="M303.835 420.82C299.301 455.934 285.529 486.494 265.144 515.573L263.753 517.567C241.407 549.226 220.658 576.627 186.609 596.066C151.876 615.946 114.887 621.343 84.4294 612.681C56.3949 616.537 32.6929 610.86 6.93741 605.038C-1.21117 603.386 -9.20089 601.032 -16.9448 598.002C-23.9851 595.143 -30.5435 591.205 -36.3923 586.324C-58.4401 567.95 -62.5171 530.991 -60.8394 500.001L-60.5641 497.177C-54.8436 449.552 -18.2648 445.593 -7.08441 415.057C-9.8338 390.557 -7.82877 365.714 -1.18198 341.923C7.92955 309.538 22.2763 283.953 41.1849 264.684C62.3192 243.135 88.709 213.334 123.216 210.769C193.653 205.427 252.721 263.349 282.24 323.924C296.774 354.133 308.184 386.854 303.835 420.82Z"
    stroke="url(#paint21_linear_60_1061)" stroke-miterlimit="10"/>
  <path
    d="M294.425 424.559C289.375 458.73 275.018 488.172 255.045 516.393L253.673 518.315C231.73 549.151 211.564 575.622 178.438 594.876C145.312 614.13 110.928 620.626 81.311 614.884C52.6014 619.878 28.2432 615.267 1.22202 610.661C-7.28641 609.366 -15.6699 607.363 -23.8434 604.67C-31.2941 602.099 -38.2927 598.358 -44.5848 593.583C-68.2135 575.881 -72.7274 538.113 -69.9413 507.101L-69.5761 504.223C-62.1923 455.756 -21.902 452.295 -8.73013 421.116C-9.15395 397.411 -6.42221 373.732 -0.608696 350.719C7.65536 319.698 20.2336 294.04 37.1674 274.762C56.9195 252.237 82.7464 220.939 116.572 217.773C186.356 210.988 244.781 268.897 273.613 328.753C287.988 358.691 299.35 391.013 294.425 424.559Z"
    stroke="url(#paint22_linear_60_1061)" stroke-miterlimit="10"/>
  <path
    d="M285.05 428.307C279.538 461.624 264.516 489.814 244.911 517.203L243.593 519.062C222.008 549.104 202.568 574.682 170.276 593.65C139.532 611.783 107.165 615.482 78.1663 617.042C48.2466 618.634 23.7393 619.737 -4.49322 616.284C-13.4376 615.341 -22.2872 613.668 -30.9557 611.282C-38.8221 608.986 -46.2712 605.441 -53.0267 600.777C-78.0975 583.358 -83.1609 545.216 -79.2572 514.146C-79.0135 513.206 -78.9837 512.21 -78.8113 511.251C-69.826 461.886 -20.6929 460.985 -10.6252 427.111C-5.66158 410.445 -6.62171 384.794 -0.106558 359.497C7.4094 329.748 18.0484 304.091 33.0524 284.775C51.3602 261.22 76.4763 228.851 109.991 224.831C179.141 216.531 236.903 274.5 265.101 333.575C279.231 363.139 290.471 395.198 285.05 428.307Z"
    stroke="url(#paint23_linear_60_1061)" stroke-miterlimit="10"/>
  <path
    d="M275.64 432.047C269.737 464.375 254.005 491.492 234.822 517.987L233.513 519.81C212.321 549.065 193.412 573.622 162.124 592.387C133.356 609.642 102.865 615.642 75.0666 619.173C46.7782 623.041 18.1928 623.942 -10.2349 621.861C-19.5807 621.289 -28.8593 619.944 -37.9781 617.84C-46.2413 615.843 -54.1201 612.498 -61.3075 607.936C-87.8485 590.908 -93.424 552.248 -88.4381 521.111L-87.9022 518.161C-77.1823 467.971 -25.9075 467.317 -12.3404 432.998C-5.93453 416.783 -5.27424 392.362 0.637209 368.221C7.40508 339.746 16.105 314.088 29.2055 294.781C45.936 270.123 70.4593 236.519 103.544 231.809C172.096 222.002 229.206 279.996 256.715 338.351C270.391 367.76 281.636 399.357 275.64 432.047Z"
    stroke="url(#paint24_linear_60_1061)" stroke-miterlimit="10"/>
  <path
    d="M266.265 435.795C259.873 467.224 243.503 493.134 224.723 518.807L223.423 520.593C202.609 548.981 184.273 572.645 153.906 591.378C128.556 606.384 100.756 616.607 71.8657 621.548C42.8902 627.092 13.3957 629.158 -16.0065 627.701C-25.7536 627.489 -35.4625 626.484 -45.0397 624.697C-53.7058 623.003 -62.0297 619.882 -69.6818 615.457C-97.7925 598.91 -103.79 559.677 -97.722 528.473L-96.9629 525.543C-84.6622 474.681 -31.1689 473.83 -14.0966 439.338C-6.16609 423.402 -3.96589 400.23 1.1712 377.316C7.16472 350.069 13.8355 324.464 25.1582 305.122C40.1856 279.404 64.2773 244.53 96.9326 239.13C164.824 227.762 221.298 285.862 248.128 343.462C261.605 372.317 272.793 403.552 266.265 435.795Z"
    stroke="url(#paint25_linear_60_1061)" stroke-miterlimit="10"/>
  <path
    d="M256.855 439.534C250.054 470.047 232.992 494.813 214.624 519.626L213.343 521.341C192.887 548.934 175.179 571.641 145.791 589.971C121.866 605.009 95.8628 616.313 68.6609 623.498C36.8912 631.791 10.1391 633.046 -21.8081 633.07C-31.9602 633.245 -42.1039 632.593 -52.1409 631.119C-61.2019 629.683 -69.9613 626.762 -78.0768 622.471C-107.721 606.414 -114.224 566.78 -107.027 535.328L-106.249 532.325C-92.2117 480.485 -36.6085 479.563 -16.0161 445.133C-6.55899 429.323 -2.80388 407.634 1.61324 385.885C6.85866 359.911 11.384 334.368 20.9737 314.963C34.2363 288.132 57.9584 252.043 90.2198 245.961C157.467 233.115 213.289 291.238 239.476 348.093C252.82 376.875 263.985 407.756 256.855 439.534Z"
    stroke="url(#paint26_linear_60_1061)" stroke-miterlimit="10"/>
  <path
    d="M-115.27 539.408C-124.749 571.157 -118.425 613.678 -86.2337 629.739C-67.651 639.03 -47.6744 639.418 -27.381 638.73C5.7588 637.625 33.5913 636.457 65.6588 625.693C91.3934 616.917 114.755 603.357 137.629 588.744C166.059 570.591 183.21 548.859 203.263 522.088C221.682 497.519 240.019 473.701 247.481 443.283C255.186 411.924 243.999 381.423 231.071 352.942C205.563 296.842 150.385 238.731 83.7901 253.021C51.949 259.828 28.4446 297.132 17.1176 325.005C2.55853 360.805 6.75991 416.365 -17.6432 451.12C-41.7012 485.424 -99.534 486.734 -115.27 539.408Z"
    stroke="url(#paint27_linear_60_1061)" stroke-miterlimit="10"/>
  <defs>
    <linearGradient id="paint0_linear_60_1061" x1="506.929" y1="414.353" x2="-45.28" y2="271.307"
                    gradientUnits="userSpaceOnUse">
      <stop stop-color="#8A9AFF"/>
      <stop offset="1" stop-color="#65BDEA"/>
    </linearGradient>
    <linearGradient id="paint1_linear_60_1061" x1="496.64" y1="416.205" x2="-43.7587" y2="276.218"
                    gradientUnits="userSpaceOnUse">
      <stop stop-color="#8A9AFF"/>
      <stop offset="1" stop-color="#65BDEA"/>
    </linearGradient>
    <linearGradient id="paint2_linear_60_1061" x1="486.524" y1="417.98" x2="-41.8725" y2="281.102"
                    gradientUnits="userSpaceOnUse">
      <stop stop-color="#8A9AFF"/>
      <stop offset="1" stop-color="#65BDEA"/>
    </linearGradient>
    <linearGradient id="paint3_linear_60_1061" x1="476.243" y1="419.664" x2="-40.1466" y2="285.897"
                    gradientUnits="userSpaceOnUse">
      <stop stop-color="#8A9AFF"/>
      <stop offset="1" stop-color="#65BDEA"/>
    </linearGradient>
    <linearGradient id="paint4_linear_60_1061" x1="466.007" y1="421.513" x2="-38.4563" y2="290.835"
                    gradientUnits="userSpaceOnUse">
      <stop stop-color="#8A9AFF"/>
      <stop offset="1" stop-color="#65BDEA"/>
    </linearGradient>
    <linearGradient id="paint5_linear_60_1061" x1="455.804" y1="423.031" x2="-36.7544" y2="295.437"
                    gradientUnits="userSpaceOnUse">
      <stop stop-color="#8A9AFF"/>
      <stop offset="1" stop-color="#65BDEA"/>
    </linearGradient>
    <linearGradient id="paint6_linear_60_1061" x1="445.739" y1="424.665" x2="-34.9212" y2="300.153"
                    gradientUnits="userSpaceOnUse">
      <stop stop-color="#8A9AFF"/>
      <stop offset="1" stop-color="#65BDEA"/>
    </linearGradient>
    <linearGradient id="paint7_linear_60_1061" x1="435.549" y1="426.356" x2="-33.2243" y2="304.923"
                    gradientUnits="userSpaceOnUse">
      <stop stop-color="#8A9AFF"/>
      <stop offset="1" stop-color="#65BDEA"/>
    </linearGradient>
    <linearGradient id="paint8_linear_60_1061" x1="425.436" y1="428.165" x2="-31.4539" y2="309.81"
                    gradientUnits="userSpaceOnUse">
      <stop stop-color="#8A9AFF"/>
      <stop offset="1" stop-color="#65BDEA"/>
    </linearGradient>
    <linearGradient id="paint9_linear_60_1061" x1="414.817" y1="431.864" x2="-30.3136" y2="316.555"
                    gradientUnits="userSpaceOnUse">
      <stop stop-color="#8A9AFF"/>
      <stop offset="1" stop-color="#65BDEA"/>
    </linearGradient>
    <linearGradient id="paint10_linear_60_1061" x1="404.693" y1="433.808" x2="-28.64" y2="321.556"
                    gradientUnits="userSpaceOnUse">
      <stop stop-color="#8A9AFF"/>
      <stop offset="1" stop-color="#65BDEA"/>
    </linearGradient>
    <linearGradient id="paint11_linear_60_1061" x1="394.569" y1="435.622" x2="-26.945" y2="326.432"
                    gradientUnits="userSpaceOnUse">
      <stop stop-color="#8A9AFF"/>
      <stop offset="1" stop-color="#65BDEA"/>
    </linearGradient>
    <linearGradient id="paint12_linear_60_1061" x1="384.55" y1="437.661" x2="-25.2973" y2="331.492"
                    gradientUnits="userSpaceOnUse">
      <stop stop-color="#8A9AFF"/>
      <stop offset="1" stop-color="#65BDEA"/>
    </linearGradient>
    <linearGradient id="paint13_linear_60_1061" x1="374.486" y1="439.634" x2="-23.6716" y2="336.494"
                    gradientUnits="userSpaceOnUse">
      <stop stop-color="#8A9AFF"/>
      <stop offset="1" stop-color="#65BDEA"/>
    </linearGradient>
    <linearGradient id="paint14_linear_60_1061" x1="364.501" y1="441.653" x2="-22.1266" y2="341.5"
                    gradientUnits="userSpaceOnUse">
      <stop stop-color="#8A9AFF"/>
      <stop offset="1" stop-color="#65BDEA"/>
    </linearGradient>
    <linearGradient id="paint15_linear_60_1061" x1="354.536" y1="443.702" x2="-20.3291" y2="346.596"
                    gradientUnits="userSpaceOnUse">
      <stop stop-color="#8A9AFF"/>
      <stop offset="1" stop-color="#65BDEA"/>
    </linearGradient>
    <linearGradient id="paint16_linear_60_1061" x1="344.63" y1="445.748" x2="-18.6789" y2="351.635"
                    gradientUnits="userSpaceOnUse">
      <stop stop-color="#8A9AFF"/>
      <stop offset="1" stop-color="#65BDEA"/>
    </linearGradient>
    <linearGradient id="paint17_linear_60_1061" x1="334.766" y1="448.225" x2="-17.331" y2="357.016"
                    gradientUnits="userSpaceOnUse">
      <stop stop-color="#8A9AFF"/>
      <stop offset="1" stop-color="#65BDEA"/>
    </linearGradient>
    <linearGradient id="paint18_linear_60_1061" x1="324.776" y1="450.999" x2="-15.6536" y2="362.813"
                    gradientUnits="userSpaceOnUse">
      <stop stop-color="#8A9AFF"/>
      <stop offset="1" stop-color="#65BDEA"/>
    </linearGradient>
    <linearGradient id="paint19_linear_60_1061" x1="314.497" y1="454.821" x2="-14.8958" y2="369.493"
                    gradientUnits="userSpaceOnUse">
      <stop stop-color="#8A9AFF"/>
      <stop offset="1" stop-color="#65BDEA"/>
    </linearGradient>
    <linearGradient id="paint20_linear_60_1061" x1="304.334" y1="459.071" x2="-22.7727" y2="374.336"
                    gradientUnits="userSpaceOnUse">
      <stop stop-color="#8A9AFF"/>
      <stop offset="1" stop-color="#65BDEA"/>
    </linearGradient>
    <linearGradient id="paint21_linear_60_1061" x1="294.179" y1="464.027" x2="-30.9765" y2="379.797"
                    gradientUnits="userSpaceOnUse">
      <stop stop-color="#8A9AFF"/>
      <stop offset="1" stop-color="#65BDEA"/>
    </linearGradient>
    <linearGradient id="paint22_linear_60_1061" x1="283.896" y1="469.287" x2="-39.3048" y2="385.564"
                    gradientUnits="userSpaceOnUse">
      <stop stop-color="#8A9AFF"/>
      <stop offset="1" stop-color="#65BDEA"/>
    </linearGradient>
    <linearGradient id="paint23_linear_60_1061" x1="273.705" y1="474.773" x2="-47.986" y2="391.441"
                    gradientUnits="userSpaceOnUse">
      <stop stop-color="#8A9AFF"/>
      <stop offset="1" stop-color="#65BDEA"/>
    </linearGradient>
    <linearGradient id="paint24_linear_60_1061" x1="263.557" y1="480.316" x2="-56.6834" y2="397.359"
                    gradientUnits="userSpaceOnUse">
      <stop stop-color="#8A9AFF"/>
      <stop offset="1" stop-color="#65BDEA"/>
    </linearGradient>
    <linearGradient id="paint25_linear_60_1061" x1="253.397" y1="486.264" x2="-65.4058" y2="403.68"
                    gradientUnits="userSpaceOnUse">
      <stop stop-color="#8A9AFF"/>
      <stop offset="1" stop-color="#65BDEA"/>
    </linearGradient>
    <linearGradient id="paint26_linear_60_1061" x1="243.378" y1="491.866" x2="-74.4414" y2="409.537"
                    gradientUnits="userSpaceOnUse">
      <stop stop-color="#8A9AFF"/>
      <stop offset="1" stop-color="#65BDEA"/>
    </linearGradient>
    <linearGradient id="paint27_linear_60_1061" x1="233.393" y1="497.708" x2="-83.2815" y2="415.675"
                    gradientUnits="userSpaceOnUse">
      <stop stop-color="#8A9AFF"/>
      <stop offset="1" stop-color="#65BDEA"/>
    </linearGradient>
  </defs>
</svg>
