
<svg width="259" height="278" viewBox="0 0 259 278" fill="none" xmlns="http://www.w3.org/2000/svg">
<g filter="url(#filter0_d_0_1)">
<rect x="53" y="77" width="155" height="125" fill="white"/>
<rect x="51" y="75" width="159" height="129" stroke="white" stroke-width="4" stroke-linejoin="round"/>
</g>
<line x1="55.5" y1="74" x2="55.5" y2="44" stroke="white" stroke-width="3"/>
<line x1="107.5" y1="74" x2="107.5" y2="44" stroke="white" stroke-width="3"/>
<line x1="80.8342" y1="38.0397" x2="97.8251" y2="17.0561" stroke="white" stroke-width="3"/>
<line x1="80.5" y1="75" x2="80.5" y2="39" stroke="white" stroke-width="3"/>
<line x1="26" y1="45.5" x2="57" y2="45.5" stroke="white" stroke-width="3"/>
<line x1="27.5" y1="44" x2="27.5" y2="15" stroke="white" stroke-width="3"/>
<circle cx="81" cy="39" r="1" fill="white"/>
<circle cx="98.5" cy="16.5" r="2.5" fill="white"/>
<ellipse rx="2.5" ry="2.50031" transform="matrix(1 0 0.00671583 0.999977 248.517 63.5003)" fill="white"/>
<circle cx="107.5" cy="42.5" r="2.5" fill="white"/>
<line x1="210" y1="106.5" x2="240" y2="106.5" stroke="white" stroke-width="3"/>
<circle cx="240.5" cy="106.5" r="2.5" fill="white"/>
<line x1="208" y1="131.5" x2="238" y2="131.5" stroke="white" stroke-width="3"/>
<circle cx="238.5" cy="131.5" r="2.5" fill="white"/>
<line x1="210" y1="160.5" x2="240" y2="160.5" stroke="white" stroke-width="3"/>
<circle cx="241.528" cy="160.562" r="2.5" transform="rotate(91.4314 241.528 160.562)" fill="white"/>
<line x1="138.5" y1="74" x2="138.5" y2="44" stroke="white" stroke-width="3"/>
<circle cx="138.5" cy="42.5" r="2.5" fill="white"/>
<circle cx="27.5" cy="13.5" r="2.5" fill="white"/>
<line x1="198.5" y1="73" x2="198.5" y2="43" stroke="white" stroke-width="3"/>
<line x1="197" y1="43.5" x2="228" y2="43.5" stroke="white" stroke-width="3"/>
<line x1="226.5" y1="43" x2="226.5" y2="14" stroke="white" stroke-width="3"/>
<circle cx="226.5" cy="12.5" r="2.5" fill="white"/>
<ellipse cx="80" cy="39" rx="1" ry="2" fill="white"/>
<line x1="159.484" y1="36.4386" x2="184.129" y2="25.41" stroke="white" stroke-width="3"/>
<line x1="159.5" y1="73" x2="159.5" y2="37" stroke="white" stroke-width="3"/>
<line x1="183.5" y1="26" x2="183.5" y2="2" stroke="white" stroke-width="3"/>
<circle cx="184" cy="26" r="1" fill="white"/>
<circle cx="183.5" cy="2.5" r="2.5" fill="white"/>
<ellipse cx="159" cy="37" rx="1" ry="2" fill="white"/>
<line x1="195.681" y1="235.35" x2="195.681" y2="205.35" stroke="white" stroke-width="3"/>
<line x1="146.686" y1="204.622" x2="146.686" y2="234.622" stroke="white" stroke-width="3"/>
<line x1="173.891" y1="240.367" x2="156.32" y2="260.867" stroke="white" stroke-width="3"/>
<line x1="173.655" y1="204" x2="173.655" y2="240" stroke="white" stroke-width="3"/>
<line x1="227.182" y1="233.89" x2="196.182" y2="233.89" stroke="white" stroke-width="3"/>
<line x1="225.682" y1="234.39" x2="225.682" y2="263.39" stroke="white" stroke-width="3"/>
<circle cx="173.195" cy="240.404" r="1" transform="rotate(-179.198 173.195 240.404)" fill="white"/>
<circle cx="155.09" cy="262.265" r="2.5" transform="rotate(-179.198 155.09 262.265)" fill="white"/>
<circle cx="146.716" cy="234.925" r="2.5" transform="rotate(-179.198 146.716 234.925)" fill="white"/>
<line x1="115.689" y1="204.189" x2="115.689" y2="234.189" stroke="white" stroke-width="3"/>
<circle cx="115.716" cy="234.925" r="2.5" transform="rotate(-179.198 115.716 234.925)" fill="white"/>
<circle cx="225.716" cy="263.925" r="2.5" transform="rotate(-179.198 225.716 263.925)" fill="white"/>
<line x1="55.5" y1="205" x2="55.5" y2="235" stroke="white" stroke-width="3"/>
<line x1="57" y1="233.5" x2="26" y2="233.5" stroke="white" stroke-width="3"/>
<line x1="27.5" y1="235" x2="27.5" y2="264" stroke="white" stroke-width="3"/>
<circle cx="27.5347" cy="264.535" r="2.5" transform="rotate(-179.198 27.5347 264.535)" fill="white"/>
<ellipse cx="174.182" cy="240.39" rx="1" ry="2" transform="rotate(-179 174.182 240.39)" fill="white"/>
<line x1="94.5718" y1="240.768" x2="69.775" y2="251.451" stroke="white" stroke-width="3"/>
<line x1="94.6348" y1="204.894" x2="94.6348" y2="240.894" stroke="white" stroke-width="3"/>
<line x1="70.6815" y1="250.39" x2="70.6815" y2="274.39" stroke="white" stroke-width="3"/>
<ellipse cx="70.1814" cy="250.404" rx="1.014" ry="0.999802" transform="rotate(-179.198 70.1814 250.404)" fill="white"/>
<circle cx="70.7163" cy="274.925" r="2.5" transform="rotate(-179.198 70.7163 274.925)" fill="white"/>
<ellipse cx="94.6264" cy="240.185" rx="1.59548" ry="2" transform="rotate(168.931 94.6264 240.185)" fill="white"/>
<line x1="247.404" y1="187.472" x2="256.903" y2="212.746" stroke="white" stroke-width="3"/>
<line x1="211.275" y1="187.645" x2="247.275" y2="187.645" stroke="white" stroke-width="3"/>
<circle cx="256.5" cy="211.5" r="2.5" fill="white"/>
<ellipse cx="247.057" cy="187.121" rx="1" ry="2" transform="rotate(93.5105 247.057 187.121)" fill="white"/>
<line y1="-1.5" x2="36.0045" y2="-1.5" transform="matrix(1 0.000407291 -0.00712312 0.999975 212 82)" stroke="white" stroke-width="3"/>
<line x1="248.5" y1="81.9949" x2="248.5" y2="65" stroke="white" stroke-width="3"/>
<ellipse rx="2.76336" ry="2.50031" transform="matrix(-0.076815 -0.997045 0.996507 -0.0835093 2.70384 181.964)" fill="white"/>
<line x1="23" y1="171.5" x2="53" y2="171.5" stroke="white" stroke-width="3"/>
<circle cx="21.5535" cy="171.554" r="2.5" transform="rotate(-91.2397 21.5535 171.554)" fill="white"/>
<line x1="20" y1="145.5" x2="50" y2="145.5" stroke="white" stroke-width="3"/>
<circle cx="18.5535" cy="145.554" r="2.5" transform="rotate(-91.2397 18.5535 145.554)" fill="white"/>
<line x1="20" y1="116.5" x2="50" y2="116.5" stroke="white" stroke-width="3"/>
<circle cx="18.5535" cy="116.553" r="2.5" transform="rotate(-91.2397 18.5535 116.553)" fill="white"/>
<line x1="15.5" y1="93" x2="15.5" y2="66" stroke="white" stroke-width="3"/>
<line x1="14" y1="91.5" x2="50" y2="91.5" stroke="white" stroke-width="3"/>
<circle cx="15.5364" cy="65.5363" r="2.5" transform="rotate(-89.1606 15.5364 65.5363)" fill="white"/>
<line x1="23.1904" y1="195.602" x2="4.18303" y2="183.258" stroke="white" stroke-width="3"/>
<line x1="23.9758" y1="195.68" x2="51.8288" y2="195.68" stroke="white" stroke-width="3"/>
<ellipse rx="1.10534" ry="1.00012" transform="matrix(-0.0394853 -0.99922 0.998932 -0.046195 24.0427 195.151)" fill="white"/>
<ellipse rx="1.10534" ry="1.50003" transform="matrix(0 -1 0.999977 -0.00671584 23.5 196.115)" fill="white"/>
<rect x="88.5" y="103.5" width="80" height="64" fill="white" stroke="#000" stroke-width="3" stroke-linejoin="round"/>
<circle cx="66.5" cy="87.5" r="2.5" fill="#000"/>
<circle cx="66.5" cy="189.5" r="2.5" fill="#000"/>
<circle cx="196.5" cy="87.5" r="2.5" fill="#000"/>
<circle cx="196.5" cy="189.5" r="2.5" fill="#000"/>
<defs>
<filter id="filter0_d_0_1" x="45" y="73" width="171" height="141" filterUnits="userSpaceOnUse" color-interpolation-filters="sRGB">
<feFlood flood-opacity="0" result="BackgroundImageFix"/>
<feColorMatrix in="SourceAlpha" type="matrix" values="0 0 0 0 0 0 0 0 0 0 0 0 0 0 0 0 0 0 127 0" result="hardAlpha"/>
<feOffset dy="4"/>
<feGaussianBlur stdDeviation="2"/>
<feComposite in2="hardAlpha" operator="out"/>
<feColorMatrix type="matrix" values="0 0 0 0 0 0 0 0 0 0 0 0 0 0 0 0 0 0 0.25 0"/>
<feBlend mode="normal" in2="BackgroundImageFix" result="effect1_dropShadow_0_1"/>
<feBlend mode="normal" in="SourceGraphic" in2="effect1_dropShadow_0_1" result="shape"/>
</filter>
</defs>
</svg>
