<!-- <svg width="10.32" height="10.32" viewBox="0 0 292 292"  xmlns="http://www.w3.org/2000/svg">
<path fill="none" d="M58.3794 258.899C62.9997 239.645 74.1235 222.457 89.9777 210.128C105.834 197.797 125.49 191.051 145.769 191C166.048 190.949 185.74 197.596 201.66 209.848C217.579 222.098 228.793 239.23 233.514 258.461M58.8656 259.016C63.459 239.873 74.5189 222.783 90.2847 210.522C106.053 198.26 125.601 191.551 145.77 191.5C165.94 191.45 185.523 198.061 201.355 210.244C217.186 222.426 228.335 239.46 233.029 258.58L234 258.342C229.251 238.999 217.973 221.77 201.965 209.452C185.956 197.132 166.157 190.449 145.768 190.5C125.379 190.551 105.615 197.333 89.6708 209.733C73.7282 222.131 62.5403 239.416 57.8932 258.783L58.8656 259.016ZM240.98 123.862L240.5 122.193L240.02 123.862L235.746 138.702H221.954H220.556L221.637 139.588L232.845 148.775L228.558 163.66L228.113 165.203L229.355 164.185L240.5 155.05L251.645 164.185L252.887 165.203L252.442 163.66L248.155 148.775L259.363 139.588L260.444 138.702H259.046H245.254L240.98 123.862ZM244.398 139.34L244.502 139.702H244.878H257.647L247.267 148.21L247.012 148.419L247.103 148.735L251.037 162.394L240.817 154.017L240.5 153.757L240.183 154.017L229.963 162.394L233.897 148.735L233.988 148.419L233.733 148.21L223.353 139.702H236.122H236.498L236.602 139.34L240.5 125.807L244.398 139.34ZM146.98 28.8616L146.5 27.1933L146.02 28.8616L141.746 43.7016H127.954H126.556L127.637 44.5883L138.845 53.7747L134.558 68.66L134.113 70.203L135.355 69.1851L146.5 60.0498L157.645 69.1851L158.887 70.203L158.442 68.66L154.155 53.7747L165.363 44.5883L166.444 43.7016H165.046H151.254L146.98 28.8616ZM150.398 44.34L150.502 44.7016H150.878H163.647L153.267 53.2101L153.012 53.4188L153.103 53.7351L157.037 67.3938L146.817 59.0166L146.5 58.7567L146.183 59.0166L135.963 67.3938L139.897 53.7351L139.988 53.4188L139.733 53.2101L129.353 44.7016H142.122H142.498L142.602 44.34L146.5 30.8067L150.398 44.34ZM70.9805 52.8616L70.5 51.1933L70.0195 52.8616L65.7457 67.7016H51.9544H50.5557L51.6374 68.5883L62.8446 77.7747L58.5577 92.66L58.1133 94.203L59.3552 93.1851L70.5 84.0498L81.6448 93.1851L82.8867 94.203L82.4423 92.66L78.1554 77.7747L89.3626 68.5883L90.4443 67.7016H89.0456H75.2543L70.9805 52.8616ZM74.3976 68.34L74.5017 68.7016H74.878H87.6469L77.2668 77.2101L77.0122 77.4188L77.1033 77.7351L81.037 91.3938L70.817 83.0166L70.5 82.7567L70.183 83.0166L59.963 91.3938L63.8967 77.7351L63.9878 77.4188L63.7332 77.2101L53.3531 68.7016H66.122H66.4983L66.6024 68.34L70.5 54.8067L74.3976 68.34ZM212.98 52.8616L212.5 51.1933L212.02 52.8616L207.746 67.7016H193.954H192.556L193.637 68.5883L204.845 77.7747L200.558 92.66L200.113 94.203L201.355 93.1851L212.5 84.0498L223.645 93.1851L224.887 94.203L224.442 92.66L220.155 77.7747L231.363 68.5883L232.444 67.7016H231.046H217.254L212.98 52.8616ZM216.398 68.34L216.502 68.7016H216.878H229.647L219.267 77.2101L219.012 77.4188L219.103 77.7351L223.037 91.3938L212.817 83.0166L212.5 82.7567L212.183 83.0166L201.963 91.3938L205.897 77.7351L205.988 77.4188L205.733 77.2101L195.353 68.7016H208.122H208.498L208.602 68.34L212.5 54.8067L216.398 68.34ZM41.9805 123.862L41.5 122.193L41.0195 123.862L36.7457 138.702H22.9544H21.5557L22.6374 139.588L33.8446 148.775L29.5577 163.66L29.1133 165.203L30.3552 164.185L41.5 155.05L52.6448 164.185L53.8867 165.203L53.4423 163.66L49.1554 148.775L60.3626 139.588L61.4443 138.702H60.0456H46.2543L41.9805 123.862ZM45.3975 139.34L45.5017 139.702H45.878H58.6469L48.2668 148.21L48.0122 148.419L48.1033 148.735L52.037 162.394L41.817 154.017L41.5 153.757L41.183 154.017L30.963 162.394L34.8967 148.735L34.9878 148.419L34.7332 148.21L24.3531 139.702H37.122H37.4983L37.6025 139.34L41.5 125.807L45.3975 139.34ZM291.5 146C291.5 226.357 226.357 291.5 146 291.5C65.6426 291.5 0.5 226.357 0.5 146C0.5 65.6426 65.6426 0.5 146 0.5C226.357 0.5 291.5 65.6426 291.5 146ZM189.5 138C189.5 160.34 170.277 178.5 146.5 178.5C122.723 178.5 103.5 160.34 103.5 138C103.5 115.66 122.723 97.5 146.5 97.5C170.277 97.5 189.5 115.66 189.5 138ZM146.5 179.5C170.772 179.5 190.5 160.947 190.5 138C190.5 115.053 170.772 96.5 146.5 96.5C122.228 96.5 102.5 115.053 102.5 138C102.5 160.947 122.228 179.5 146.5 179.5Z" fill="none" stroke="#fff" stroke-width="6"/>
</svg> -->

<!-- 262.8 -->

<svg width="292" height="292" viewBox="0 0 292 292" fill="none" xmlns="http://www.w3.org/2000/svg">
<circle cx="146" cy="146" r="142.5" fill="none" stroke="white" stroke-width="2"/>
<path d="M242 159.145L248.236 177.738L248.465 178.42H249.184H269.276L253.049 189.841L252.44 190.27L252.677 190.977L258.892 209.507L242.576 198.023L242 197.618L241.424 198.023L225.108 209.507L231.323 190.977L231.56 190.27L230.951 189.841L214.724 178.42H234.816H235.535L235.764 177.738L242 159.145Z" fill="none" stroke="white" stroke-width="4"/>
<path d="M146 17.1447L152.236 35.7385L152.465 36.4205H153.184H173.276L157.049 47.8413L156.44 48.2703L156.677 48.977L162.892 67.507L146.576 56.0232L146 55.6181L145.424 56.0232L129.108 67.507L135.323 48.977L135.56 48.2703L134.951 47.8413L118.724 36.4205H138.816H139.535L139.764 35.7385L146 17.1447Z" fill="none" stroke="white" stroke-width="4"/>
<path d="M71 69.1447L77.2364 87.7385L77.4651 88.4205H78.1844H98.2756L82.0491 99.8413L81.4396 100.27L81.6766 100.977L87.8916 119.507L71.5756 108.023L71 107.618L70.4244 108.023L54.1084 119.507L60.3234 100.977L60.5604 100.27L59.9509 99.8413L43.7244 88.4205H63.8156H64.5349L64.7636 87.7385L71 69.1447Z" fill="none" stroke="white" stroke-width="4"/>
<path d="M222 69.1447L228.236 87.7385L228.465 88.4205H229.184H249.276L233.049 99.8413L232.44 100.27L232.677 100.977L238.892 119.507L222.576 108.023L222 107.618L221.424 108.023L205.108 119.507L211.323 100.977L211.56 100.27L210.951 99.8413L194.724 88.4205H214.816H215.535L215.764 87.7385L222 69.1447Z" fill="none" stroke="white" stroke-width="4"/>
<path d="M55.9484 258.316C60.7028 238.503 72.1469 220.827 88.443 208.154C104.74 195.48 124.935 188.553 145.763 188.5C166.591 188.448 186.822 195.274 203.185 207.867C219.548 220.458 231.084 238.076 235.942 257.865" fill="none" stroke="white" stroke-width="4"/>
<path d="M188 138C188 159.429 169.533 177 146.5 177C123.467 177 105 159.429 105 138C105 116.571 123.467 99 146.5 99C169.533 99 188 116.571 188 138Z" fill="none" stroke="white" stroke-width="3"/>
<path d="M51 158.145L57.2364 176.738L57.4651 177.42H58.1844H78.2756L62.0491 188.841L61.4396 189.27L61.6766 189.977L67.8916 208.507L51.5756 197.023L51 196.618L50.4244 197.023L34.1084 208.507L40.3234 189.977L40.5604 189.27L39.9509 188.841L23.7244 177.42H43.8156H44.5349L44.7636 176.738L51 158.145Z" fill="none" stroke="white" stroke-width="4"/>
</svg>

