<svg xmlns="http://www.w3.org/2000/svg" fill="#03E2B3" viewBox="0 0 40 40">
  <path stroke="none" fill-rule="evenodd" d="M8.75 25a1.25 1.25 0 0 1-1.25-1.25v-20A1.25 1.25 0 0 1 8.75 2.5h22.5a1.25 1.25 0 0 1 1.25 1.25v20A1.25 1.25 0 0 1 31.25 25h-5a1.25 1.25 0 0 0 0 2.5h5A3.75 3.75 0 0 0 35 23.75v-20A3.75 3.75 0 0 0 31.25 0H8.75A3.75 3.75 0 0 0 5 3.75v20a3.75 3.75 0 0 0 3.75 3.75h5a1.25 1.25 0 0 0 0-2.5h-5Z" clip-rule="evenodd"/>
  <path stroke="none" fill-rule="evenodd" d="M19.11 10.37a1.25 1.25 0 0 1 1.78 0l7.5 7.5a1.25 1.25 0 0 1-1.78 1.77l-5.36-5.37v21.98a1.25 1.25 0 1 1-2.5 0V14.27l-5.37 5.37a1.25 1.25 0 1 1-1.77-1.78l7.5-7.5Z" clip-rule="evenodd"/>
</svg>
