<svg xmlns="http://www.w3.org/2000/svg" fill="#03E2B3" viewBox="0 0 40 40">
  <path stroke="none" d="M19.11.37a1.25 1.25 0 0 1 1.78 0L25.52 5H35a5 5 0 0 1 5 5v22.5a5 5 0 0 1-5 5H5a5 5 0 0 1-5-5V10a5 5 0 0 1 5-5h9.48L19.11.37ZM2.5 17.5V25h35v-7.5h-35Zm35-2.5v-5A2.5 2.5 0 0 0 35 7.5h-9.48a2.5 2.5 0 0 1-1.77-.73L20 3.02l-3.75 3.75a2.5 2.5 0 0 1-1.77.73H5A2.5 2.5 0 0 0 2.5 10v5h35Zm0 12.5h-35v5A2.5 2.5 0 0 0 5 35h30a2.5 2.5 0 0 0 2.5-2.5v-5ZM5 11.25A1.25 1.25 0 0 1 6.25 10h20a1.25 1.25 0 1 1 0 2.5h-20A1.25 1.25 0 0 1 5 11.25Zm0 10A1.25 1.25 0 0 1 6.25 20h27.5a1.25 1.25 0 1 1 0 2.5H6.25A1.25 1.25 0 0 1 5 21.25Zm0 10A1.25 1.25 0 0 1 6.25 30h15a1.25 1.25 0 1 1 0 2.5h-15A1.25 1.25 0 0 1 5 31.25Z"/>
</svg>
