<svg xmlns="http://www.w3.org/2000/svg" fill="#03E2B3" viewBox="0 0 40 40">
  <path stroke="none" d="m38.52 35.77-3.19-3.23v2.91H4.23v-4.61h2.21v-1.78H4.22v-7.39h2.22V19.9H4.22v-7.12h2.22v-1.77H4.22V4.8l31.11 30.87v-3.13L24 21.29 3.9 1.33a1.11 1.11 0 0 0-1.9.79v34.44a1.11 1.11 0 0 0 1.11 1.11h34.62a1.11 1.11 0 0 0 .8-1.9Z"/>
  <path stroke="none" d="M16.22 33.33h4.45a2.22 2.22 0 0 0 2.22-2.22V9.67l-2.56-4.7a2.22 2.22 0 0 0-3.1-.79c-.34.22-.62.52-.8.88L14 9.69V31.1a2.22 2.22 0 0 0 2.22 2.22Zm0-23.1 2.16-4.2 2.29 4.2v16.44h-4.45V10.22Zm0 18.25h4.45v2.7h-4.45v-2.7Z"/>
  <path stroke="none" d="M16.22 13h4.47v10h-4.47z"/>
</svg>
