<svg xmlns="http://www.w3.org/2000/svg" fill="#03E2B3" stroke="#03E2B3" viewBox="0 0 44 44">
  <path fill="none" stroke-linecap="round" stroke-linejoin="round" stroke-width="2.5" d="M38.76 30.38V11.52a4.19 4.19 0 0 0-4.19-4.19H9.43a4.19 4.19 0 0 0-4.2 4.2v18.85a4.19 4.19 0 0 0 4.2 4.2h25.14a4.19 4.19 0 0 0 4.2-4.2Z" clip-rule="evenodd"/>
  <path fill="none" stroke-linecap="round" stroke-linejoin="round" stroke-width="2.5" d="M34.1 26.84v-5.28c0-.47-.21-.91-.6-1.24-.37-.33-.88-.52-1.42-.52H11.92c-.54 0-1.05.19-1.43.52-.38.33-.59.77-.59 1.24v5.28c0 .47.21.91.6 1.24.37.33.88.52 1.42.52h20.16c.54 0 1.05-.19 1.43-.52.38-.33.59-.77.59-1.24Z" clip-rule="evenodd"/>
  <path fill="none" stroke-linecap="round" stroke-linejoin="round" stroke-width="2.5" d="M20.9 13.2h13.2M9.9 13.2h2.2"/>
</svg>
