<svg xmlns="http://www.w3.org/2000/svg" fill="#03E2B3" stroke="#03E2B3" viewBox="0 0 40 40">
  <path d="M36.65 38.52v-3.08h1.77a.48.48 0 0 0 .47-.47v-4.5a.47.47 0 0 0-.47-.48h-4.6V10h4.6a.48.48 0 0 0 .47-.47v-4.5a.48.48 0 0 0-.47-.48h-1.77V1.47a.47.47 0 0 0-.48-.47H26.4a.48.48 0 0 0-.47.48v3.08h-1.77a.48.48 0 0 0-.48.47v4.5a.47.47 0 0 0 .48.48h4.6V30h-4.6a.48.48 0 0 0-.48.47v4.5a.47.47 0 0 0 .48.48h1.77v3.08a.48.48 0 0 0 .47.48h9.77a.48.48 0 0 0 .48-.48ZM26.88 1.95h8.82v2.6h-8.82v-2.6Zm-2.24 3.56h13.3v3.55h-13.3V5.51ZM29.7 10h3.16V30h-3.16V10Zm-5.07 20.93h13.3v3.55h-13.3v-3.55Zm2.24 7.11v-2.6h8.82v2.6h-8.82ZM15.73 10.01a.48.48 0 0 0 .48-.47v-4.5a.47.47 0 0 0-.48-.48h-1.77V1.48A.47.47 0 0 0 13.5 1H3.72a.48.48 0 0 0-.48.47v3.09H1.48a.48.48 0 0 0-.48.47v4.5a.47.47 0 0 0 .48.48h4.6V30h-4.6a.48.48 0 0 0-.48.47v4.5a.48.48 0 0 0 .48.48h1.76v3.09a.47.47 0 0 0 .48.47h9.77a.48.48 0 0 0 .48-.48v-3.08h1.76a.48.48 0 0 0 .48-.47v-4.5a.48.48 0 0 0-.48-.48h-4.6V10h4.6ZM4.2 1.95H13v2.6H4.2v-2.6ZM1.95 5.51h13.3v3.55H1.96V5.51Zm11.06 32.54H4.2v-2.6H13v2.6Zm2.25-3.56H1.96v-3.55h13.3v3.55ZM10.19 30H7.02V10h3.17V30Z"/>
</svg>
